<svg width="70" height="595" viewBox="0 0 70 595" fill="none" xmlns="http://www.w3.org/2000/svg">
<path d="M0 0H3V502.5C3 503.328 2.32843 504 1.5 504C0.671573 504 0 503.328 0 502.5V0Z" fill="#D9D9D9"/>
<path d="M42 0H45V551.5C45 552.328 44.3284 553 43.5 553C42.6716 553 42 552.328 42 551.5V0Z" fill="#D9D9D9"/>
<path d="M55 0H58V450.5C58 451.328 57.3284 452 56.5 452C55.6716 452 55 451.328 55 450.5V0Z" fill="#D9D9D9"/>
<path d="M68 0H70V346C70 346.552 69.5523 347 69 347C68.4477 347 68 346.552 68 346V0Z" fill="#D9D9D9"/>
<path d="M13 0H32V585.5C32 590.747 27.7467 595 22.5 595C17.2533 595 13 590.747 13 585.5V0Z" fill="#D9D9D9"/>
</svg>
