<svg width="129" height="136" viewBox="0 0 129 136" fill="none" xmlns="http://www.w3.org/2000/svg">
<g clip-path="url(#clip0_5_792)">
<path d="M109.676 82.7955C107.936 80.8639 106.094 80.7248 103.991 82.2963C100.624 84.8145 98.996 89.398 100.041 93.4141C100.241 94.1889 100.585 94.7209 101.544 94.6854C103.142 94.6281 104.744 94.6691 106.344 94.6691C106.344 94.7182 106.344 94.7673 106.344 94.8164C108.068 94.8164 109.792 94.8219 111.516 94.8164C112.244 94.8164 113.019 94.6445 112.967 93.7824C112.731 89.8755 112.505 85.9358 109.676 82.7955ZM109.833 92.792C108.665 92.7811 107.494 92.7893 106.325 92.7893C106.325 92.8057 106.325 92.822 106.325 92.8384C105.649 92.8384 104.97 92.852 104.294 92.8384C102.419 92.7966 101.597 91.8207 101.828 89.9109C102.13 87.4282 103.265 85.4256 105.25 83.8678C106.322 83.0274 107.257 83.1011 108.151 84.0942C110.204 86.3778 110.584 89.2207 110.834 92.0963C110.897 92.8275 110.353 92.8029 109.836 92.7975L109.833 92.792Z" fill="#EEE5DA"/>
<path d="M111.746 116.373C111.274 113.988 109.797 112.414 107.359 111.991C104.876 111.56 102.867 112.496 101.465 114.569C100.233 116.394 99.8316 118.479 99.6474 120.64C99.543 121.857 99.8784 122.468 101.184 122.495C102.908 122.53 104.629 122.659 106.353 122.749C106.353 122.713 106.353 122.68 106.355 122.645C107.774 122.645 109.192 122.634 110.611 122.648C111.81 122.661 112.502 122.249 112.315 120.91C112.104 119.398 112.041 117.862 111.744 116.367L111.746 116.373ZM105.907 120.762C105.173 120.762 104.436 120.76 103.702 120.762C101.349 120.776 101.195 120.593 101.94 118.449C102.237 117.595 102.556 116.736 102.99 115.944C103.793 114.476 105.085 113.737 106.779 113.923C108.434 114.105 109.327 115.139 109.761 116.711C110.803 120.487 110.768 120.544 105.907 120.762Z" fill="#EEE5DA"/>
<path d="M22.1881 93.4577C22.3723 93.4604 22.5565 93.4577 22.7434 93.4577C22.7434 93.4222 22.7434 93.384 22.7434 93.3485C23.7276 93.3485 24.7145 93.3895 25.696 93.3376C26.7461 93.2831 27.5571 92.7374 27.4362 91.6434C27.1173 88.7977 26.9276 85.9085 25.762 83.2375C25.0747 81.6633 23.9255 80.6211 22.0231 80.9103C18.5647 81.4341 16.3819 85.0218 16.7091 89.5999C16.9455 92.8902 17.6548 93.3895 22.1881 93.4604V93.4577ZM18.7132 87.6546C18.9854 85.8539 19.5132 84.2169 21.3001 83.2921C22.4878 82.6782 23.4225 82.7819 23.9695 84.116C24.8135 86.1731 25.0142 88.3558 25.2506 90.5329C25.3194 91.1741 25.0747 91.406 24.4479 91.4115C23.6506 91.4169 22.8561 91.4824 22.4878 91.4988C18.4713 91.5861 18.1716 91.2368 18.7105 87.6519L18.7132 87.6546Z" fill="#EEE5DA"/>
<path d="M21.6602 109.175C19.23 109.388 17.3276 111.494 16.8767 114.493C16.8135 114.913 16.8135 115.344 16.7695 116.01C16.8658 116.629 17.0252 117.469 17.1214 118.318C17.2754 119.652 18.1221 120.075 19.3207 119.955C21.718 119.718 24.1124 119.625 26.5097 119.876C27.7963 120.009 28.3351 119.426 28.3186 118.209C28.2994 116.673 28.0657 115.172 27.6011 113.707C26.6801 110.799 24.2582 108.952 21.6575 109.178L21.6602 109.175ZM22.9138 117.789C22.3695 117.827 21.3468 117.74 20.4259 118.004C18.9276 118.433 18.7819 117.71 18.7764 116.55C18.7709 115.505 18.8396 114.49 19.208 113.505C19.6616 112.291 20.4011 111.323 21.7784 111.227C23.3125 111.121 24.5056 111.803 25.2176 113.191C25.41 113.568 25.5585 113.972 25.6932 114.373C26.7818 117.622 26.7296 117.696 22.9138 117.789Z" fill="#EEE5DA"/>
<path d="M62.1108 71.6204C63.4662 71.6095 64.8215 71.6204 66.1768 71.6204V71.645C67.5953 71.645 69.0111 71.6614 70.4297 71.6395C71.3012 71.6259 72.0709 71.4213 71.9115 70.2918C71.5376 67.6426 71.4139 64.9334 70.2015 62.467C69.3025 60.639 68.1397 58.9748 65.8194 59.1494C63.4359 59.3295 61.8992 60.8191 61.1651 63.029C60.4036 65.3181 60.2717 67.6917 60.4669 70.0899C60.5521 71.1293 61.0579 71.6341 62.1108 71.6259V71.6204ZM62.5617 66.0165C62.7184 64.9852 62.9246 63.973 63.3617 63.0181C63.8648 61.9213 64.7225 61.2693 65.9129 61.1793C67.0868 61.0892 67.6146 62.0005 68.1342 62.8381C69.2751 64.6742 69.2723 66.805 69.6874 68.8267C69.8331 69.5306 69.4565 69.6806 68.8709 69.6779C67.884 69.6697 66.8998 69.6779 65.9129 69.6779C63.2774 69.8125 62.1585 68.5929 62.5562 66.0192L62.5617 66.0165Z" fill="#EEE5DA"/>
<path d="M57.7619 123.354C56.6128 123.264 56.9344 124.421 56.7832 125.152C56.9756 125.867 56.4258 127.018 57.7399 127.111C58.8615 127.19 58.6966 126.203 58.6526 125.54C58.5976 124.729 59.098 123.461 57.7646 123.357L57.7619 123.354Z" fill="#EEE5DA"/>
<path d="M65.9156 125.289C65.8964 125.289 65.8799 125.289 65.8606 125.289C65.8606 124.86 65.8744 124.435 65.8579 124.006C65.8359 123.423 65.7094 122.841 64.9919 122.82C64.1782 122.795 63.9885 123.398 63.9912 124.066C63.994 124.798 64.0517 125.531 64.0572 126.263C64.0627 126.977 64.3761 127.499 65.1046 127.507C65.9459 127.518 66.0283 126.866 65.9789 126.203C65.9569 125.897 65.9376 125.594 65.9156 125.289Z" fill="#EEE5DA"/>
<path d="M128.211 70.3105C124.563 64.9767 120.906 59.651 117.253 54.32C114.572 50.4103 111.897 46.4979 109.209 42.591C108.205 41.1314 108.417 39.4344 108.763 37.9747C109.008 36.9407 110.575 37.4345 111.551 37.2599C114.295 36.7716 117.14 37.129 119.845 36.3241C120.662 36.0813 121.626 35.8985 121.764 34.8427C121.89 33.8796 121.093 33.383 120.409 33.0338C119.064 32.3463 119.067 31.7351 120.219 30.8539C120.843 30.3764 121.486 29.7653 121.077 28.8295C120.656 27.8664 119.754 28.0901 118.976 28.112C115.507 28.2129 112.04 28.3984 108.571 28.4257C106.93 28.4394 106.421 29.086 106.473 30.6575C106.58 33.915 106.506 37.1781 106.564 40.4357C106.58 41.3988 106.369 42.1981 105.816 43.0084C103.603 46.2633 101.459 49.5645 99.2816 52.8412C95.1606 59.0426 91.0314 65.2413 86.905 71.44C86.5311 71.9993 86.017 72.5504 86.4129 73.2816C86.7895 73.9746 87.5015 73.7263 88.0899 73.7318C89.2665 73.7454 90.4459 73.7318 91.6225 73.6936C92.329 73.6717 92.5984 73.9364 92.5929 74.6676C92.5682 80.1705 92.5792 85.6762 92.5792 91.1792C92.3208 91.2038 92.0623 91.2283 91.8039 91.2529C91.4603 90.5435 91.0204 89.8642 90.7868 89.1221C89.4754 84.9478 86.806 82.9261 82.3029 83.7146C80.9586 83.9492 80.6727 83.3435 80.6755 82.0885C80.7057 72.313 80.67 62.5376 80.6397 52.7594C80.6315 50.4021 80.6067 50.4021 83.07 50.3994C84.3098 50.3994 85.5497 50.383 86.7895 50.3748C87.4631 50.3694 88.1888 50.4922 88.6122 49.7692C89.0713 48.9861 88.6287 48.3504 88.2273 47.7257C81.7504 37.6883 75.2762 27.6509 68.7827 17.6271C68.4363 17.0924 68.1504 16.7159 67.8893 16.5003C67.8838 14.7515 67.8948 13.0027 67.8178 11.2566C67.7711 10.1843 68.2302 9.92515 69.2336 9.88422C71.7078 9.78328 74.182 9.58957 76.648 9.36585C78.1298 9.23216 79.6088 8.95933 80.9476 8.28271C82.2287 7.63611 82.2974 6.61573 81.1923 5.90364C79.8031 5.00876 79.6262 3.97383 80.6617 2.79884C80.7827 2.6597 80.8981 2.5151 81.0054 2.36232C81.9016 1.08002 81.448 0.0187114 79.87 0.00506994C75.8398 -0.0303979 71.8095 0.0405378 67.7793 0.0787339C66.0584 0.0951036 65.4481 0.927233 65.5333 2.6597C65.7395 6.95949 65.6542 11.2729 65.9374 15.5673C65.9924 16.4158 65.9182 17.1797 65.7367 17.9C61.4481 24.1696 57.1787 30.4528 52.8928 36.7279C50.2866 40.5421 47.6557 44.3371 45.0688 48.1622C44.7499 48.6369 44.2413 49.1362 44.5822 49.8401C44.9643 50.6258 45.6846 50.5058 46.3581 50.5085C47.5375 50.514 48.7251 50.6095 49.8907 50.4812C51.4248 50.3121 51.7794 50.8823 51.9058 52.3747C52.7443 62.2156 51.422 72.0457 51.8481 81.8784C51.8894 82.8361 51.5265 82.9752 50.6852 82.967C47.5237 82.9316 44.3595 82.9207 41.198 82.997C40.1368 83.0243 39.796 82.7542 39.8592 81.6738C40.0159 79.0356 40.0984 76.3918 40.1203 73.7509C40.1286 72.785 40.5602 72.6514 41.3657 72.6732C42.9135 72.7141 44.4695 72.7414 46.0145 72.6568C47.4055 72.5804 47.7107 71.9011 47.0179 70.7197C43.1251 64.0872 39.3094 57.4029 34.9905 51.0351C31.7108 46.2033 29.5857 40.6376 25.462 36.3487C25.1376 36.0131 25.1376 35.582 25.1376 35.1428C25.1294 33.2984 25.1459 31.4514 25.0661 29.6071C25.0194 28.5348 25.4785 28.2757 26.4819 28.2347C28.9561 28.1338 31.4304 27.9401 33.8963 27.7164C35.3781 27.5827 36.8571 27.3098 38.196 26.6332C39.4771 25.9866 39.5458 24.9662 38.4406 24.2541C37.0514 23.3593 36.8745 22.3243 37.91 21.1493C38.031 21.0102 38.1465 20.8656 38.2537 20.7128C39.1499 19.4305 38.6963 18.3692 37.1183 18.3556C33.0881 18.3201 29.0579 18.391 25.0276 18.4292C23.3067 18.4456 22.6964 19.2777 22.7816 21.0102C22.9878 25.31 22.9026 29.6234 23.1857 33.9178C23.3342 36.1686 22.5589 37.8383 21.3301 39.6308C15.8621 47.6002 10.5397 55.6677 5.14046 63.6835C3.55971 66.0271 1.7013 68.1824 0.329488 70.6733C-0.352295 71.9147 0.0133389 72.5531 1.3824 72.6295C2.43257 72.6896 3.49373 72.6977 4.5439 72.6377C5.45386 72.5859 5.86348 72.8014 5.90197 73.8245C6.10815 79.4148 6.51227 84.9996 6.62774 90.5899C6.92464 104.919 6.94389 119.251 6.51227 133.58C6.47379 134.832 6.97963 135.391 8.11502 135.626C9.76449 135.97 11.4332 136.021 13.1102 135.978C18.5617 135.83 24.0132 135.618 29.4675 135.549C42.2399 135.394 55.0124 135.323 67.7848 135.187C76.2796 135.094 84.7909 134.551 93.261 134.93C102.124 135.326 110.976 135.277 119.834 135.369C121.214 135.383 121.613 134.884 121.563 133.49C121.379 128.328 121.129 123.155 121.297 117.998C121.75 104.035 121.445 90.0824 121.112 76.1245C121.046 73.3771 121.005 73.3798 123.867 73.3662C124.796 73.3607 125.728 73.3907 126.657 73.3416C127.424 73.3034 128.299 73.5626 128.802 72.6377C129.335 71.661 128.692 71.0007 128.216 70.3023L128.211 70.3105ZM70.6522 1.94762C71.8865 1.98308 73.1264 1.96671 74.3607 1.96944C75.5786 1.97217 76.7964 1.96944 78.336 1.96944C77.0255 3.52457 77.0145 5.20975 78.303 7.02497C75.1167 7.74797 71.9057 7.70159 68.7195 7.90621C67.98 7.95259 67.7408 7.57881 67.7326 6.91857C67.7243 6.3047 67.6858 5.69356 67.6501 5.08243C67.4577 1.84667 67.4549 1.85485 70.6522 1.95034V1.94762ZM65.1951 22.2843C67.3504 19.0076 67.3834 19.0295 69.4755 22.3907C69.5387 22.4944 69.5992 22.6035 69.6515 22.7127C70.0803 23.5721 71.3724 24.4506 70.9656 25.1545C70.4432 26.0575 68.9752 25.6756 67.9003 25.7547C67.6556 25.7711 67.4082 25.7547 66.9326 25.7547C65.8907 25.6401 64.0872 26.2431 63.5017 25.2691C62.9958 24.4288 64.5408 23.2774 65.1924 22.2843H65.1951ZM58.9079 31.4759C59.7161 30.3164 60.5519 29.1705 61.2859 27.9646C61.7202 27.2498 62.2426 27.1434 62.9848 27.2962C65.8632 27.8855 68.7525 28.011 71.6336 27.3371C72.3731 27.1652 72.7745 27.4244 73.1346 28.0437C73.7202 29.0532 74.3415 30.049 75.0315 30.9876C75.6858 31.8797 75.5044 32.1798 74.4267 32.3899C71.6226 32.9356 68.7992 33.2111 65.9511 33.2739C63.7738 33.3366 61.635 33.0365 59.4852 32.7446C58.4048 32.5973 58.38 32.2317 58.9079 31.4732V31.4759ZM56.5244 34.9763C56.8845 34.4389 57.1869 34.0515 58.0034 34.2915C63.8206 36.0049 69.6542 35.4674 75.4576 34.207C76.5435 33.9696 77.1593 34.106 77.7009 35.0937C78.4102 36.3841 79.1799 37.661 80.0789 38.8287C80.8872 39.8791 80.6287 40.171 79.4466 40.4875C72.4171 42.37 65.2749 42.7411 58.0584 42.1763C56.1615 42.029 54.2701 41.7889 52.0653 41.5597C53.701 39.1479 55.1196 37.0689 56.5244 34.9791V34.9763ZM47.2406 48.6151C48.5079 46.7407 49.5389 45.2484 50.5285 43.7287C50.9024 43.153 51.3065 43.164 51.9388 43.2922C61.5718 45.2265 71.1332 44.8473 80.5957 42.2472C81.6707 41.9526 82.2315 41.999 82.8088 43.0412C83.7572 44.7436 84.9119 46.3342 86.1765 48.2795C73.0961 48.5714 60.3759 48.094 47.2406 48.6178V48.6151ZM53.789 51.9463C53.701 50.8004 53.9567 50.4649 55.1416 50.4731C62.578 50.5113 70.0144 50.5003 77.448 50.4349C78.5257 50.4267 78.7373 50.7022 78.7236 51.739C78.6576 56.8382 78.6933 61.9401 78.6933 68.3079C78.9408 72.0811 78.7676 77.1203 78.6796 82.1595C78.6576 83.4036 78.2837 83.731 77.0879 83.6518C69.8522 83.1744 62.6027 83.0762 55.356 83.0352C54.2316 83.0298 53.9457 82.7188 53.866 81.5974C53.6406 78.3371 53.69 75.0823 53.921 71.8356C54.3911 65.2004 54.3058 58.5706 53.789 51.9491V51.9463ZM75.9497 85.5507C78.9215 85.6762 81.8988 85.7008 84.8734 85.7144C86.3497 85.7226 87.2706 86.3174 87.8699 87.6897C88.8734 89.9869 90.0198 92.2187 91.3256 94.9361H32.2853C33.6187 91.9158 34.9795 88.781 36.3953 85.6708C36.7912 84.8032 37.7039 85.1169 38.3966 85.1033C50.9189 84.8305 63.4357 85.0269 75.9497 85.5507ZM27.9005 20.2981C29.1348 20.3336 30.3747 20.3172 31.6091 20.3199C32.8269 20.3227 34.0448 20.3199 35.5843 20.3199C34.2739 21.8751 34.2629 23.5603 35.5513 25.3755C32.3651 26.0957 29.1541 26.0521 25.9678 26.2567C25.2283 26.3031 24.9892 25.9293 24.9809 25.2691C24.9727 24.6552 24.9342 24.0441 24.8984 23.4329C24.706 20.1972 24.7032 20.2054 27.9005 20.3008V20.2981ZM22.2235 41.718C22.449 41.3551 22.7239 41.0222 22.963 40.6648C24.7115 38.0539 24.728 38.0429 26.5149 40.7658C27.2077 41.8216 28.6262 43.1558 28.1149 44.0425C27.4661 45.1665 25.5692 44.8173 24.1782 44.9428C24.1177 44.9483 24.0545 44.9428 23.7878 44.9428C22.8586 44.8419 21.3163 45.1884 20.7692 44.2635C20.4036 43.6441 21.6902 42.5856 22.2263 41.7152L22.2235 41.718ZM16.5466 50.2384C16.5823 50.1893 16.6291 50.1429 16.6538 50.0884C17.9569 47.3764 19.5404 45.5321 23.0923 46.8199C24.7197 47.4092 26.6634 46.9781 28.3651 46.3588C29.2448 46.0396 29.7726 46.1487 30.13 47.0081C30.2482 47.2891 30.4214 47.5483 30.5809 47.8075C32.3101 50.6368 32.3156 50.6586 29.0001 51.5453C26.9053 52.1073 24.772 52.4238 22.9988 52.331C20.7363 52.2846 18.9053 52.1291 17.0854 51.6981C15.9555 51.4307 15.9693 50.9942 16.5466 50.233V50.2384ZM12.3624 56.6881C12.4421 56.5953 12.4971 56.4835 12.5631 56.3798C14.6634 53.1086 14.6469 53.185 18.4242 53.9462C22.8201 54.8329 27.1912 54.5082 31.3506 52.8549C32.9781 52.2082 33.7231 52.6912 34.5314 53.9516C36.2276 56.6008 36.2468 56.5271 33.1101 57.452C29.5115 58.5133 25.8221 58.6961 21.2696 58.7862C19.0813 58.7862 16.0655 58.5679 13.0607 58.1559C12.0188 58.0141 11.5019 57.6921 12.3597 56.6881H12.3624ZM10.0834 60.0576C10.4793 59.441 10.9301 59.5801 11.5129 59.7001C19.851 61.4244 28.1149 61.4463 36.2166 58.4888C36.9808 58.2105 37.33 58.3742 37.6984 58.999C38.6303 60.5814 39.598 62.1392 40.5575 63.7162C35.7465 65.9725 16.5686 66.5209 7.00712 64.6629C8.11227 63.0177 9.12394 61.5527 10.0861 60.0603L10.0834 60.0576ZM2.9769 70.5206C3.46624 69.0091 4.53015 67.9696 5.39613 66.8183C5.78925 66.2972 6.42705 66.5891 6.96863 66.6628C18.3253 68.2097 29.6572 68.4853 40.9258 65.9807C41.5801 65.8361 41.9238 65.8388 42.2372 66.4881C42.7458 67.5331 43.3286 68.548 43.9416 69.5384C44.5932 70.5888 44.2001 70.7006 43.1526 70.6924C33.308 70.6079 23.4606 70.5669 13.6133 70.5233C10.1136 70.5069 6.61124 70.5233 2.9769 70.5233V70.5206ZM29.8579 110.676C29.8744 117.867 29.1843 125.054 29.7259 132.245C29.8029 133.285 29.5005 133.607 28.4201 133.621C22.4077 133.697 16.3954 133.809 10.3885 134.011C8.86278 134.063 8.53013 133.539 8.57687 132.12C8.86278 123.147 8.959 114.168 8.86827 106.886C8.89577 94.8542 8.55762 84.5303 7.77687 74.2283C7.66966 72.8232 8.08752 72.6241 9.34112 72.635C18.4517 72.6977 27.5651 72.7168 36.6757 72.6841C37.8303 72.6786 38.2015 72.9897 38.1437 74.1219C38.0063 76.7602 37.9375 79.4039 37.9018 82.0449C37.8908 82.9616 37.6076 83.4581 36.6235 83.3381C35.5733 83.2099 34.9767 83.6709 34.7705 84.6777C34.7596 84.7377 34.7211 84.7895 34.7046 84.8496C33.5087 89.0811 29.8771 92.3387 30.1245 97.2196C30.35 101.689 29.8524 106.188 29.8634 110.676H29.8579ZM59.9141 133.293C57.3134 133.288 54.71 133.334 52.112 133.419C51.367 133.443 51.1141 133.189 51.1278 132.486C51.2131 127.662 52.277 123.098 55.0756 119.092C56.1807 117.51 58.0474 117 59.9141 116.642C60.9917 116.435 60.8543 117.169 60.8598 117.728C60.8872 120.184 60.8708 122.639 60.8708 125.097C60.9312 125.097 60.9917 125.097 61.0522 125.097C61.0522 127.433 61.0247 129.768 61.0659 132.101C61.0824 132.96 60.8158 133.296 59.9141 133.293ZM71.6583 133.157C69.1786 133.146 66.6962 133.129 64.2192 133.244C63.1058 133.296 63.0398 132.799 63.0563 131.945C63.0975 129.793 63.0701 127.64 63.0701 125.488C63.103 122.967 63.103 120.443 62.7979 117.938C62.6467 116.689 63.1085 116.591 64.1477 116.948C67.6446 118.148 69.7284 120.688 70.9601 124.003C71.9305 126.614 72.1614 129.389 72.6123 132.115C72.758 132.99 72.4501 133.159 71.6583 133.157ZM91.6032 99.0176C91.3971 109.775 91.2898 120.536 91.2184 131.293C91.2101 132.589 90.839 132.933 89.5524 132.928C85.2143 132.911 80.8762 132.977 76.5408 133.124C75.224 133.168 74.6851 132.829 74.5312 131.479C74.226 128.797 73.7999 126.123 72.9697 123.537C70.5669 116.05 62.8419 112.49 56.156 115.753C53.3629 117.114 52.101 119.622 51.0756 122.29C49.8577 125.466 49.0193 128.742 49.2529 132.18C49.3272 133.29 48.8846 133.495 47.8811 133.495C42.9849 133.492 38.086 133.509 33.1925 133.626C31.8757 133.659 31.7025 133.124 31.675 132.024C31.4221 121.878 31.9225 111.742 32.1369 101.604C32.1671 100.169 31.4111 98.2591 32.4805 97.4188C33.3767 96.7176 35.2049 97.146 36.6207 97.1432C45.0495 97.1296 53.4811 97.1378 61.9099 97.1378V96.8322C71.0838 96.8322 80.2576 96.8922 89.4287 96.7831C91.2843 96.7613 91.6335 97.2933 91.5977 99.023L91.6032 99.0176ZM109.225 30.2782C111.985 30.2755 114.748 30.2782 117.874 30.2782C116.169 32.2017 117.06 33.3666 119.023 34.5998C115.422 34.9109 112.332 35.1755 109.242 35.4402C108.893 35.4702 108.607 35.3174 108.587 34.96C108.508 33.5576 108.444 32.1498 108.417 30.7448C108.406 30.2018 108.871 30.281 109.228 30.2782H109.225ZM106.179 46.1132C107.65 43.8106 107.666 43.8215 109.189 46.075C109.258 46.176 109.346 46.2715 109.387 46.3861C109.588 46.9263 110.481 47.2782 110.094 47.9194C109.758 48.4732 108.961 48.2277 108.365 48.315C108.062 48.3586 107.749 48.3232 107.24 48.3232C106.688 48.1731 105.621 48.6888 105.231 47.9576C104.901 47.3382 105.797 46.7107 106.176 46.1132H106.179ZM103.463 50.1811C103.713 49.7119 104.202 49.8401 104.631 49.941C106.652 50.4185 108.695 50.4403 110.721 50.0693C112.392 49.7637 112.642 51.1388 113.189 52.0527C113.547 52.6502 112.799 52.6202 112.428 52.7294C110.097 53.4142 107.713 53.747 105.283 53.7306C105.096 53.7306 104.912 53.7416 104.725 53.7306C103.691 53.6624 102.017 54.0171 101.8 53.2668C101.489 52.1892 102.894 51.2452 103.463 50.1811ZM97.5798 59.0235C97.6156 58.9744 97.6568 58.928 97.6898 58.8735C99.0204 56.6035 100.117 54.5464 103.683 55.545C106.82 56.4235 110.179 55.5177 113.354 54.5982C114.451 54.2818 116.859 56.2134 116.73 57.2856C116.642 58.0359 115.895 57.9322 115.419 58.0741C111.012 59.3782 106.523 60.1694 101.907 60.0985C100.67 60.0985 99.4328 60.093 98.1956 60.0985C97.3187 60.1039 97.0218 59.8066 97.5798 59.0181V59.0235ZM95.4025 62.2866C95.7819 61.6754 96.2823 61.7873 96.8568 61.861C103.548 62.7395 110.075 61.8937 116.444 59.8338C117.943 59.3482 118.641 59.7629 119.422 60.9743C121.629 64.3901 121.679 64.3628 117.648 65.1622C111.537 66.3708 105.374 66.6791 99.1661 66.229C97.2554 66.0898 95.3421 66.0052 93.052 65.8716C93.9455 64.5156 94.6988 63.4161 95.4025 62.2838V62.2866ZM118.187 133.359C110.38 133.533 102.581 133.323 94.7757 133.157C93.6293 133.132 93.14 132.87 93.1592 131.591C93.3544 119.976 93.118 108.343 93.7641 96.7558C94.1682 89.5395 94.2617 82.3232 94.5393 75.1095C94.5888 73.8654 95.0479 73.4889 96.1778 73.4971C103.488 73.5572 110.795 73.6254 118.105 73.6254C119.342 73.6254 119.16 74.362 119.16 75.0741C119.166 84.5986 119.163 94.123 119.163 103.647C119.169 103.647 119.174 103.647 119.18 103.647C119.18 110.034 119.149 116.424 119.193 122.811C119.215 125.88 119.331 128.952 119.501 132.019C119.562 133.097 119.221 133.334 118.185 133.359H118.187ZM89.3655 71.44C90.1407 70.2368 90.8472 69.1128 91.5867 68.0133C91.9826 67.4239 92.5737 67.694 93.1153 67.7595C101.654 68.769 110.163 68.8481 118.633 67.0638C120.051 66.7637 121.602 65.5605 122.831 66.289C123.991 66.9765 124.596 68.5944 125.434 69.8085C125.706 70.2041 125.948 70.6188 126.468 71.44H89.3682H89.3655Z" fill="#EEE5DA"/>
</g>
<defs>
<clipPath id="clip0_5_792">
<rect width="129" height="136" fill="white"/>
</clipPath>
</defs>
</svg>
