<svg width="164" height="150" viewBox="0 0 164 150" fill="none" xmlns="http://www.w3.org/2000/svg">
<g clip-path="url(#clip0_5_638)">
<path d="M79.2787 70.0039C79.3028 69.7256 79.3277 69.4473 79.3518 69.169H78.2222C78.1574 74.9702 77.4864 80.7503 76.2168 86.4113C76.5865 86.461 76.9563 86.5116 77.326 86.5613C77.3742 86.1714 77.4224 85.7808 77.4706 85.3908C77.5083 85.0869 77.1845 84.8252 76.9058 84.8252C76.5692 84.8252 76.3787 85.0861 76.341 85.3908C76.2928 85.7808 76.2446 86.1714 76.1964 86.5613C76.1181 87.1949 77.1679 87.3276 77.3057 86.7114C78.5965 80.9555 79.2848 75.0675 79.351 69.1682C79.3593 68.4299 78.2839 68.454 78.2214 69.1682C78.1973 69.4465 78.1725 69.7248 78.1484 70.0031C78.0851 70.7279 79.2147 70.7241 79.278 70.0031L79.2787 70.0039Z" fill="#EEE5DA"/>
<path d="M79.1997 68.9194C80.2969 67.8582 81.8791 66.9804 83.441 66.9751C84.9132 66.9698 86.0278 68.2678 86.5075 69.5552C87.4827 72.1707 86.4329 75.1663 83.9192 76.4319C82.5651 77.1136 80.9701 77.2185 79.5423 76.7169C78.8548 76.4756 78.5596 77.5677 79.2418 77.8075C82.3437 78.8973 86.0797 77.3934 87.4149 74.351C88.0852 72.8238 88.1928 71.0515 87.6702 69.4624C87.1536 67.8929 85.9555 66.3031 84.2641 65.9305C83.1714 65.6899 82.0116 65.9811 80.9995 66.4026C80.0303 66.8069 79.1552 67.3869 78.3999 68.1177C77.8758 68.6245 78.6755 69.4239 79.1989 68.9179L79.1997 68.9194Z" fill="#EEE5DA"/>
<path d="M95.9397 67.9449C94.4524 67.1689 92.7173 67.8476 91.7188 69.0883C90.6599 70.4043 90.1591 72.1835 89.7435 73.7937C89.2901 75.5494 88.9746 77.404 88.9663 79.2216C88.9588 80.8182 89.3677 82.4495 90.7006 83.4473C91.843 84.3025 93.4049 84.5265 94.7702 84.163C96.2967 83.7558 97.5505 82.6803 98.4542 81.4148C99.4611 80.0044 100.009 78.3113 100.456 76.6536C100.93 74.8948 101.365 73.0335 100.974 71.2151C100.63 69.6132 99.5507 68.0068 97.9 67.5633C96.4684 67.1787 94.7589 67.6968 94.0397 69.0574C93.7001 69.7007 94.6746 70.2731 95.0149 69.6283C95.4901 68.7285 96.6017 68.4027 97.5528 68.6418C98.693 68.9284 99.4475 70.0001 99.7713 71.0763C100.225 72.584 99.922 74.1813 99.5454 75.6716C99.187 77.0917 98.7916 78.5322 98.1018 79.8317C96.9684 81.9646 94.5616 84.0016 92.0192 82.9133C90.8271 82.4027 90.2412 81.2782 90.1283 80.0255C89.9942 78.5466 90.2217 77.0043 90.5041 75.5555C90.8226 73.9181 91.2503 72.1865 92.0207 70.697C92.6134 69.5514 93.9637 68.19 95.3704 68.9231C96.0143 69.2587 96.5859 68.2828 95.9405 67.9464L95.9397 67.9449Z" fill="#EEE5DA"/>
<path d="M103.805 67.0671C103.567 72.7687 102.766 78.4327 101.417 83.9775C101.272 84.5726 102.171 85.019 102.449 84.4134C102.533 84.2317 102.616 84.0499 102.699 83.8681C103.001 83.2113 102.027 82.6358 101.724 83.2972C101.64 83.479 101.557 83.6607 101.474 83.8425C101.818 83.9881 102.162 84.1329 102.506 84.2784C103.879 78.6393 104.693 72.8668 104.936 67.0671C104.966 66.3393 103.836 66.3408 103.806 67.0671H103.805Z" fill="#EEE5DA"/>
<path d="M105.817 68.049C106.12 67.012 107.055 66.1756 108.155 66.1145C109.277 66.0527 110.351 66.6742 110.788 67.7247C111.73 69.9933 110.062 72.231 108.286 73.4679C107.689 73.8827 107.059 74.2455 106.419 74.5886C105.954 74.8383 105.22 75.3556 104.706 74.9906C104.611 75.3421 104.516 75.6935 104.421 76.045C105.876 75.8888 107.347 76.3745 108.382 77.4251C108.947 77.9991 109.321 78.7216 109.658 79.4464C110.044 80.2737 110.409 81.1116 110.783 81.9442C110.909 82.2248 111.311 82.2866 111.556 82.1471C111.844 81.9827 111.883 81.6501 111.759 81.3733C111.358 80.4811 110.972 79.5798 110.55 78.6974C110.158 77.8791 109.686 77.0865 109.015 76.465C107.79 75.3285 106.085 74.7349 104.421 74.9137C103.857 74.974 103.662 75.6302 104.135 75.968C104.818 76.4537 105.666 76.2184 106.361 75.8919C107.045 75.5698 107.713 75.1844 108.352 74.7794C109.635 73.9664 110.89 72.9204 111.568 71.5281C112.176 70.2807 112.389 68.7437 111.876 67.4253C111.319 65.9924 109.984 65.0315 108.441 64.981C106.727 64.9252 105.202 66.1236 104.727 67.7496C104.523 68.4495 105.613 68.7489 105.816 68.0505L105.817 68.049Z" fill="#EEE5DA"/>
<path d="M114.413 66.0429L114.249 66.0301V67.1614C116.778 66.8891 119.289 66.4765 121.769 65.9154C122.478 65.7548 122.178 64.6642 121.469 64.8249C119.087 65.3641 116.677 65.7699 114.249 66.0308C113.532 66.1078 113.514 67.1055 114.249 67.1621L114.413 67.1749C115.138 67.2307 115.135 66.0987 114.413 66.0436V66.0429Z" fill="#EEE5DA"/>
<path d="M117.533 66.8325C117.422 71.6608 117.313 76.4891 117.202 81.3175C117.185 82.046 118.315 82.0453 118.331 81.3175C118.442 76.4891 118.552 71.6608 118.663 66.8325C118.679 66.104 117.55 66.1047 117.533 66.8325Z" fill="#EEE5DA"/>
<path d="M124.224 65.4689C123.839 67.9042 123.66 70.3674 123.722 72.8328C123.753 74.0516 123.84 75.2681 123.984 76.4786C124.099 77.4394 124.245 78.3987 124.623 79.2955C124.986 80.1598 125.589 80.9645 126.457 81.3687C127.536 81.8703 128.588 81.6289 129.433 80.822C130.926 79.3958 131.797 77.3851 132.178 75.3812C132.689 72.6918 132.376 69.9586 132.05 67.2677C132.013 66.9645 131.817 66.702 131.485 66.702C131.208 66.702 130.884 66.9622 130.921 67.2677C131.397 71.2068 131.922 75.7033 129.427 79.1182C128.968 79.7465 128.292 80.6364 127.416 80.5029C126.575 80.3747 125.988 79.6258 125.67 78.892C125.352 78.1582 125.218 77.3399 125.122 76.551C124.987 75.4378 124.901 74.3186 124.862 73.1979C124.776 70.7143 124.925 68.2232 125.313 65.7691C125.361 65.4651 125.235 65.1642 124.919 65.073C124.651 64.996 124.272 65.1665 124.224 65.4682L124.224 65.4689Z" fill="#EEE5DA"/>
<path d="M142.371 64.8015C142.278 66.8906 142.184 68.9797 142.091 71.0688L143.2 70.9187C142.861 69.7045 142.208 68.5845 141.302 67.7074C140.386 66.8205 139.047 65.9049 137.739 66.4675C136.572 66.9698 135.786 68.3115 135.244 69.4006C134.633 70.6276 134.227 71.949 133.961 73.2907C133.421 76.0246 133.537 79.0323 135.428 81.2421C136.231 82.1795 137.471 83.0227 138.75 82.9888C140.136 82.9518 141.249 81.7119 142.084 80.7262C142.592 80.1266 143.054 79.4841 143.449 78.8038C143.842 78.1258 144.21 77.3588 144.084 76.5533C143.872 75.192 142.459 74.6889 141.28 74.4514V75.5419C141.943 75.2968 142.626 75.1264 143.33 75.06C144.048 74.9921 144.055 73.8601 143.33 73.9287C142.524 74.0049 141.74 74.17 140.979 74.4514C140.504 74.6271 140.384 75.4228 140.979 75.5419C141.637 75.6747 142.784 75.8715 142.96 76.6672C143.077 77.1936 142.757 77.7359 142.505 78.1756C142.217 78.6801 141.894 79.1681 141.533 79.6236C141.182 80.0663 140.799 80.4841 140.39 80.8733C140.006 81.2406 139.574 81.678 139.042 81.8145C138.057 82.0664 137.008 81.2896 136.377 80.6101C134.817 78.9297 134.594 76.4711 134.925 74.2975C135.257 72.1262 135.953 69.7015 137.478 68.0506C137.828 67.672 138.264 67.328 138.81 67.4366C139.375 67.549 139.914 67.9714 140.332 68.3485C141.189 69.12 141.8 70.1095 142.11 71.2189C142.285 71.8456 143.192 71.7001 143.22 71.0688C143.313 68.9797 143.406 66.8906 143.5 64.8015C143.532 64.0737 142.403 64.0752 142.37 64.8015H142.371Z" fill="#EEE5DA"/>
<path d="M147.688 81.776C147.574 76.8383 147.879 71.8856 148.639 67.0045C148.738 66.3694 148.858 65.2721 149.546 64.9749C150.307 64.6454 151.168 65.4818 151.53 66.064C151.978 66.7842 152.189 67.6282 152.327 68.457C152.514 69.5702 152.583 70.7113 152.644 71.8373C152.719 73.2137 152.739 74.5924 152.734 75.971C152.731 76.6611 152.722 77.3504 152.71 78.0405C152.704 78.3852 152.697 78.7298 152.69 79.0753C152.686 79.2472 152.681 79.4199 152.678 79.5926C152.678 79.6432 152.658 79.7299 152.678 79.7782C152.743 79.935 152.282 79.6945 152.888 79.7307C153.021 79.7857 153.154 79.8408 153.287 79.8966C153.315 79.9501 153.343 80.0029 153.372 80.0565C153.115 79.383 152.022 79.6756 152.283 80.3574C152.513 80.9592 153.15 80.9962 153.548 80.5286C153.959 80.0452 153.818 79.2231 153.829 78.6326C153.858 77.2041 153.877 75.7757 153.857 74.3465C153.837 72.8954 153.775 71.4444 153.641 69.9986C153.537 68.8847 153.425 67.7466 153.055 66.6832C152.724 65.7314 152.199 64.8399 151.345 64.272C150.384 63.6332 149.096 63.5812 148.335 64.5428C147.634 65.4305 147.551 66.653 147.398 67.7307C147.195 69.1509 147.026 70.5748 146.893 72.0032C146.593 75.2515 146.484 78.5157 146.559 81.776C146.575 82.5031 147.705 82.5053 147.688 81.776H147.688Z" fill="#EEE5DA"/>
<path d="M148.013 73.7507C149.942 73.1851 151.902 72.7325 153.884 72.3947C154.599 72.2725 154.296 71.1827 153.584 71.3041C151.601 71.642 149.642 72.0945 147.713 72.6601C147.017 72.8645 147.313 73.9566 148.013 73.7507Z" fill="#EEE5DA"/>
<path d="M157.91 65.6069C157.6 68.5257 157.291 71.4444 156.981 74.3631C156.833 75.7621 156.631 77.1672 156.539 78.5715C156.504 79.1002 156.58 79.6982 156.981 80.0851C157.445 80.5346 158.132 80.5165 158.735 80.5376C160.36 80.5957 161.98 80.4901 163.588 80.2578C163.889 80.2141 164.057 79.8295 163.983 79.5617C163.892 79.2374 163.593 79.1228 163.288 79.1665C162.021 79.3498 160.739 79.432 159.46 79.4222C159.145 79.4199 158.831 79.4116 158.517 79.3981C158.318 79.389 157.943 79.4343 157.78 79.2857C157.509 79.0391 157.695 78.2984 157.726 77.9998C158.004 75.3782 158.282 72.7559 158.56 70.1343C158.719 68.6252 158.88 67.1168 159.04 65.6077C159.072 65.3038 158.757 65.0421 158.475 65.0421C158.143 65.0421 157.942 65.3022 157.91 65.6077V65.6069Z" fill="#EEE5DA"/>
<path d="M73.9342 16.9345C73.7211 17.2898 73.7986 17.7981 73.7941 18.1986C73.7888 18.7197 73.7828 19.2408 73.7775 19.7612C73.7723 20.2575 73.7655 20.7538 73.7625 21.25C73.7595 21.7146 73.6638 22.2893 73.8122 22.7327C73.8935 22.9763 74.2256 22.9771 74.3077 22.7327C74.45 22.3066 74.3604 21.7712 74.3574 21.3247C74.3544 20.8035 74.3476 20.2824 74.3416 19.762C74.3363 19.2657 74.331 18.7695 74.3258 18.2732C74.3212 17.8546 74.4078 17.3048 74.1849 16.9345C74.1285 16.8403 73.9899 16.8403 73.9334 16.9345H73.9342Z" fill="#323232"/>
<path d="M69.3338 23.3723C69.458 24.392 69.5891 25.4086 69.7344 26.4253C69.7736 26.7028 70.2028 26.5874 70.1576 26.3084C70.135 26.1666 70.1042 26.0414 70.059 25.9049C70.0228 25.7955 69.8767 25.7978 69.8391 25.9049C69.7916 26.0406 69.7593 26.1666 69.7344 26.3084H70.1576C69.9965 25.3136 69.8218 24.3218 69.641 23.3301C69.6094 23.1589 69.3127 23.1958 69.3345 23.3715L69.3338 23.3723Z" fill="#323232"/>
<path d="M70.1034 22.1747C70.2901 22.5774 70.4498 22.993 70.5522 23.4251C70.6554 23.8603 70.6644 24.2909 70.7104 24.7321C70.7314 24.9373 71.0274 25.0738 71.1396 24.8483C71.1675 24.7864 71.1998 24.7269 71.2367 24.6695C71.3233 24.5225 71.1388 24.3045 70.9867 24.4192C70.9355 24.4614 70.8813 24.4991 70.8248 24.533L71.1712 24.7321C71.2337 23.8098 70.8715 22.7795 70.3873 22.008C70.2728 21.8263 70.016 21.9839 70.1041 22.1739L70.1034 22.1747Z" fill="#323232"/>
<path d="M71.3663 20.5863C71.3776 21.072 71.4838 21.5592 71.5734 22.0359C71.6193 22.281 71.666 22.5261 71.7119 22.7712C71.7579 23.0141 71.7677 23.2562 71.9183 23.4553C72.0011 23.5646 72.1879 23.5692 72.2278 23.4145C72.3347 22.999 72.1133 22.4763 72.0237 22.0661C71.9138 21.56 71.8211 21.0328 71.6306 20.5509C71.5786 20.4181 71.3618 20.4227 71.3655 20.5871L71.3663 20.5863Z" fill="#323232"/>
<path d="M72.2661 19.7198C72.3618 20.3375 72.4755 20.9514 72.5817 21.5675C72.6306 21.8511 72.6788 22.1354 72.7248 22.4198C72.7707 22.7056 72.7624 23.0616 72.9401 23.2946C73.023 23.4032 73.1894 23.398 73.2354 23.2562C73.3204 22.9899 73.2143 22.7169 73.1593 22.4484C73.0968 22.1437 73.0328 21.8391 72.9665 21.5351C72.8294 20.9031 72.6833 20.2749 72.5056 19.6527C72.4604 19.495 72.2413 19.5637 72.2654 19.719L72.2661 19.7198Z" fill="#323232"/>
<path d="M72.9447 18.8057C73.151 19.3955 73.3852 19.9717 73.5306 20.5811C73.6097 20.9122 73.6526 21.244 73.6963 21.5811C73.7219 21.7795 73.7309 21.9017 73.9079 21.9997C73.9613 22.0291 74.0314 22.0035 74.048 21.9424C74.1059 21.7297 74.0254 21.5027 73.9945 21.287C73.9501 20.9763 73.8875 20.6686 73.8047 20.3661C73.6481 19.7952 73.4161 19.2318 73.0599 18.7567C73.0208 18.7039 72.9176 18.7318 72.944 18.8057H72.9447Z" fill="#323232"/>
<path d="M18.0315 16.5598C18.1663 16.0296 18.2507 15.4519 18.2296 14.9051C18.2002 14.1396 17.8922 13.6132 17.4735 12.9977C16.9998 12.3009 16.4915 11.5225 16.5856 10.6401C16.6926 9.64311 17.2943 8.62948 17.786 7.778C18.161 7.12939 18.5602 6.4725 19.0429 5.89705C19.7124 5.09761 20.6138 4.71674 21.3608 4.03194C21.9806 3.46328 22.376 3.04923 23.2623 3.30942C23.968 3.51683 24.453 3.10806 25.0494 2.7732C26.0133 2.23244 26.9961 2.27468 28.0255 1.99336C28.7379 1.79878 29.4541 1.45638 30.0498 1.01669C29.8299 0.988029 29.61 0.960124 29.3901 0.931464C29.6883 1.28443 29.9858 1.63663 30.284 1.98959C30.3954 2.12158 30.6507 2.19699 30.8134 2.12987C30.9866 2.05898 31.2057 2.04389 31.3677 1.96244C31.4166 1.93755 31.504 1.97903 31.5431 1.95264L31.4655 1.8478C31.3978 1.70149 31.3631 1.70753 31.3624 1.86591C31.2313 1.99261 31.1267 2.38102 31.0235 2.55071C30.6274 3.20384 30.0302 3.70537 29.6296 4.33965C29.2703 4.90831 29.0376 5.78467 29.0821 6.44912C29.1393 7.31417 30.0468 8.32478 30.6726 8.86705C31.0355 9.18154 31.3872 9.33012 31.8579 9.39121C32.178 9.43269 31.9897 9.41006 32.3097 9.57523C33.108 9.98626 34.0215 8.9666 34.5592 8.52163C34.9779 8.17545 35.3853 7.8059 35.8273 7.48839C35.9282 7.41599 36.1948 7.30738 36.2603 7.21688C36.2754 7.19576 36.3643 7.18671 36.365 7.18596C36.4343 7.22668 36.3718 7.1837 36.176 7.05548L36.1978 7.16032C36.1301 7.60981 36.8191 7.98087 37.0963 8.16188C37.3531 8.33006 37.5684 8.56914 37.8606 8.67473C38.7749 9.00582 39.906 8.15057 40.6794 7.79233C41.6026 7.36395 42.3271 7.15202 43.3136 7.32699C43.5787 7.37375 43.4138 7.21688 43.5659 7.53515C43.6947 7.80515 43.7233 8.16113 43.7813 8.45375C43.8641 8.87308 43.904 9.40403 44.2045 9.73738C44.4372 9.99607 44.7685 10.0639 45.0954 9.95836C45.4169 9.85428 45.8432 9.67327 46.1399 9.50132C46.4599 9.31654 46.5699 8.97037 46.6339 8.62495C46.655 8.51031 46.768 7.50573 46.6309 7.44087C46.5518 7.54797 46.4735 7.65431 46.3944 7.7614C46.4517 7.78101 46.5096 7.80062 46.5669 7.82099C46.658 7.89188 46.9208 7.94316 47.021 8.05252C47.0037 8.03367 46.8832 7.83607 47.018 8.16188C47.1641 8.51559 47.4133 8.59705 47.7725 8.57367C48.3411 8.53671 48.9255 8.37154 49.467 8.20411C49.8457 8.08721 50.2735 7.85945 50.6771 7.90772C51.1742 7.9673 51.5417 8.36928 52.0748 8.27425C52.5282 8.1928 52.8543 7.76367 53.0922 7.39788C53.389 6.9416 53.5539 6.40763 53.5975 5.86764C53.6269 5.50562 53.5388 4.99655 53.7143 4.66621C53.944 4.23255 54.627 4.58099 55.0209 4.64358C55.722 4.75445 56.4291 4.81101 57.1385 4.83138C57.6084 4.84495 58.0806 4.8178 58.5497 4.83515C59.0701 4.85476 59.5664 5.04481 60.0845 5.0961C60.8549 5.17152 61.6343 4.67526 62.3422 4.40903C62.1374 4.32532 61.9325 4.24236 61.7277 4.15864C62.465 5.17076 63.4319 5.27937 64.6022 5.19716C65.1504 5.1587 65.713 5.12853 66.2537 5.02521C66.3862 4.99956 66.5082 4.95356 66.637 4.9249C66.948 4.85551 66.6709 4.88643 66.6912 4.94149C66.768 5.15417 66.7093 5.49431 66.7349 5.73188C66.7763 6.10747 66.8373 6.48381 66.9766 6.83601C67.0918 7.12713 67.3336 7.3549 67.3388 7.66487C67.3486 8.19582 67.0677 8.83462 66.9374 9.34445C66.698 10.2864 66.3779 11.4087 66.3681 12.3899C66.3538 13.7361 67.4992 13.7896 68.5219 13.4623C69.1319 13.267 69.7027 12.9842 70.2992 12.7556C70.3737 12.727 70.7623 12.6629 70.58 12.6229C70.7999 12.6704 71.0567 12.9495 71.2239 13.0875C71.5779 13.3801 71.9167 13.6901 72.2541 14.0016C72.2971 14.0408 72.3422 14.0808 72.3814 14.123C72.273 14.0061 72.5237 14.3191 72.5651 14.3794C72.9628 14.9518 73.8009 16.0696 73.2964 16.734C72.1909 18.1903 71.0274 19.6112 69.9271 21.0774C69.3051 21.9055 68.6853 22.7366 68.0279 23.5375C67.8238 23.7864 67.619 24.0383 67.3923 24.2676C67.3411 24.3196 67.1747 24.4727 67.186 24.4652C67.2748 24.4064 67.0052 24.5444 67.253 24.435C67.0978 24.5037 66.8975 24.521 66.7326 24.5602C65.9321 24.7488 65.2152 24.8129 64.5577 25.3091C63.7956 25.8838 62.7481 26.592 62.4213 27.5363C62.1344 28.3666 62.5101 30.2121 61.3406 30.2988C60.5717 30.3562 58.9383 29.9632 58.8909 31.1767C58.8472 32.2794 59.5114 33.6067 60.1673 34.4439C60.6945 35.1166 60.632 36.2969 60.6621 37.1318C60.7171 38.6771 60.6463 40.2255 60.6041 41.7708C60.586 42.436 60.5763 43.102 60.6764 43.7626C60.7495 44.2468 61.0326 44.5643 61.1531 45.0048C61.3911 45.8789 60.5695 46.4083 60.3375 47.1429C59.9738 48.2923 60.9581 48.9794 61.2254 50.0126C61.3354 50.438 61.4656 51.1137 61.1456 51.4833C60.9581 51.6997 60.6056 51.7819 60.3594 51.9162C60.0054 52.1093 59.6696 52.3348 59.3435 52.5716C58.7794 52.9811 57.7824 53.549 57.518 54.2368C57.2718 54.8756 57.0459 55.7113 56.9608 56.3908C56.8787 57.0432 57.8735 57.8773 58.2493 58.3419C58.3216 58.4309 58.3901 58.5432 58.4744 58.6209C58.2304 58.3969 58.3479 58.3758 58.4421 58.6292C58.6115 59.0832 58.8178 59.5275 59.0054 59.9747C59.1289 60.2703 59.293 60.5705 59.3841 60.879C59.4052 60.9499 59.3759 60.6716 59.3713 60.8609C59.3683 61.0057 59.3465 61.152 59.3329 61.296C59.2388 62.2938 59.1273 63.3014 58.8969 64.2774C58.8306 64.5564 58.7644 64.929 58.6055 65.1462C58.2952 65.5708 57.9767 65.9094 57.7545 66.4109C57.4209 67.1659 57.0587 67.9616 57.3162 68.7738C57.3825 68.9842 57.5971 69.4511 57.448 69.6577C57.2627 69.9134 56.2137 69.7196 55.9381 69.7045C54.7234 69.6381 53.5109 69.531 52.3 69.4172C50.8978 69.2844 49.5588 69.7332 48.186 70.0258C47.9646 70.0733 47.7402 70.1404 47.5158 70.1683C47.8192 70.1299 47.3568 70.1502 47.2959 70.1502H46.4682C46.3666 70.1502 45.9848 70.1283 46.2265 70.1623C46.0909 70.1434 45.9561 70.1012 45.8198 70.0793C45.4486 70.0198 44.9945 69.967 44.6616 70.1894C43.5689 70.9187 45.243 72.2906 45.8311 72.6722C46.5706 73.1511 47.2733 73.6761 48.009 74.1663C48.6348 74.5834 49.2651 74.9929 49.8985 75.3986L49.6289 74.928C49.5498 76.057 49.5061 77.2019 49.5769 78.3317C49.6093 78.8506 49.6191 79.5256 49.918 79.9773C50.2893 80.5399 51.2065 80.8205 51.7676 81.1765C51.684 80.9713 51.6012 80.7662 51.5176 80.5611C51.3105 81.1222 51.1968 81.7949 51.3142 82.3862C51.5183 83.4142 52.4213 83.5665 53.1593 84.1163C53.5885 84.4361 53.6616 84.9504 53.9123 85.3947C54.1405 85.7989 54.4606 86.17 54.8431 86.4354C55.4893 86.8849 56.0563 86.5953 56.7582 86.4256C57.1453 86.3321 57.2055 86.2499 57.3102 86.6504C57.4826 87.3095 57.2929 88.0509 57.1588 88.698C57.0466 89.2418 56.951 89.8331 56.7394 90.3497C56.6641 90.5337 56.4698 90.7026 56.3779 90.9779C56.1685 91.6062 56.1768 92.3566 56.1437 93.012C56.1414 93.0617 56.1038 93.2397 56.1316 93.2737C56.1535 93.3001 56.2175 93.0693 56.1836 93.0723C56.1294 93.0768 55.9795 93.3581 55.9456 93.4049C55.1632 94.4992 54.38 95.5936 53.5975 96.6879C53.1562 97.3048 52.3949 98.0341 52.2194 98.7906C52.0605 99.4761 51.9694 100.193 51.879 100.891C51.861 101.032 51.8655 101.206 51.8286 101.343C51.7796 101.526 51.8595 101.331 51.7736 101.482C51.5899 101.805 51.2954 102.062 51.1087 102.389C50.5627 103.342 50.824 104.163 51.1087 105.153C51.2126 105.513 51.2954 105.901 51.4746 106.234C51.6561 106.574 51.9099 106.713 52.1961 106.942C52.7383 107.376 52.8904 108.409 53.1081 109.052C53.4093 109.941 53.7263 110.84 54.4086 111.509C55.1142 112.203 56.158 113.209 57.213 113.261C58.073 113.303 58.7388 112.346 59.2546 111.769C58.9451 111.64 58.6348 111.511 58.3253 111.383C58.2922 112.226 58.2591 113.162 57.9518 113.957C57.7364 114.514 57.6031 115.008 57.5323 115.607C57.5173 115.736 57.4691 115.899 57.4819 116.029C57.5037 116.241 57.317 116.186 57.5828 116.142C57.9473 116.082 57.3637 116.077 57.274 116.079C56.3975 116.097 55.5209 116.039 54.6451 116.05C54.0148 116.058 53.5614 116.697 53.1209 117.101C53.2489 117.047 53.3777 116.994 53.5057 116.941H52.3678C52.1456 116.941 51.8866 117.109 51.8429 117.341C51.6855 118.182 51.5364 119.024 51.3707 119.862C51.3331 120.052 51.4588 119.696 51.3564 119.921C51.2826 120.085 51.1953 120.244 51.1147 120.406C50.8692 120.898 50.5966 121.385 50.3744 121.888C50.3089 122.037 50.2479 122.125 50.33 122.013C50.2343 122.143 50.1048 122.259 49.9964 122.379C49.6424 122.767 49.2892 123.155 48.9353 123.543C48.3983 124.131 48.3133 124.837 48.1182 125.603C47.9992 126.068 47.9299 126.57 47.7801 127.025C47.6347 127.466 47.3011 127.893 47.0458 128.285C46.6211 128.937 45.6798 129.865 45.8552 130.703C46.0714 131.734 46.7107 132.63 47.0142 133.59C47.3139 134.538 47.6408 135.508 47.8524 136.48C48.2138 138.137 48.3486 139.876 48.5919 141.555C48.7184 141.332 48.8457 141.108 48.9722 140.885C47.951 141.064 46.9148 141.204 45.9019 141.423C45.063 141.604 44.1699 141.986 43.3889 142.341C42.9597 142.537 42.5801 142.865 42.1945 143.135C42.01 143.264 41.8218 143.434 41.6215 143.537C41.8594 143.414 41.4339 143.555 41.3338 143.576C40.6869 143.712 40.04 143.849 39.3931 143.985C39.171 144.032 38.9488 144.088 38.7252 144.126C38.5783 144.151 38.7959 144.121 38.7771 144.122C38.692 144.126 38.6054 144.124 38.5203 144.124C37.8162 144.12 37.1008 144.151 36.4019 144.235C36.1203 144.269 35.7829 144.291 35.5306 144.439C35.203 144.63 35.1699 144.992 34.9191 145.258C35.0954 145.212 35.2723 145.165 35.4485 145.118C34.5976 144.826 33.7466 144.535 32.8956 144.243C32.3444 144.055 31.8993 144.028 31.3149 144.003C30.1906 143.955 29.067 143.908 27.9427 143.86C27.5375 143.843 27.1324 143.82 26.7272 143.809C26.6406 143.807 26.5518 143.806 26.4659 143.798C26.7333 143.822 26.4252 143.783 26.3228 143.76C25.3973 143.553 24.4597 143.392 23.5372 143.172C22.7043 142.974 21.8887 142.68 21.0408 142.555C20.2327 142.436 19.1107 142.11 18.384 142.558C17.9705 142.813 17.533 143.071 17.1459 143.365C16.9147 143.539 17.1685 143.39 17.0442 143.429C16.8371 143.493 16.6165 143.53 16.4056 143.58C15.8198 143.718 15.2309 143.847 14.6465 143.994C14.523 144.025 14.2413 144.067 14.474 144.044C14.3121 144.06 14.1464 144.059 13.9838 144.067C12.992 144.113 12.0009 144.159 11.0091 144.206C11.1658 144.479 11.3224 144.752 11.479 145.026C12.3353 143.793 13.2608 142.575 14.0222 141.28C14.3897 140.655 14.3445 139.886 14.5117 139.19C14.596 138.839 14.7489 138.68 14.9033 138.383C15.0953 138.012 15.0757 137.517 15.0848 137.111C15.096 136.606 15.0802 136.1 15.0961 135.595C15.1021 135.398 15.0961 135.186 15.1382 134.993C15.1488 134.944 15.157 134.865 15.1804 134.816C15.0855 134.939 15.1232 134.912 15.2941 134.734C15.4312 134.624 15.5705 134.515 15.7121 134.409C16.4621 133.82 16.4568 133.417 16.3356 132.562C16.2008 131.614 16.0479 130.667 15.9591 129.712C15.9011 129.088 15.6857 127.897 16.127 127.503C16.5103 127.161 17.0721 127.089 17.417 126.685C17.7875 126.252 17.7408 125.72 17.542 125.217C17.1979 124.347 15.8574 123.608 16.1104 122.567C16.2226 122.106 16.3145 121.824 16.1406 121.341C15.9636 120.849 15.6661 120.419 15.4342 119.955C15.0629 119.214 14.5267 118.571 14.1781 117.814C14.1547 117.764 14.0485 118.062 14.2127 117.771C14.2692 117.67 14.3121 117.559 14.355 117.452C14.4725 117.164 14.5674 116.866 14.6608 116.569C14.9402 115.681 15.1842 114.782 15.4251 113.883C15.7678 112.607 16.0223 111.286 16.423 110.027C16.6572 109.29 17.097 108.558 17.2303 107.798C17.2852 107.484 17.1519 106.818 17.3922 106.59C17.5292 106.458 17.3146 106.535 17.5962 106.59C17.7627 106.622 17.9246 106.703 18.085 106.753C18.3681 106.842 18.6746 106.928 18.9729 106.869C20.2719 106.615 19.3705 105.128 18.9864 104.486C18.704 104.013 18.5926 103.744 18.4532 103.249C18.3245 102.791 18.1076 102.344 17.8967 101.917C17.6934 101.506 16.993 101.596 16.9019 102.047C16.7882 102.607 16.6677 103.585 16.2558 104.001C16.1232 104.134 16.3055 104.086 16.0946 104.034C15.8574 103.975 15.6006 103.774 15.4003 103.644C15.1104 103.454 14.8287 103.249 14.5614 103.028C14.3769 102.875 14.1201 102.807 13.9017 102.942C13.3572 103.28 12.821 103.641 12.2645 103.958C12.1094 104.046 12.4415 103.907 12.2359 103.97C12.1267 104.003 12.0152 104.029 11.9053 104.059C11.5129 104.164 11.1213 104.269 10.729 104.375C9.58432 104.682 8.44041 104.973 7.28746 105.248C7.51715 105.423 7.74683 105.599 7.97652 105.774C7.95543 105.218 7.94263 104.661 7.94037 104.105C7.93811 103.458 8.06011 102.8 7.83871 102.179C7.43732 101.053 6.6353 100.183 5.93796 99.2438C5.58251 98.7657 5.25718 98.2604 4.88968 97.7928C4.64569 97.4821 4.44989 97.427 4.07637 97.3961C3.08307 97.3146 2.08826 97.2467 1.09421 97.1721C1.26892 97.3056 1.44438 97.4391 1.6191 97.5726C1.47601 96.8825 1.33293 96.1924 1.18909 95.5023C1.15897 95.3552 1.14617 95.1667 1.09044 95.0264C0.978232 94.7421 1.21545 95.1644 1.0686 95.1524C1.09044 95.1539 1.26289 94.4645 1.2757 94.4193C1.61985 93.2005 1.95722 91.9787 2.31192 90.763C2.76602 89.2078 3.27359 87.6437 3.79999 86.1398C4.11929 85.2272 4.18481 84.1789 4.27668 83.2218C4.34672 82.4888 4.15996 81.8801 3.95437 81.1742C3.75029 80.4751 3.61473 80.0354 3.13051 79.5052C2.79163 79.1341 2.455 78.76 2.12591 78.3792C1.95572 78.1823 1.78176 77.9863 1.62361 77.7796C1.59876 77.7472 1.56262 77.6823 1.53023 77.6552C1.2885 77.4591 1.64847 77.3656 1.46396 77.8264C1.33745 77.9531 1.21018 78.0805 1.08366 78.2072C0.610734 78.2774 0.771138 78.1167 0.967689 78.3219C1.04224 78.3995 1.15445 78.4689 1.23729 78.5353C1.50388 78.7487 1.7667 78.9682 2.03554 79.1779C2.39777 79.4607 2.84585 79.8883 3.33911 79.8664C3.8768 79.8423 4.46495 79.4079 4.90926 79.1439C5.30538 78.9094 5.69547 78.6658 6.08104 78.4139H5.5313C6.01477 78.7231 6.8567 79.3807 7.4682 79.1869C8.13542 78.975 8.32444 77.889 8.49313 77.3135C8.56542 77.0669 8.41782 77.4402 8.524 77.2192C8.58575 77.091 8.65579 76.9673 8.72131 76.8414C8.9171 76.4673 9.11742 76.0947 9.3087 75.7177C9.46835 75.4024 9.61445 75.0804 9.76355 74.7598C10.5671 73.032 11.3766 71.2943 12.0484 69.5099C12.8142 67.4759 13.187 65.3008 13.8384 63.2283C14.3829 61.4989 14.9108 59.7696 15.2022 57.9731C15.2715 57.5462 15.337 57.0997 15.2843 56.6676C15.2595 56.4639 15.2211 56.2603 15.1081 56.0831C14.9944 55.9036 14.7805 55.8048 14.6871 55.6132C14.4386 55.1026 14.907 54.0747 15.0569 53.5581C15.566 51.8031 16.0743 50.045 16.6466 48.3104C17.0932 46.9566 18.2401 45.6496 18.2672 44.099C18.2687 43.9904 18.2966 43.8509 18.2778 43.746C18.2823 43.7083 18.2876 43.6699 18.2928 43.6322C18.3373 43.5032 18.2989 43.5175 18.1791 43.6744C18.3614 43.786 18.6317 43.9067 18.8441 43.9512C19.4774 44.0839 19.8803 43.6601 20.2538 43.2076C20.6258 42.7566 21.0822 42.2746 21.1914 41.6796C21.2645 41.2814 21.1507 40.8711 21.0559 40.4857C20.9354 39.9992 20.7915 39.5181 20.6439 39.0392C20.6319 38.9999 20.5234 38.6651 20.5603 38.8106C20.5965 38.9509 20.534 38.6085 20.5279 38.564L20.244 36.3595C20.2041 36.0518 20.0257 35.8354 19.6996 35.8142C19.8946 35.8271 19.8268 35.901 19.924 35.7788C19.9692 35.7215 19.9669 35.5171 19.979 35.4454C20.0249 35.1671 20.0716 34.8896 20.1168 34.6113C20.2395 33.8518 20.3532 33.0901 20.4504 32.3269C20.6484 30.7672 20.8134 29.0884 20.531 27.5287C20.4526 27.0966 20.2877 26.816 20.0324 26.4736C19.6634 25.9773 19.3712 25.374 19.1566 24.797C18.9043 24.1175 19.0617 23.4614 18.8524 22.7924C18.6829 22.2501 18.3501 21.7456 17.9728 21.3263C18.0262 21.4545 18.079 21.5834 18.1324 21.7116C18.2326 20.7056 18.3749 19.6949 18.4344 18.6858C18.4811 17.8939 18.1867 17.0523 18.0315 16.277C17.8945 15.5891 16.8447 15.8803 16.9817 16.5666C17.0924 17.1209 17.2031 17.6752 17.3138 18.2296C17.3349 18.3344 17.3688 18.4468 17.3786 18.5539C17.3884 18.6609 17.3718 18.3593 17.3613 18.5282C17.3447 18.7929 17.3086 19.0584 17.2822 19.3224C17.2129 20.0147 17.1437 20.7063 17.0751 21.3987C17.0164 21.9884 17.359 22.2064 17.6301 22.7042C17.8696 23.1439 17.8282 23.4923 17.8463 23.9652C17.8628 24.4049 18.0104 24.8423 18.1701 25.248C18.4593 25.9811 18.8531 26.6018 19.2733 27.258C19.6348 27.8221 19.5527 28.6713 19.5603 29.3207C19.5731 30.4052 19.4767 31.4761 19.3328 32.5509C19.2056 33.5064 19.0384 34.4544 18.8885 35.4062C18.7838 36.0707 18.8765 36.8505 19.7011 36.904C19.5196 36.7223 19.3381 36.5405 19.1566 36.3588C19.2937 37.4252 19.3524 38.5218 19.6634 39.5528C19.8502 40.1704 20.3329 41.1403 20.0046 41.755C19.8555 42.034 19.6024 42.2988 19.4006 42.5409C19.1325 42.8621 19.0964 42.8802 18.7507 42.7309C18.3651 42.5642 17.9306 42.4722 17.5804 42.7588C16.9855 43.2445 17.3259 44.0854 17.1196 44.7061C16.8477 45.5237 16.2957 46.2756 15.9455 47.0645C15.322 48.471 14.9628 50.0337 14.526 51.5044C14.2963 52.2789 14.0689 53.0535 13.846 53.8296C13.6539 54.4978 13.3918 55.2195 13.6336 55.9089C13.7511 56.2437 14.0937 56.4587 14.2014 56.7483C14.343 57.1306 14.1457 57.7989 14.0591 58.1797C13.8979 58.8902 13.7586 59.6059 13.5959 60.3163C13.3715 61.2975 13.007 62.2184 12.7148 63.1777C12.3669 64.3218 12.068 65.481 11.7607 66.6372C11.2885 68.4126 10.6861 70.0658 9.94279 71.7468C9.37874 73.0229 8.8177 74.3081 8.17081 75.5449C7.8613 76.137 7.54878 76.6868 7.35674 77.3248C7.29725 77.5224 7.237 77.7245 7.15642 77.9146C7.12329 77.993 7.02991 78.1145 7.02087 78.1944C7.04346 77.9885 7.36503 78.2879 7.08262 78.0451C6.81227 77.8135 6.38679 77.668 6.08029 77.4719C5.92365 77.3716 5.68718 77.3701 5.53055 77.4719C5.18715 77.6959 4.83923 77.9138 4.48754 78.125C4.23602 78.2759 3.98223 78.4259 3.72318 78.5625C3.61323 78.6205 3.49725 78.6695 3.38881 78.7299C3.27736 78.7925 3.2254 78.7555 3.38203 78.7947C2.92191 78.6786 2.42036 78.0964 2.0604 77.806C1.75013 77.5556 1.32841 77.0865 0.886358 77.1408C-0.404406 77.2999 1.16048 78.926 1.44965 79.2571C1.81188 79.6726 2.17185 80.098 2.55817 80.4909C2.82928 80.7662 2.57625 80.6229 2.60261 80.4577C2.57926 80.6056 2.73816 80.9057 2.78033 81.046C2.93622 81.5702 3.18774 82.1554 3.23519 82.7022C3.251 82.8824 3.15536 83.5386 3.11771 83.8576C2.98592 84.9618 2.68846 85.8894 2.34355 86.9279C1.77122 88.649 1.27795 90.3972 0.785446 92.1424C0.603956 92.7842 0.422466 93.4268 0.241729 94.0686C0.149101 94.3959 -0.0105498 94.7579 0.00149937 95.1018C0.0331283 96.0023 0.385565 96.9775 0.568562 97.8599C0.61977 98.1058 0.863765 98.243 1.09345 98.2604C2.17712 98.3418 3.26004 98.4233 4.34371 98.5047C4.18707 98.415 4.03043 98.3245 3.87379 98.2347C4.6005 99.2612 5.43265 100.226 6.12396 101.273C6.37097 101.647 6.63003 102.045 6.78817 102.467C6.92222 102.823 6.86423 103.145 6.8552 103.517C6.83712 104.268 6.85821 105.021 6.88683 105.771C6.90038 106.133 7.22269 106.381 7.57589 106.297C8.77553 106.011 9.96463 105.706 11.1552 105.387C11.6794 105.246 12.2803 105.163 12.7706 104.923C13.3527 104.638 13.8979 104.224 14.4499 103.882C14.23 103.853 14.0101 103.826 13.7902 103.797C14.4597 104.351 15.8085 105.59 16.7385 105.042C17.5352 104.572 17.7815 103.166 17.9502 102.336C17.6188 102.38 17.2867 102.423 16.9554 102.466C17.3093 103.181 17.4185 103.966 17.8146 104.651C17.9412 104.871 18.0775 105.085 18.2047 105.305C18.3019 105.472 18.3953 105.811 18.5323 105.93C18.5398 105.937 18.5745 106.075 18.5775 106.075C19.1822 105.942 18.3674 105.699 18.3734 105.7C18.1113 105.618 17.8568 105.507 17.5827 105.471C16.4335 105.32 16.2204 106.502 16.1624 107.398C16.1571 107.474 16.0939 107.863 16.1654 107.59C16.1375 107.695 16.0886 107.798 16.0509 107.899C15.8996 108.308 15.7482 108.718 15.5961 109.128C15.1872 110.233 14.9522 111.392 14.654 112.531C14.404 113.487 14.1487 114.443 13.8738 115.393C13.7029 115.982 13.5334 116.693 13.2796 117.201C13.2616 117.237 13.2247 117.335 13.3022 117.186C13.2781 117.233 13.2013 117.294 13.1772 117.352C13.1057 117.524 13.0703 117.675 13.0831 117.862C13.1177 118.346 13.4288 118.808 13.6848 119.203C14.16 119.937 14.5102 120.493 14.9115 121.267C15.0087 121.454 15.1932 121.73 15.1789 121.951C15.1706 122.081 15.0516 122.215 15.0132 122.356C14.8664 122.895 15.0983 123.516 15.3325 123.995C15.5517 124.441 15.8514 124.692 16.1782 125.039C16.3379 125.208 16.6135 125.591 16.5969 125.824C16.5781 126.079 16.4132 126.093 16.1699 126.224C15.267 126.711 14.8769 127.051 14.8091 128.08C14.7451 129.052 14.8897 130.045 15.017 131.006C15.0757 131.45 15.1405 131.893 15.206 132.336C15.2474 132.615 15.3777 133.015 15.3363 133.301C15.3318 133.334 15.3092 133.43 15.3408 133.345C15.389 133.214 14.9379 133.638 14.9853 133.6C14.7677 133.774 14.4966 133.935 14.3234 134.158C14.0794 134.471 14.047 134.869 14.0192 135.254C13.9777 135.824 14.0018 136.396 13.9936 136.966C13.9905 137.213 14.0161 137.514 13.9567 137.755C13.9077 137.952 13.9454 137.799 13.8723 137.933C13.6163 138.404 13.4619 138.82 13.3647 139.358C13.3015 139.708 13.2503 140.391 13.1772 140.579C12.9664 141.125 12.2163 142.031 11.8036 142.635C11.3827 143.25 10.9602 143.864 10.5347 144.476C10.3012 144.813 10.6108 145.315 11.0046 145.297C12.5597 145.225 14.099 145.243 15.6157 144.886C16.3748 144.707 17.1979 144.629 17.8583 144.2C18.1603 144.003 18.8847 143.715 19.0715 143.41C19.2297 143.151 19.0821 143.884 18.9006 143.427C18.9051 143.439 19.0775 143.442 19.0843 143.444C19.378 143.519 19.7267 143.503 20.0287 143.534C21.8217 143.714 23.6035 144.304 25.3709 144.676C26.9968 145.019 28.6611 144.985 30.3194 145.056C30.8337 145.077 31.3481 145.099 31.8624 145.121C31.9709 145.126 32.0868 145.119 32.1938 145.136C31.9309 145.096 32.2231 145.166 32.3225 145.204C33.2541 145.557 34.2127 145.852 35.1556 146.175C35.3326 146.235 35.5592 146.168 35.685 146.035C35.7791 145.935 35.865 145.828 35.9441 145.715C36.0405 145.579 36.3033 145.243 36.0073 145.416C36.228 145.287 36.612 145.305 36.856 145.286C37.4472 145.238 38.0384 145.242 38.6303 145.218C39.5731 145.181 40.5416 144.86 41.4626 144.666C42.3708 144.474 42.9702 143.89 43.7399 143.381C43.8332 143.319 43.5553 143.458 43.7323 143.377C43.8016 143.344 43.8777 143.322 43.9492 143.295C44.2647 143.175 44.5803 143.055 44.8958 142.935C45.2678 142.794 45.6444 142.613 46.0277 142.509C47.0692 142.225 48.195 142.129 49.2584 141.942C49.5724 141.887 49.6771 141.539 49.6387 141.272C49.4014 139.636 49.2282 137.977 48.9255 136.353C48.6077 134.645 47.9653 132.992 47.2808 131.407C47.1558 131.118 47.0684 130.799 46.9306 130.518C46.8463 130.345 46.8967 130.467 46.8643 130.587C46.8824 130.522 46.9457 130.428 46.9841 130.374C47.3064 129.924 47.5911 129.437 47.8953 128.974C48.1792 128.542 48.4925 128.105 48.7071 127.632C48.8705 127.273 48.9217 126.87 49.0159 126.487C49.1544 125.926 49.2998 125.367 49.4466 124.808C49.4722 124.711 49.5664 124.526 49.546 124.431C49.5204 124.309 49.3261 124.649 49.4429 124.603C49.5039 124.58 49.589 124.444 49.6311 124.397C50.1507 123.827 50.8052 123.265 51.2254 122.615C51.4807 122.22 51.6606 121.744 51.8708 121.323C52.0462 120.971 52.2834 120.609 52.4017 120.233C52.66 119.412 52.7285 118.485 52.8874 117.639C52.7127 117.772 52.5372 117.906 52.3625 118.039C52.8061 118.039 53.4394 118.157 53.8302 117.922C54.2053 117.697 54.5381 117.28 54.8604 116.985C54.7324 117.038 54.6037 117.091 54.4756 117.145C55.1624 117.163 55.85 117.176 56.5375 117.18C57.143 117.183 58.0964 117.355 58.4157 116.697C58.6311 116.253 58.5851 115.687 58.6702 115.211C58.7561 114.733 58.9993 114.319 59.1145 113.85C59.3096 113.055 59.3759 112.208 59.4075 111.391C59.4256 110.931 58.7907 110.655 58.4782 111.005C58.2832 111.223 58.0828 111.436 57.8773 111.643C57.7583 111.763 57.4729 112.141 57.3042 112.185C57.1347 112.229 56.8727 112.048 56.7348 111.974C55.9479 111.548 55.069 110.846 54.6526 110.038C54.264 109.284 54.0584 108.443 53.7768 107.646C53.5802 107.09 53.3716 106.422 52.8626 106.072C52.6216 105.905 52.4883 105.872 52.3678 105.588C52.184 105.154 52.0907 104.659 51.9536 104.209C51.6614 103.247 52.1946 102.82 52.6781 102.082C52.9815 101.618 52.9446 101.003 53.029 100.466C53.0824 100.126 53.1404 99.7868 53.1999 99.4475C53.2195 99.3343 53.3777 98.7936 53.2451 99.044C53.6646 98.2521 54.3363 97.5182 54.8567 96.7912C55.5585 95.81 56.2604 94.8281 56.963 93.8469C57.1302 93.6131 57.201 93.4524 57.2213 93.1553C57.2635 92.5353 57.3463 91.9274 57.4111 91.3128C57.4111 91.3098 57.1769 91.5654 57.3742 91.3595C57.4683 91.2615 57.5512 91.168 57.6189 91.0458C57.8569 90.6197 57.9571 90.0902 58.067 89.6204C58.3042 88.606 58.5949 87.4898 58.3713 86.4475C58.1973 85.6352 57.689 85.1722 56.8486 85.3019C56.4547 85.3622 55.9539 85.6466 55.5631 85.6194C55.539 85.6179 55.4787 85.6096 55.5472 85.6262C55.6429 85.6488 55.4117 85.5214 55.3891 85.4987C55.2084 85.3215 55.0359 85.1578 54.8996 84.9414C54.6037 84.4693 54.5216 83.9368 54.1232 83.5235C53.7858 83.1736 53.3408 82.973 52.9243 82.7376C52.4393 82.4631 52.3045 82.1954 52.3693 81.6373C52.3994 81.3733 52.471 81.1056 52.5628 80.8567C52.6479 80.6267 52.5041 80.3627 52.3128 80.2413C52.0515 80.0754 51.7872 79.9147 51.5198 79.7586C51.3022 79.6319 51.0808 79.5135 50.8601 79.3928C50.6342 79.2699 50.8872 79.5452 50.8187 79.3679C50.6297 78.8822 50.6508 78.2781 50.638 77.7683C50.6154 76.8241 50.647 75.876 50.7133 74.9341C50.7268 74.741 50.5981 74.5622 50.4437 74.4634C49.4451 73.8239 48.4029 73.2085 47.4645 72.4822C46.9216 72.0621 46.2634 71.7514 45.7829 71.2611C45.6918 71.1684 45.5932 70.9783 45.4855 70.9157C45.4584 70.8727 45.4312 70.829 45.4041 70.786C45.3409 70.9006 45.2776 71.0153 45.2151 71.1307C45.2279 71.148 45.4817 71.1337 45.5269 71.1382C45.7227 71.1593 45.9102 71.2302 46.1068 71.2483C47.024 71.3335 47.878 71.2114 48.7651 71.0221C49.4511 70.8758 50.1379 70.7294 50.824 70.5831C51.0349 70.5379 51.2465 70.4949 51.4573 70.4481C51.748 70.3833 51.3534 70.4119 51.5997 70.4481C53.0787 70.6601 54.6052 70.737 56.0962 70.8116C56.771 70.8456 57.6363 70.9798 58.1747 70.4723C58.6416 70.0326 58.6017 69.3598 58.4526 68.7882C58.4029 68.5966 58.2922 68.3952 58.2658 68.1991C58.2899 68.3779 58.2764 68.2203 58.3035 68.123C58.3577 67.9276 58.4127 67.733 58.4774 67.5407C58.6122 67.1395 58.7689 66.7368 58.9895 66.374C59.1432 66.1213 59.3796 65.9562 59.5378 65.7096C60.2133 64.6529 60.2374 63.0156 60.3669 61.8066C60.4076 61.4265 60.5213 60.9732 60.4302 60.5962C60.2841 59.9913 59.9188 59.3744 59.6786 58.8012C59.5046 58.3849 59.3631 58.0115 59.0807 57.6601C58.6778 57.1586 58.2711 56.6593 57.8667 56.1585C57.9134 56.335 57.9601 56.5122 58.0068 56.6887C58.125 56.2317 58.2432 55.7746 58.3615 55.3183C58.4172 55.1019 58.5354 54.8432 58.5422 54.6207C58.5497 54.3839 58.5753 54.6667 58.4436 54.7248C58.5061 54.6969 58.5731 54.5996 58.6243 54.5589C59.2358 54.0649 59.8081 53.5452 60.4761 53.1221C61.1087 52.7217 61.8648 52.5407 62.2119 51.8196C62.7496 50.7012 62.2503 49.1853 61.5733 48.2395C61.1599 47.6618 61.4573 47.3481 61.8038 46.8254C62.035 46.4762 62.1698 46.0682 62.2262 45.6557C62.2759 45.2921 62.2729 44.9158 62.157 44.5643C62.0583 44.2649 61.8505 44.0734 61.7729 43.7679C61.556 42.9142 61.687 41.9036 61.7096 41.0249C61.7337 40.1003 61.7676 39.1757 61.7669 38.251C61.7654 37.0224 61.809 35.6378 61.4167 34.459C61.2209 33.8714 60.7367 33.4928 60.4806 32.928C60.3082 32.5471 60.1809 32.1428 60.08 31.7371C60.0401 31.5772 60.034 31.3879 59.9761 31.2363C60.0122 31.3298 59.7901 31.3351 59.8834 31.4007C59.909 31.4188 60.0627 31.3819 60.0981 31.3856C60.7593 31.4505 61.6772 31.5093 62.2827 31.1926C62.9078 30.8652 63.1149 30.1359 63.2195 29.4873C63.3152 28.8915 63.2391 28.1215 63.6126 27.6177C64.0276 27.0581 64.6466 26.6018 65.2001 26.1885C65.2709 26.1357 65.6889 25.8838 65.4434 25.9811C65.6873 25.8846 65.9841 25.8597 66.2393 25.8016C66.7793 25.6787 67.4435 25.6364 67.8961 25.2918C68.6281 24.7337 69.1869 23.8377 69.7419 23.1175C71.2217 21.195 72.6661 19.2537 74.1986 17.3773C75.0307 16.3584 74.2076 14.893 73.5968 13.9782C73.0825 13.2082 72.3829 12.6199 71.6524 12.055C71.2458 11.7413 70.8707 11.4811 70.3376 11.6032C69.531 11.7873 68.7915 12.2662 67.991 12.4939C67.5994 12.6056 67.4608 12.7692 67.4548 12.3997C67.4495 12.1116 67.5429 11.8174 67.6001 11.5384C67.7553 10.7819 67.8841 10.0293 68.0799 9.28034C68.244 8.65361 68.5272 7.92431 68.3969 7.27344C68.3156 6.86618 68.0113 6.59316 67.9066 6.18666C67.7666 5.64364 67.8713 5.06367 67.7267 4.53121C67.5489 3.87582 66.9909 3.71895 66.3907 3.86903C65.8003 4.01685 65.2099 4.07417 64.5992 4.11791C64.2151 4.14507 63.709 4.24085 63.3363 4.12244C63.1548 4.06512 62.9906 3.94219 62.852 3.81549C62.8227 3.78909 62.5734 3.49495 62.6645 3.6194C62.532 3.43688 62.288 3.27926 62.05 3.369C61.5296 3.56509 60.9603 3.90222 60.4219 4.0161C59.8337 4.14129 59.0761 3.76873 58.4571 3.75741C57.6197 3.74157 56.7898 3.76269 55.9539 3.68199C55.1587 3.60582 54.1593 3.14727 53.389 3.49797C52.1276 4.07266 52.7978 5.8797 52.1494 6.85789C51.7954 7.39185 51.4438 6.98911 50.9641 6.86694C50.6741 6.79303 50.3872 6.8149 50.098 6.87749C49.7192 6.9597 49.3555 7.1128 48.9835 7.22141C48.6838 7.30889 48.381 7.37828 48.0745 7.43635C47.942 7.46048 47.8087 7.48311 47.6754 7.50498C47.5474 7.51026 47.5948 7.53138 47.8185 7.56833C47.9021 7.67694 47.9849 7.78554 48.0685 7.89414C48.1303 8.10305 48.0278 7.62791 47.9887 7.55099C47.8682 7.31492 47.631 7.15127 47.4073 7.02456C46.9698 6.77568 46.2031 6.43177 45.7649 6.86166C45.3936 7.22593 45.612 7.74708 45.5901 8.19355C45.5834 8.34213 45.5758 8.53822 45.5035 8.67247C45.618 8.45903 45.6233 8.56688 45.4245 8.60082C45.3153 8.61967 45.1978 8.6883 45.0984 8.73657C45.0133 8.77503 44.9327 8.82104 44.8559 8.87459C44.6631 8.95453 44.7166 9.00205 45.0156 9.01713C45.066 8.77579 44.8371 8.20638 44.7859 7.95825C44.7038 7.56607 44.6262 7.13769 44.4116 6.79076C44.1058 6.29526 43.7248 6.27716 43.2082 6.25378C42.6961 6.2304 42.2985 6.09615 41.7676 6.22286C40.9497 6.41819 40.1688 6.83526 39.4202 7.2018C39.1363 7.34057 38.6017 7.73048 38.2613 7.66638C38.1408 7.64375 38.0459 7.52157 37.951 7.44842C37.7808 7.31719 37.3937 7.15504 37.277 6.98459C37.1219 6.75909 37.1821 6.5102 36.9404 6.30884C36.0518 5.56822 34.7663 6.94613 34.16 7.44992C33.7609 7.78177 33.3708 8.14453 32.9378 8.43112C32.8889 8.46356 32.6742 8.5533 32.6403 8.60006C32.7352 8.46959 32.9258 8.73129 32.8233 8.61816C32.4829 8.24182 32.013 8.4168 31.6154 8.22674C31.1018 7.98163 30.4843 7.13467 30.2441 6.62635C30.0151 6.14291 30.3118 5.40155 30.5445 4.94903C30.6146 4.81177 30.4361 5.08479 30.5152 4.97467C30.5777 4.88719 30.665 4.80951 30.7358 4.72881C30.9339 4.50331 31.1244 4.27177 31.3082 4.03495C31.7592 3.45574 32.312 2.76264 32.446 2.01825C32.6667 0.793448 31.3428 0.749705 30.5227 1.08683C30.6989 1.13359 30.8759 1.18035 31.0521 1.22711C30.7539 0.874146 30.4564 0.52194 30.1582 0.168979C30.0174 0.00154878 29.6793 -0.0497361 29.4985 0.0837554C28.9465 0.490264 28.2929 0.823615 27.6256 0.979733C26.6768 1.20222 25.7927 1.19618 24.892 1.63211C24.5546 1.79577 24.1578 2.15702 23.8 2.24752C23.5493 2.31163 23.3693 2.17361 23.0959 2.12761C22.2675 1.98884 21.5182 2.34331 20.9421 2.91197C20.2629 3.58319 19.3998 3.98669 18.7123 4.65641C18.1437 5.20998 17.6866 5.87518 17.2626 6.54339C16.3303 8.0133 15.0908 9.9923 15.6209 11.8008C15.8815 12.6893 16.4764 13.3334 16.9117 14.123C17.2694 14.7723 17.1565 15.5808 16.9787 16.2777C16.8055 16.958 17.8553 17.2484 18.0285 16.5673L18.0315 16.5598Z" fill="#EEE5DA"/>
<path d="M67.1618 25.4984C67.1739 25.6462 67.1347 25.7737 67.1483 25.9223C67.1588 26.0407 67.1754 26.1583 67.1874 26.2767C67.2145 26.5369 67.2387 26.7979 67.2605 27.0581C67.3034 27.58 67.3275 28.1034 67.3381 28.6275C67.3433 28.8975 67.6694 29.031 67.8637 28.8455C68.0128 28.7037 68.1054 28.574 68.1544 28.3741C68.192 28.2203 68.058 28.0936 67.9066 28.126C67.704 28.1705 67.573 28.264 67.4277 28.4088L67.9533 28.6268C67.93 28.0785 67.8916 27.5317 67.8328 26.9864C67.8072 26.7481 67.7771 26.5098 67.7432 26.2722C67.7229 26.1319 67.7078 25.9886 67.6784 25.8498C67.6483 25.7058 67.5738 25.5881 67.5406 25.4464C67.4924 25.2374 67.143 25.2774 67.1611 25.4976L67.1618 25.4984Z" fill="#EEE5DA"/>
<path d="M74.0622 22.6837C73.4304 22.6762 73.0072 23.1853 72.596 23.5978C72.0214 24.174 71.4476 24.7502 70.873 25.3272C70.3157 25.886 69.7592 26.4449 69.2042 27.006C68.9097 27.3039 68.6145 27.6018 68.3201 27.8997C68.0565 28.1659 67.6935 28.4337 67.5354 28.7761C67.4262 29.0129 67.6476 29.2429 67.8871 29.1283C68.2094 28.9729 68.4511 28.6373 68.6989 28.3839C68.9406 28.1373 69.1816 27.8907 69.4233 27.644C69.9407 27.1154 70.4573 26.5852 70.9724 26.055L72.5192 24.4636C72.7594 24.2163 73.0012 23.9696 73.2414 23.7207C73.4696 23.4839 73.7128 23.1544 74.063 23.1091C74.3251 23.0752 74.3446 22.6883 74.063 22.6852L74.0622 22.6837Z" fill="#EEE5DA"/>
<path d="M62.6472 28.8877C62.7127 30.2023 62.8558 31.507 63.035 32.811C63.0832 33.1609 63.6496 33.0222 63.5765 32.6617C63.3235 31.4158 63.1593 30.154 63.0501 28.8877C63.0283 28.6328 62.6344 28.626 62.648 28.8877H62.6472Z" fill="#EEE5DA"/>
<path d="M67.7756 28.4684C66.6565 28.264 65.4463 28.9179 64.6406 29.6442C64.2068 30.0348 63.8355 30.5062 63.5629 31.0228C63.3498 31.4271 62.9431 32.1873 63.1721 32.6323C63.2429 32.7695 63.4387 32.7816 63.5418 32.6798C63.7211 32.504 63.7188 32.2589 63.7858 32.0266C63.8611 31.7642 63.962 31.5115 64.0893 31.2702C64.3243 30.8237 64.6315 30.4232 64.9983 30.0771C65.3658 29.7301 65.7875 29.4518 66.2454 29.2399C66.7409 29.0099 67.2545 28.9201 67.7756 28.7761C67.9179 28.7369 67.9352 28.4985 67.7756 28.4691V28.4684Z" fill="#EEE5DA"/>
<path d="M63.4364 32.547C62.6411 32.538 62.248 33.5765 61.9965 34.1693C61.8045 34.6233 61.629 35.0841 61.4784 35.5532C61.3511 35.9499 61.0755 36.4794 61.257 36.8783C61.3119 36.999 61.4678 36.9847 61.5522 36.9168C61.8195 36.6996 61.8361 36.2154 61.9257 35.8971C62.0409 35.4891 62.1697 35.0849 62.3135 34.6859C62.4453 34.3209 62.5779 33.9498 62.7586 33.6051C62.9476 33.2439 63.172 33.0365 63.5109 32.8231C63.6344 32.7454 63.5855 32.5478 63.4364 32.5463V32.547Z" fill="#EEE5DA"/>
<path d="M62.0063 51.3015C61.7314 51.5586 61.8037 52.116 61.797 52.4659C61.7879 52.9644 61.8045 53.463 61.8429 53.96C61.9175 54.9321 62.0801 55.8945 62.3219 56.8387C62.413 56.7196 62.5033 56.5996 62.5945 56.4805C61.8391 56.5099 61.0928 56.6426 60.388 56.9194C59.7328 57.1766 58.9888 57.5311 58.5015 58.0537C58.2477 58.3252 58.6378 58.7166 58.9089 58.4617C59.0136 58.3629 59.101 58.2626 59.1868 58.148C59.2945 58.0047 59.1175 57.8342 58.9714 57.8674C58.8487 57.8953 58.744 57.9308 58.628 57.9791C58.7018 58.1548 58.7764 58.3305 58.8502 58.507C59.4376 58.1397 59.9489 57.7317 60.6049 57.4768C61.2412 57.2286 61.9114 57.0808 62.5937 57.0476C62.7767 57.0386 62.9153 56.8742 62.8663 56.6894C62.6171 55.7482 62.4439 54.7903 62.367 53.8189C62.3316 53.3687 62.3158 52.9184 62.3166 52.4667C62.3166 52.1039 62.4348 51.6001 62.1999 51.3022C62.1524 51.2426 62.0545 51.2562 62.0048 51.3022L62.0063 51.3015Z" fill="#EEE5DA"/>
<path d="M57.8765 70.3176C57.7628 70.5854 57.7906 70.8606 57.7861 71.1487C57.7808 71.4972 57.7756 71.8456 57.7711 72.194C57.7665 72.5425 57.7635 72.8909 57.7598 73.2393C57.756 73.5561 57.7123 73.8895 57.8012 74.1957C57.8637 74.4121 58.1777 74.4129 58.2402 74.1957C58.3291 73.8895 58.2854 73.5561 58.2816 73.2393C58.2779 72.8909 58.2749 72.5425 58.2703 72.194C58.2658 71.8456 58.2606 71.4972 58.2553 71.1487C58.2508 70.8599 58.2786 70.5861 58.1649 70.3176C58.1182 70.2083 57.9232 70.2083 57.8772 70.3176H57.8765Z" fill="#EEE5DA"/>
<path d="M60.2457 61.5087C59.9535 61.8051 60.0198 62.379 60.0492 62.7606C60.0876 63.2682 60.1922 63.7712 60.2924 64.269C60.5191 65.3875 60.6893 66.4343 60.4197 67.5625C60.1546 68.6742 59.6832 69.7429 59.2878 70.8123C59.0897 71.3486 58.8917 71.8848 58.6936 72.421C58.4933 72.964 58.1966 73.5395 58.1303 74.1157C58.0957 74.4166 58.5136 74.4641 58.653 74.2575C58.9617 73.8004 59.1003 73.1782 59.2908 72.6624C59.4972 72.1028 59.7042 71.5432 59.9106 70.9835C60.3135 69.8937 60.7872 68.7987 61.0387 67.6613C61.2684 66.6243 61.1562 65.6017 60.9295 64.5767C60.815 64.0578 60.6832 63.542 60.6027 63.0163C60.5597 62.7372 60.5266 62.4559 60.5191 62.1731C60.513 61.9484 60.5296 61.7281 60.4159 61.5298C60.3813 61.4695 60.2947 61.4581 60.2457 61.5079V61.5087Z" fill="#EEE5DA"/>
<path d="M58.1062 74.1512C57.5098 73.8978 56.8004 73.9121 56.1618 73.8857C55.4245 73.8555 54.6865 73.8586 53.9493 73.9061C53.2534 73.9506 52.5591 74.0267 51.8693 74.1293C51.5161 74.1821 51.1637 74.2417 50.8127 74.3103C50.4625 74.3782 50.0838 74.4204 49.7675 74.5916C49.4775 74.7485 49.6169 75.198 49.9324 75.2003C50.1003 75.2018 50.2389 75.1927 50.394 75.1294C50.5687 75.0577 50.5936 74.8601 50.4437 74.7462C50.3112 74.6452 50.1809 74.6007 50.019 74.5584C49.9904 74.7726 49.961 74.9861 49.9324 75.2003C50.2683 75.207 50.6056 75.0856 50.9332 75.017C51.2826 74.9438 51.6336 74.8782 51.9853 74.8201C52.6593 74.71 53.3385 74.6316 54.0201 74.5818C54.685 74.5336 55.3515 74.5034 56.018 74.5026C56.6837 74.5019 57.4074 74.6233 58.0618 74.4853C58.2056 74.4551 58.2508 74.213 58.1055 74.1512H58.1062Z" fill="#EEE5DA"/>
<path d="M58.0121 87.1187C58.2998 88.9514 58.5618 90.7856 58.6868 92.6378C58.7456 93.5089 58.8081 94.3944 58.7795 95.267C58.7659 95.6697 58.7102 96.0626 58.5061 96.4163C58.3028 96.7685 58.0113 97.0574 57.7319 97.3485C55.6068 99.5658 54.1082 102.347 53.4485 105.35C53.2692 106.166 53.151 106.997 53.096 107.83C53.0576 108.415 53.2308 109.271 54.0095 109.094C54.246 109.041 54.2573 108.649 54.0095 108.603C53.6194 108.531 53.9109 107.028 53.947 106.763C54.0441 106.05 54.194 105.343 54.3868 104.65C54.7814 103.232 55.3688 101.874 56.1264 100.613C56.5127 99.9693 56.942 99.3501 57.4172 98.7694C57.8615 98.2256 58.3833 97.746 58.8141 97.1924C59.2524 96.629 59.4218 95.9736 59.4369 95.267C59.455 94.417 59.3872 93.5572 59.3232 92.7102C59.1771 90.7893 58.924 88.8654 58.4669 86.9927C58.3931 86.6918 57.9661 86.8253 58.0128 87.1179L58.0121 87.1187Z" fill="#EEE5DA"/>
<path d="M58.247 116.641C58.1717 116.859 58.1317 116.886 58.122 117.105C58.1152 117.25 58.1152 117.396 58.1159 117.54C58.1174 117.879 58.1257 118.218 58.1348 118.556C58.1438 118.894 58.1566 119.232 58.1724 119.57C58.186 119.865 58.1558 120.16 58.3125 120.418C58.4315 120.615 58.6853 120.549 58.7628 120.36C58.8788 120.075 58.7862 119.727 58.7613 119.425C58.735 119.111 58.7109 118.797 58.6883 118.483C58.6657 118.169 58.6476 117.855 58.628 117.54C58.619 117.395 58.6099 117.25 58.5964 117.105C58.5761 116.881 58.5384 116.863 58.4518 116.641C58.4141 116.544 58.2831 116.538 58.2477 116.641H58.247Z" fill="#EEE5DA"/>
<path d="M59.5604 112.278C59.6116 112.097 59.6515 112.026 59.6704 111.846H59.2283C59.2697 112.61 59.4331 113.377 59.5567 114.131C59.6214 114.524 59.6907 114.917 59.7577 115.31C59.8278 115.718 59.9377 116.144 59.8202 116.555C59.7178 116.911 59.4618 117.223 59.2825 117.543C59.1056 117.858 58.9459 118.183 58.8028 118.516C58.5498 119.1 58.1823 119.845 58.2433 120.494C58.2681 120.754 58.6018 120.877 58.7516 120.632C58.9437 120.316 59.0031 119.953 59.1176 119.605C59.2351 119.246 59.3729 118.894 59.5318 118.552C59.6945 118.203 59.8775 117.866 60.0763 117.536C60.2608 117.23 60.4664 116.914 60.5108 116.552C60.6019 115.807 60.3346 114.989 60.1953 114.264C60.0379 113.441 59.9136 112.587 59.6628 111.788C59.5777 111.517 59.1523 111.632 59.2366 111.906C59.2825 112.056 59.3548 112.156 59.4249 112.296C59.4542 112.355 59.5439 112.337 59.5604 112.278Z" fill="#EEE5DA"/>
<path d="M58.6108 120.532C58.2162 119.772 56.8757 120.651 56.3922 120.882C55.4532 121.33 54.5216 121.796 53.6149 122.307C51.8813 123.286 50.2261 124.46 48.9203 125.978C48.5784 126.376 48.1785 126.818 47.942 127.288C47.7809 127.61 47.8878 128.119 48.3201 128.102C48.5528 128.093 48.613 127.809 48.4338 127.682C48.4714 127.8 48.4978 127.807 48.5113 127.703C48.5287 127.656 48.549 127.612 48.5738 127.569C48.6288 127.466 48.7064 127.37 48.7734 127.275C48.9368 127.042 49.11 126.816 49.2915 126.598C49.6161 126.208 49.9648 125.838 50.333 125.49C51.0981 124.764 51.9438 124.135 52.8234 123.557C53.7083 122.976 54.6316 122.455 55.5691 121.965C56.0293 121.725 56.4931 121.491 56.9578 121.261C57.387 121.048 57.921 120.628 58.4157 120.784C58.5663 120.832 58.6763 120.658 58.61 120.531L58.6108 120.532Z" fill="#EEE5DA"/>
<path d="M49.461 142.013C49.3939 141.802 49.1582 141.729 48.9481 141.768C48.5844 141.837 48.5754 142.269 48.5799 142.566C48.5987 143.737 48.6386 144.908 48.6717 146.078C48.6845 146.523 49.3902 146.519 49.3601 146.078C49.3088 145.331 49.2591 144.583 49.2049 143.836C49.1793 143.488 49.1537 143.138 49.1281 142.79C49.1161 142.623 49.0829 142.441 49.0972 142.272C49.104 142.194 49.1447 141.772 49.2915 142.084C49.336 142.179 49.4926 142.112 49.461 142.012V142.013Z" fill="#EEE5DA"/>
<path d="M10.488 145.347C10.683 146.083 10.8954 146.811 11.0242 147.563C11.0919 147.961 11.1409 148.361 11.1718 148.763C11.1951 149.064 11.1273 149.397 11.3691 149.612C11.4451 149.679 11.5671 149.692 11.6424 149.612C11.8804 149.359 11.7735 149.012 11.7381 148.692C11.6929 148.289 11.6327 147.888 11.5543 147.491C11.4 146.705 11.1891 145.921 10.8555 145.192C10.7583 144.98 10.4308 145.132 10.488 145.347V145.347Z" fill="#EEE5DA"/>
<path d="M11.4579 149.986C13.7736 149.139 16.0471 148.085 18.542 147.916C19.8727 147.826 21.2049 147.961 22.5258 148.119C23.8294 148.275 25.1322 148.438 26.4357 148.597C29.0308 148.915 31.6251 149.277 34.2263 149.547C35.4869 149.679 36.6368 149.582 37.7958 149.047C38.893 148.54 39.9616 148.024 41.1176 147.657C43.6908 146.84 46.4034 146.547 49.0904 146.817C49.5241 146.86 49.5211 146.181 49.0904 146.138C46.7031 145.899 44.2828 146.076 41.958 146.676C40.8043 146.973 39.6807 147.38 38.5986 147.878C38.0526 148.13 37.5262 148.432 36.9614 148.639C36.3514 148.864 35.7173 148.928 35.0712 148.908C33.7654 148.867 32.4543 148.638 31.159 148.483C29.8306 148.323 28.5022 148.164 27.1737 148.004C25.8453 147.844 24.5169 147.685 23.1885 147.525C21.891 147.369 20.5896 147.2 19.2801 147.214C16.4673 147.244 13.751 148.28 11.2599 149.515C11.0023 149.643 11.183 150.085 11.4579 149.985V149.986Z" fill="#EEE5DA"/>
<path d="M7.47795 105.826C7.36951 105.602 7.08183 105.558 6.88905 105.706C6.572 105.95 6.73166 106.495 6.76856 106.824C6.88227 107.845 7.01104 108.893 7.25579 109.891C7.30248 110.081 7.54347 110.181 7.70989 110.076C8.93288 109.305 10.3178 108.768 11.7584 108.611C13.3655 108.436 14.9416 108.73 16.5412 108.79C16.5058 108.531 16.4711 108.271 16.4357 108.011C16.1865 108.047 15.9462 108.084 15.7098 108.174C15.4854 108.259 15.468 108.571 15.7098 108.65C15.9809 108.738 16.2588 108.764 16.5412 108.791C16.984 108.834 17.0826 108.1 16.6466 108.012C15.8265 107.845 14.9537 107.82 14.12 107.779C13.251 107.735 12.3789 107.716 11.5137 107.83C9.97814 108.033 8.55032 108.637 7.33562 109.591C7.50807 109.637 7.67977 109.683 7.85222 109.728C7.75056 109.112 7.60522 108.502 7.49753 107.888C7.44783 107.604 7.40038 107.32 7.35143 107.036C7.32733 106.894 7.30324 106.752 7.28064 106.611C7.26558 106.516 7.25052 106.421 7.23546 106.326C7.26408 106.189 7.21739 106.098 7.09388 106.052C7.24751 106.298 7.60145 106.084 7.47795 105.827V105.826Z" fill="#EEE5DA"/>
<path d="M1.12963 97.6736C0.969976 97.4458 0.714685 97.4217 0.512862 97.6185C0.40216 97.7263 0.426259 97.8802 0.512862 97.9911C1.17707 98.8433 1.54005 99.8871 1.55662 100.966C1.55888 101.135 1.70648 101.312 1.88722 101.297C2.83985 101.221 3.77818 101.342 4.67659 101.672C5.60513 102.012 6.33711 102.569 7.06307 103.223C7.39066 103.518 7.82292 103.074 7.54203 102.743C6.21662 101.178 3.87909 100.442 1.88646 100.636C1.99641 100.746 2.10636 100.856 2.21706 100.967C2.15305 99.7212 1.69744 98.565 0.884126 97.62C0.897681 97.7263 0.911236 97.8327 0.925545 97.939C0.924038 97.942 0.921779 97.9451 0.920273 97.9481C1.06712 97.9926 1.22376 97.8101 1.12963 97.6751V97.6736Z" fill="#EEE5DA"/>
<path d="M13.3187 117.575C13.202 118.618 13.2321 119.685 13.2118 120.733C13.1907 121.811 13.1742 122.888 13.1606 123.966C13.1561 124.313 13.0266 124.895 13.2728 125.184C13.5048 125.458 13.8851 125.304 14.1863 125.316C14.5613 125.33 14.9296 125.484 15.2187 125.721C15.5185 125.968 15.6126 126.333 15.8724 126.593C15.9922 126.713 16.2602 126.675 16.2881 126.483C16.3815 125.84 15.6909 125.217 15.169 124.956C14.849 124.795 14.495 124.701 14.1358 124.698C14.0944 124.698 13.6674 124.729 13.7646 124.793C13.7006 124.751 13.7721 124.062 13.7736 123.966C13.7849 122.913 13.7939 121.861 13.7977 120.808C13.8022 119.735 13.8595 118.645 13.7646 117.575C13.739 117.286 13.3511 117.292 13.3195 117.575H13.3187Z" fill="#EEE5DA"/>
<path d="M0.978224 77.8987C0.898398 77.8429 0.826103 77.7788 0.759833 77.7079C0.612231 77.5608 0.340373 77.6672 0.343385 77.8806C0.35694 78.7223 0.427729 79.5534 0.381039 80.3973C0.333595 81.2601 0.208585 82.1131 0.0180584 82.9556C-0.0256197 83.1494 0.105415 83.3206 0.302719 83.3304C1.43986 83.3847 2.41433 84.108 2.86165 85.1442C2.91437 85.2656 3.08983 85.3207 3.20882 85.286C3.38203 85.2355 3.53264 85.1555 3.69229 85.0733C3.90014 84.9662 3.80826 84.6065 3.57105 84.6238C3.39106 84.6366 3.22087 84.6457 3.04616 84.6925C3.16213 84.74 3.27735 84.7867 3.39332 84.8342C2.87069 83.5981 1.63189 82.7896 0.303472 82.7391L0.588133 83.1139C0.952619 81.4268 1.16649 79.5263 0.822338 77.8173C0.72218 77.9176 0.622021 78.0179 0.522616 78.1174C0.61449 78.1438 0.7026 78.1815 0.785438 78.2298C1.00609 78.3467 1.17478 78.042 0.978224 77.9002V77.8987Z" fill="#EEE5DA"/>
<path d="M31.9566 1.85456C31.882 3.16383 31.9144 4.48366 31.9257 5.7952C31.931 6.43324 31.9317 7.07129 31.9423 7.70933C31.9505 8.17165 31.9882 8.70109 32.3429 9.03897C32.6148 9.29841 33.0583 8.96883 32.867 8.63397C32.6065 8.17844 32.6298 7.72064 32.6193 7.20704C32.6072 6.61198 32.5982 6.01768 32.5839 5.42263C32.556 4.23402 32.55 3.03863 32.4483 1.8538C32.4212 1.53931 31.9739 1.53327 31.9558 1.8538L31.9566 1.85456Z" fill="#EEE5DA"/>
<path d="M67.9834 7.76813C67.948 8.51704 68.1333 9.31271 68.2741 10.0443C68.4232 10.8188 68.5791 11.6168 68.811 12.3709C68.927 12.748 69.5204 12.5874 69.4029 12.2073C69.1748 11.4667 68.9308 10.7434 68.7568 9.9862C68.5851 9.24181 68.5181 8.4567 68.3012 7.72514C68.2485 7.5479 67.9924 7.58637 67.9842 7.76813H67.9834Z" fill="#EEE5DA"/>
<path d="M30.5837 4.36526C30.5385 5.0297 30.5091 5.6949 30.4978 6.36009C30.4926 6.68062 30.4911 7.00115 30.4941 7.32168C30.4963 7.59244 30.4406 7.89939 30.6123 8.12263C30.6695 8.19654 30.7667 8.20408 30.8224 8.12263C30.9813 7.88959 30.9128 7.59394 30.9083 7.32168C30.9037 7.00115 30.903 6.68062 30.906 6.36009C30.9128 5.69414 30.9391 5.0297 30.9798 4.36526C30.9956 4.10959 30.6003 4.1111 30.5829 4.36526H30.5837Z" fill="#EEE5DA"/>
<path d="M31.1507 3.53036C30.9067 3.7815 31.0558 4.27172 31.0784 4.59225C31.1108 5.04175 31.1575 5.49049 31.1944 5.93924C31.272 6.87066 31.3345 7.80359 31.3834 8.73728C31.3932 8.93035 31.5755 9.01784 31.7419 8.94317C31.8842 8.87907 31.9618 8.78404 31.9889 8.63019C32.0137 8.4884 31.8872 8.39789 31.7592 8.4537C31.6944 8.48161 31.6274 8.49971 31.5581 8.50801C31.6583 8.58493 31.7592 8.66111 31.8594 8.73803C31.8036 7.78097 31.7329 6.8239 31.6462 5.8691C31.6056 5.4196 31.5672 4.96935 31.513 4.52061C31.4753 4.20762 31.5265 3.71815 31.2441 3.51904C31.217 3.50019 31.1733 3.50848 31.1507 3.53111V3.53036Z" fill="#EEE5DA"/>
<path d="M67.3042 10.7125C67.2643 11.0504 67.384 11.4139 67.4653 11.7412C67.5474 12.0723 67.6039 12.4486 67.7877 12.739C67.866 12.8627 68.0881 12.8227 68.0791 12.6598C68.0588 12.3144 67.9036 11.978 67.8103 11.6462C67.7184 11.3204 67.6702 10.9538 67.497 10.6604C67.4405 10.5647 67.3162 10.6167 67.3049 10.7125H67.3042Z" fill="#EEE5DA"/>
<path d="M67.6747 10.128C67.7463 10.4772 67.8773 10.8105 67.9895 11.1484C68.0904 11.4508 68.1492 11.7842 68.3156 12.058C68.4052 12.2058 68.6198 12.1062 68.5867 11.9433C68.5234 11.6311 68.3397 11.3452 68.2094 11.0556C68.0641 10.7321 67.9353 10.3995 67.7523 10.0955C67.7267 10.0533 67.6657 10.082 67.6747 10.128Z" fill="#EEE5DA"/>
<path d="M68.2327 24.6168C68.3043 25.1002 68.3886 25.5776 68.4842 26.0573C68.5769 26.5218 68.6228 27.04 68.7938 27.4812C68.8638 27.6622 69.1469 27.7014 69.2012 27.4812C69.2396 27.3228 69.2396 27.2142 69.1598 27.0709C69.1025 26.9683 68.9301 26.9864 68.903 27.1048C68.8932 27.1833 68.8638 27.2549 68.8148 27.3183C68.9459 27.3537 69.0769 27.3892 69.2087 27.4254C69.1846 26.9532 69.0227 26.4728 68.918 26.0128C68.8043 25.515 68.6823 25.0225 68.5445 24.5308C68.4865 24.3249 68.2034 24.4161 68.2327 24.6168Z" fill="#EEE5DA"/>
<path d="M63.0689 27.6109C62.9318 28.0491 63.1976 28.5054 63.3106 28.9262C63.4574 29.4745 63.5493 30.0311 63.59 30.5967C63.6118 30.9037 64.0584 30.8509 64.011 30.5394C64.0079 30.4881 64.0057 30.4368 64.0027 30.3848C64.0027 30.2423 63.7805 30.1623 63.7165 30.3071C63.6939 30.3727 63.6615 30.4331 63.6194 30.4881C63.7526 30.5243 63.8852 30.5605 64.0185 30.5967C63.9725 30.1125 63.8972 29.6321 63.7775 29.1607C63.657 28.6871 63.3264 28.1418 63.3611 27.6501C63.3731 27.4774 63.1178 27.4563 63.0696 27.6109H63.0689Z" fill="#EEE5DA"/>
<path d="M63.648 26.8061C63.8145 27.2768 63.9937 27.7474 64.1187 28.2316C64.179 28.4654 64.2279 28.7022 64.2625 28.9413C64.2964 29.1743 64.2814 29.3327 64.4365 29.5107C64.5005 29.5846 64.6278 29.5597 64.6737 29.4798C64.8831 29.1177 64.6323 28.491 64.5201 28.1207C64.368 27.6154 64.1609 27.1478 63.8469 26.7224C63.7798 26.6319 63.6036 26.6802 63.6488 26.8061H63.648Z" fill="#EEE5DA"/>
<path d="M64.7746 26.0791C64.566 26.4992 64.8973 26.9638 65.0231 27.3695C65.1052 27.635 65.1722 27.9042 65.2242 28.1773C65.2776 28.4616 65.2754 28.7603 65.4087 29.0204C65.4652 29.1298 65.6346 29.0989 65.6655 28.9865C65.7784 28.5755 65.5962 28.0709 65.4795 27.675C65.4139 27.4532 65.3379 27.2338 65.252 27.0196C65.1541 26.776 64.9147 26.4358 64.9975 26.1734C65.0389 26.0437 64.8371 25.9547 64.7746 26.0791Z" fill="#EEE5DA"/>
<path d="M65.6624 25.9094C65.7784 26.3747 65.9441 26.8257 66.0601 27.2911C66.1768 27.7609 66.2212 28.2398 66.3251 28.7105C66.3771 28.9458 66.7423 28.8907 66.7408 28.6539C66.7348 27.7247 66.3824 26.5897 65.8462 25.8317C65.7822 25.7412 65.6338 25.7932 65.6624 25.9094Z" fill="#EEE5DA"/>
<path d="M60.8654 31.3057C60.9068 31.8019 61.0989 32.2944 61.2126 32.7786C61.3376 33.3103 61.428 33.8473 61.5093 34.3873C61.5394 34.5864 61.8858 34.5419 61.864 34.339C61.8572 34.2764 61.8504 34.2131 61.8444 34.1505C61.8324 34.0381 61.6818 33.9747 61.6177 34.0886C61.5876 34.1414 61.5583 34.1942 61.5281 34.247C61.6381 34.2613 61.748 34.2757 61.858 34.29C61.7789 33.7515 61.6622 33.2175 61.5236 32.6919C61.3986 32.2167 61.2804 31.6812 61.0078 31.2664C60.9694 31.2076 60.8579 31.2242 60.8647 31.3049L60.8654 31.3057Z" fill="#EEE5DA"/>
<path d="M61.4957 30.9693C61.7194 31.4007 61.8971 31.8638 61.9882 32.3427C62.0537 32.6896 61.9566 33.2221 62.294 33.4295C62.376 33.48 62.4709 33.4287 62.5003 33.3457C62.5741 33.1353 62.489 32.9536 62.4483 32.7394C62.4009 32.4912 62.3474 32.2469 62.2623 32.0078C62.1132 31.5892 61.8933 31.2212 61.6087 30.8818C61.5544 30.8169 61.4603 30.8999 61.4965 30.9685L61.4957 30.9693Z" fill="#EEE5DA"/>
<path d="M58.3878 54.092C58.5324 54.6915 58.7448 55.2715 58.8773 55.8756C58.9406 56.166 58.9948 56.4586 59.0385 56.7527C59.0776 57.0182 59.0437 57.1924 59.2689 57.3486C59.3149 57.3802 59.3924 57.3689 59.4293 57.3282C59.5912 57.1472 59.543 56.9911 59.5091 56.7641C59.4587 56.4247 59.3947 56.0883 59.3186 55.7542C59.1785 55.1441 59.0159 54.5083 58.7275 53.9494C58.6281 53.7579 58.3404 53.8929 58.3886 54.0927L58.3878 54.092Z" fill="#EEE5DA"/>
<path d="M59.7076 53.3249C59.7224 53.3249 59.7224 53.3016 59.7076 53.3016C59.6928 53.3016 59.6928 53.3249 59.7076 53.3249Z" fill="#EEE5DA"/>
<path d="M59.5821 53.4275C59.8254 53.9449 60.0046 54.4857 60.1138 55.0468C60.1703 55.3364 60.2095 55.629 60.2283 55.9239C60.2418 56.1441 60.2147 56.2784 60.3834 56.4353C60.4422 56.4896 60.5348 56.4941 60.5928 56.4353C60.906 56.1177 60.6515 55.3175 60.5581 54.9246C60.4173 54.3348 60.1936 53.7707 59.9112 53.2352C59.7953 53.0158 59.479 53.2088 59.5821 53.4283V53.4275Z" fill="#EEE5DA"/>
<path d="M60.6749 52.8325C60.83 53.414 60.9618 54.0037 61.068 54.5958C61.1726 55.1803 61.15 55.8168 61.2976 56.387C61.3624 56.6374 61.6938 56.5582 61.7186 56.3297C61.7796 55.7716 61.5966 55.0981 61.4784 54.5535C61.3451 53.9389 61.1523 53.3468 60.9136 52.7654C60.8548 52.6213 60.6312 52.6718 60.6733 52.8317L60.6749 52.8325Z" fill="#EEE5DA"/>
<path d="M58.0535 67.8868C58.2041 68.5354 58.3517 69.1878 58.4594 69.8447C58.5181 70.203 58.5626 70.5635 58.5942 70.9255C58.6176 71.1992 58.5965 71.467 58.717 71.7166C58.781 71.8493 58.9662 71.7973 59.0076 71.6789C59.1055 71.3961 59.0227 71.0756 58.9858 70.7837C58.9444 70.4594 58.8939 70.1366 58.8322 69.8161C58.7019 69.1335 58.5189 68.4751 58.2583 67.831C58.2086 67.7073 58.0226 67.7511 58.0543 67.8876L58.0535 67.8868Z" fill="#EEE5DA"/>
<path d="M58.3819 66.518C58.4986 67.0701 58.735 67.5972 58.9052 68.1342C59.0882 68.7112 59.2306 69.2979 59.2637 69.9043C59.281 70.2203 59.7758 70.2218 59.7562 69.9043C59.7178 69.2753 59.5747 68.6735 59.3721 68.0777C59.1786 67.5113 58.9805 66.9132 58.6921 66.3868C58.5965 66.2118 58.3442 66.3347 58.3826 66.5172L58.3819 66.518Z" fill="#EEE5DA"/>
<path d="M58.9842 65.6763C59.2079 66.1394 59.3773 66.6288 59.5167 67.1243C59.5761 67.337 59.6266 67.5527 59.6703 67.7684C59.7177 68.0037 59.7162 68.2488 59.8488 68.4525C59.958 68.6191 60.2652 68.5173 60.1884 68.3092C60.1756 68.2752 60.1635 68.2405 60.1507 68.2066C60.1003 68.0686 59.9143 68.0633 59.8646 68.2066C59.8525 68.2405 59.8412 68.2752 59.8292 68.3092C59.9489 68.3424 60.0687 68.3755 60.1876 68.408C60.3262 67.9781 60.0619 67.3521 59.9173 66.9448C59.7403 66.4471 59.491 65.99 59.2079 65.5451C59.1175 65.4025 58.9112 65.5262 58.9842 65.6763Z" fill="#EEE5DA"/>
<path d="M59.6786 64.7524C59.7524 65.171 59.9128 65.5715 60.0785 65.9614C60.199 66.2457 60.3217 66.7427 60.6756 66.7955C60.7366 66.8046 60.7788 66.7804 60.8029 66.7231C60.9324 66.4131 60.6237 66.0662 60.4889 65.8C60.2953 65.4191 60.1447 65.0179 59.9504 64.6378C59.8691 64.4786 59.6522 64.5963 59.6793 64.7524H59.6786Z" fill="#EEE5DA"/>
<path d="M46.6407 71.0363C46.6264 71.6774 46.5948 72.3222 46.6091 72.964C46.6159 73.2597 46.8132 73.5561 47.1122 73.3102C47.2146 73.2265 47.1837 73.0327 47.0692 72.9761C47.0135 72.9482 46.9292 72.921 46.8734 72.9663C46.8245 72.9852 46.8493 72.998 46.948 73.0055C47.0557 73.0726 47.0865 73.0349 47.0414 72.8924C47.0715 72.7906 47.0414 72.6405 47.0414 72.5357C47.0414 72.0356 47.0293 71.5364 47.021 71.0363C47.0173 70.7905 46.6452 70.7905 46.64 71.0363H46.6407Z" fill="#EEE5DA"/>
<path d="M48.1769 70.8855C48.1709 71.3116 48.1656 71.737 48.1596 72.1631C48.1543 72.553 48.1129 72.958 48.1746 73.3434C48.2003 73.5025 48.4706 73.5033 48.4962 73.3434C48.558 72.9588 48.5165 72.5523 48.5113 72.1631C48.5052 71.737 48.5 71.3116 48.4939 70.8855C48.4909 70.6811 48.1792 70.6804 48.1761 70.8855H48.1769Z" fill="#EEE5DA"/>
<path d="M49.4383 70.6623C49.3607 71.2739 49.3502 71.881 49.3306 72.4972C49.311 73.1051 49.2146 73.7228 49.2252 74.3291C49.2304 74.618 49.6484 74.6119 49.6687 74.3291C49.6755 74.2371 49.6823 74.1451 49.6891 74.0531C49.7004 73.8962 49.488 73.8645 49.4127 73.9784C49.36 74.0584 49.308 74.1376 49.2553 74.2175C49.3901 74.2748 49.5256 74.3314 49.6612 74.3887C49.7817 73.7793 49.7659 73.1171 49.7742 72.498C49.7824 71.8682 49.7546 71.2543 49.6205 70.6389C49.5964 70.528 49.4503 70.568 49.4383 70.6638V70.6623Z" fill="#EEE5DA"/>
<path d="M50.6221 70.3712C50.7057 71.0009 50.7916 71.6352 50.8458 72.268C50.8722 72.5749 50.8895 72.8826 50.8985 73.1911C50.906 73.4664 50.8609 73.7401 50.9957 73.9868C51.0544 74.0954 51.2246 74.0954 51.2833 73.9868C51.4181 73.7371 51.3684 73.4671 51.3534 73.1911C51.336 72.8592 51.3074 72.5274 51.269 72.1971C51.1952 71.5605 51.0785 70.9481 50.8917 70.3342C50.8488 70.1932 50.6003 70.2105 50.6214 70.3712H50.6221Z" fill="#EEE5DA"/>
<path d="M51.952 70.071C52.1591 71.203 52.4265 72.2905 52.4717 73.4475C52.4822 73.7205 52.8979 73.8012 52.9642 73.5146C52.9988 73.363 53.0297 73.2257 53.0342 73.0704C53.0365 72.9927 52.9386 72.9286 52.8708 72.9769C52.7465 73.0643 52.6501 73.1601 52.5447 73.2702C52.6878 73.3298 52.8301 73.3886 52.9732 73.4482C52.925 72.2755 52.7503 71.0182 52.2081 69.9631C52.1313 69.813 51.9242 69.9231 51.9513 70.0717L51.952 70.071Z" fill="#EEE5DA"/>
<path d="M53.2601 70.2942C53.2804 70.8252 53.3896 71.3531 53.4717 71.8773C53.5628 72.4633 53.6216 73.0508 53.6886 73.6398C53.7263 73.9671 54.203 73.9852 54.212 73.6398C54.215 73.5063 54.2383 73.363 54.2444 73.2288C54.2527 73.0576 54.0169 73.0093 53.9334 73.1443C53.8588 73.265 53.8008 73.3894 53.724 73.5078C53.8867 73.5516 54.0486 73.5961 54.2112 73.6398C54.1088 72.5176 53.9725 71.2649 53.5267 70.2226C53.4695 70.0891 53.2548 70.1607 53.2601 70.295V70.2942Z" fill="#EEE5DA"/>
<path d="M54.5923 70.4292C54.581 70.9692 54.6224 71.4926 54.6857 72.0296C54.7482 72.5651 54.7761 73.1194 54.8905 73.6459C55.0306 73.5644 55.1707 73.483 55.31 73.4015C55.3122 73.3804 55.3145 73.3585 55.316 73.3374C55.3326 73.228 55.2324 73.1323 55.1255 73.1903C54.9839 73.268 54.9425 73.36 54.8898 73.5124C54.7693 73.86 55.4049 73.9536 55.383 73.5795C55.322 72.5199 55.0005 71.4836 54.8883 70.43C54.8687 70.2437 54.5961 70.2347 54.5916 70.43L54.5923 70.4292Z" fill="#EEE5DA"/>
<path d="M55.7114 70.6622C55.6994 71.1902 55.7996 71.7377 55.841 72.2649C55.8832 72.8034 55.8937 73.3419 55.9276 73.8804C55.9479 74.2009 56.4495 74.2024 56.4276 73.8804C56.4178 73.731 56.405 73.6662 56.344 73.5327C56.3079 73.4535 56.1957 73.4543 56.1399 73.5063C56.0353 73.6051 56.0255 73.6202 55.9615 73.7537C56.1166 73.7959 56.2717 73.8381 56.4276 73.8804C56.4306 73.32 56.3711 72.7476 56.2988 72.1917C56.2318 71.6759 56.1708 71.111 55.9818 70.6253C55.9276 70.4858 55.7152 70.4978 55.7114 70.6622Z" fill="#EEE5DA"/>
<path d="M56.6776 70.6532C56.7311 71.2965 56.7846 71.9391 56.8651 72.5794C56.9028 72.8758 56.9435 73.1722 56.9826 73.4686C57.018 73.7393 57.0014 73.9746 57.198 74.1737C57.268 74.2439 57.3991 74.2326 57.4473 74.1413C57.573 73.9037 57.5098 73.7424 57.4668 73.4776C57.4149 73.1579 57.3644 72.8381 57.3102 72.5183C57.2018 71.881 57.0677 71.2498 56.9322 70.6177C56.902 70.4767 56.6648 70.5054 56.6776 70.6524V70.6532Z" fill="#EEE5DA"/>
<path d="M57.4089 90.0148C57.2696 90.3202 57.305 90.5925 57.433 90.9009C57.613 91.3338 57.8381 91.7464 58.0151 92.1815C58.357 93.0232 58.61 93.8966 58.7825 94.788C58.8435 95.1018 59.3262 94.9698 59.2622 94.6553C59.1048 93.8762 58.8872 93.1122 58.601 92.3701C58.4715 92.0337 58.3306 91.7004 58.174 91.3761C58.0046 91.0254 57.6228 90.5751 57.7854 90.1739C57.8728 89.959 57.5053 89.8013 57.4081 90.0148H57.4089Z" fill="#EEE5DA"/>
<path d="M56.8531 92.3158C57.067 92.3113 57.2974 93.1884 57.3803 93.386C57.549 93.7895 57.7094 94.196 57.8615 94.6055C58 94.9796 58.1326 95.3559 58.2576 95.7353C58.3683 96.0701 58.4165 96.4774 58.659 96.7406C58.7441 96.8334 58.9451 96.7979 58.964 96.6599C59.0235 96.2278 58.7584 95.7489 58.6108 95.3461C58.4331 94.8604 58.2418 94.3793 58.0407 93.9026C57.8517 93.4539 57.6582 93.0066 57.4285 92.5775C57.2974 92.3331 57.1679 92.0186 56.8531 92.0141C56.6588 92.0111 56.6588 92.3211 56.8531 92.3166V92.3158Z" fill="#EEE5DA"/>
<path d="M56.5925 93.7518C56.4991 94.0799 56.5774 94.3853 56.701 94.6968C56.8892 95.1682 57.0556 95.6365 57.1611 96.1343C57.2552 96.58 57.2236 97.0559 57.3237 97.4933C57.3817 97.7475 57.5858 97.8825 57.826 97.7618C57.9623 97.6932 57.9751 97.4481 57.826 97.384C57.7424 97.3485 57.7515 96.9021 57.7312 96.7565C57.6822 96.4164 57.6122 96.0807 57.518 95.7504C57.4337 95.4548 57.3313 95.1659 57.2123 94.8831C57.0745 94.555 56.8184 94.2028 56.8787 93.831C56.908 93.6462 56.646 93.564 56.5925 93.7518Z" fill="#EEE5DA"/>
<path d="M55.893 94.7156C55.8756 95.2866 56.1656 95.7971 56.3282 96.3304C56.5135 96.9367 56.6234 97.5589 56.6656 98.1909C56.6859 98.5001 57.1739 98.4994 57.1476 98.1909C57.0979 97.6079 57 97.0325 56.8365 96.4699C56.6709 95.9012 56.2883 95.3099 56.2687 94.7149C56.2605 94.4728 55.9005 94.472 55.893 94.7149V94.7156Z" fill="#EEE5DA"/>
<path d="M55.106 95.9894C55.2973 96.5407 55.4735 97.0988 55.6143 97.6652C55.6821 97.9375 55.7416 98.212 55.7943 98.4873C55.8463 98.7603 55.8591 99.0431 55.9848 99.292C56.0707 99.461 56.3711 99.4316 56.4058 99.237C56.4977 98.7196 56.2725 98.0929 56.143 97.5913C55.9901 97 55.8003 96.4254 55.5661 95.862C55.4516 95.5874 55.0036 95.6915 55.1067 95.9887L55.106 95.9894Z" fill="#EEE5DA"/>
<path d="M54.4824 96.6057C54.3409 97.2422 54.6255 97.9564 54.7807 98.5673C54.9719 99.3207 55.1564 100.076 55.3598 100.825C55.4426 101.132 55.9125 101.003 55.835 100.694C55.4991 99.372 54.9652 98.0228 54.8778 96.6585C54.8642 96.4435 54.5344 96.3711 54.4824 96.6049V96.6057Z" fill="#EEE5DA"/>
<path d="M53.7888 98.0756C53.7918 98.068 53.7941 98.0612 53.7971 98.0537C53.8205 97.9903 53.7934 97.9066 53.7467 97.8614C53.6894 97.8063 53.6314 97.7761 53.5516 97.7829C53.4673 97.7905 53.3581 97.844 53.3445 97.9406C53.3076 98.206 53.5162 98.4466 53.6382 98.6691C53.8408 99.0387 54.0276 99.4165 54.1865 99.8064C54.3288 100.154 54.453 100.51 54.5615 100.87C54.6692 101.224 54.694 101.696 54.9049 102C54.9983 102.134 55.2423 102.138 55.2822 101.95C55.35 101.631 55.2189 101.295 55.1331 100.987C55.0254 100.603 54.8966 100.226 54.7452 99.8569C54.6112 99.5296 54.4651 99.2083 54.3024 98.8946C54.2211 98.7377 54.1368 98.5816 54.0471 98.4293C53.9907 98.3335 53.9327 98.2407 53.8709 98.148C53.8461 98.111 53.8212 98.074 53.7964 98.0378C53.7474 97.9375 53.7233 97.9692 53.7241 98.1321L53.5238 98.1849C53.5335 98.1872 53.5433 98.1887 53.5539 98.1909L53.4161 98.0529C53.4176 98.0605 53.4191 98.0673 53.4206 98.0748C53.462 98.2754 53.7278 98.2354 53.7881 98.0748L53.7888 98.0756Z" fill="#EEE5DA"/>
<path d="M52.6125 99.7401C52.8505 100.349 53.2007 100.919 53.4951 101.502C53.645 101.798 53.7926 102.096 53.9372 102.396C54.0742 102.679 54.1744 103.03 54.4116 103.242C54.5261 103.344 54.7407 103.281 54.7324 103.109C54.7188 102.826 54.566 102.597 54.441 102.347C54.2821 102.029 54.1202 101.712 53.9552 101.397C53.6412 100.796 53.3437 100.147 52.9363 99.6036C52.8279 99.4588 52.5319 99.5357 52.6118 99.7408L52.6125 99.7401Z" fill="#EEE5DA"/>
<path d="M52.1245 101.781C52.4981 102.305 52.91 102.805 53.209 103.379C53.3588 103.666 53.4756 103.968 53.5418 104.286C53.5908 104.521 53.5546 104.791 53.7986 104.912C54.0132 105.019 54.3032 104.79 54.1518 104.559C54.0539 104.409 54.066 104.092 54.008 103.904C53.9169 103.61 53.7866 103.325 53.636 103.058C53.3197 102.495 52.9115 101.983 52.471 101.514C52.3038 101.336 51.9784 101.574 52.126 101.781H52.1245Z" fill="#EEE5DA"/>
<path d="M51.5809 102.772C51.5643 103.027 51.7134 103.221 51.8309 103.436C51.9664 103.684 52.0937 103.935 52.2089 104.194C52.4567 104.751 52.6397 105.328 52.7662 105.924C52.8084 106.122 53.0787 106.18 53.2128 106.042C53.2331 106.021 53.2542 106 53.2745 105.979C53.3476 105.903 53.3641 105.784 53.3114 105.693C53.3024 105.678 53.2933 105.662 53.2843 105.647C53.2467 105.581 53.1751 105.561 53.1051 105.574C53.078 105.577 53.0509 105.582 53.0237 105.586C53.1096 105.651 53.1954 105.717 53.2813 105.783C53.142 105.168 52.9439 104.567 52.6751 103.997C52.4785 103.58 52.1796 102.818 51.7044 102.678C51.6396 102.659 51.5846 102.71 51.5801 102.772H51.5809Z" fill="#EEE5DA"/>
<path d="M58.4428 114.784C58.915 115.717 59.1733 116.596 59.1861 117.645C59.1891 117.919 59.5935 117.915 59.6093 117.645C59.6726 116.588 59.336 115.43 58.6665 114.61C58.5588 114.478 58.372 114.646 58.4421 114.783L58.4428 114.784Z" fill="#EEE5DA"/>
<path d="M58.8645 113.791C58.976 114.168 59.1944 114.513 59.3322 114.883C59.4723 115.258 59.5175 115.669 59.6658 116.037C59.7366 116.212 60.0122 116.204 60.0145 115.989C60.019 115.563 59.827 115.109 59.6651 114.721C59.5122 114.356 59.3412 113.957 59.046 113.684C58.9692 113.613 58.8329 113.682 58.8645 113.79V113.791Z" fill="#EEE5DA"/>
<path d="M49.6658 123.453C49.6477 123.747 49.6529 124.04 49.6725 124.335C49.6883 124.573 49.6695 124.8 49.8269 124.987C49.8849 125.056 50.0167 125.039 50.0558 124.958C50.1605 124.739 50.0875 124.516 50.0664 124.281C50.0415 124.005 50.0287 123.729 50.0099 123.453C49.9948 123.232 49.6793 123.231 49.6658 123.453V123.453Z" fill="#EEE5DA"/>
<path d="M50.8255 122.532C50.653 123.042 50.7502 123.738 50.824 124.264C50.8571 124.499 51.2419 124.441 51.2351 124.208C51.2193 123.688 51.19 122.983 50.9369 122.517C50.9106 122.469 50.842 122.484 50.8255 122.532V122.532Z" fill="#EEE5DA"/>
<path d="M51.3655 121.029C51.6117 121.723 51.7962 122.418 51.9845 123.129C52.0568 123.403 52.4394 123.281 52.3979 123.015C52.2857 122.286 52.0124 121.551 51.675 120.898C51.5884 120.73 51.3007 120.846 51.3655 121.029Z" fill="#EEE5DA"/>
<path d="M52.0356 118.978C52.2525 119.635 52.4092 120.323 52.547 121.001C52.6178 121.349 52.6434 121.705 52.7126 122.052C52.7488 122.234 52.7872 122.335 52.9664 122.403C53.0267 122.427 53.1065 122.4 53.1494 122.355C53.1585 122.346 53.1675 122.336 53.1765 122.327C53.2202 122.282 53.2421 122.213 53.2232 122.152C53.2187 122.137 53.2142 122.124 53.2104 122.109C53.1939 122.056 53.1494 122.001 53.0914 121.99C53.0817 121.989 53.0719 121.986 53.0621 121.985C52.9898 121.971 52.9039 122.004 52.8866 122.084C52.8851 122.092 52.8836 122.099 52.8821 122.106C52.8685 122.167 52.9002 122.242 52.9672 122.256C52.974 122.258 52.98 122.259 52.9868 122.26C52.9536 122.201 52.9205 122.143 52.8874 122.084C52.8753 122.129 52.8874 122.121 52.9228 122.06H53.1125C53.0214 122.01 52.9958 121.418 52.9755 121.315C52.9182 121.019 52.852 120.724 52.7669 120.435C52.6125 119.908 52.3934 119.421 52.1569 118.927C52.1245 118.859 52.0123 118.906 52.0356 118.978Z" fill="#EEE5DA"/>
<path d="M52.7263 117.884C52.9951 117.91 53.264 118.5 53.3717 118.717C53.523 119.023 53.6262 119.351 53.7136 119.681C53.9026 120.393 54.0374 121.121 54.1986 121.84C54.2407 122.029 54.496 122.039 54.5902 121.891C54.6753 121.758 54.6722 121.654 54.6037 121.515C54.5563 121.418 54.4215 121.455 54.3906 121.543C54.3763 121.554 54.362 121.565 54.3477 121.576C54.4358 121.626 54.5239 121.676 54.6112 121.726C54.4041 120.802 54.2475 119.829 53.9018 118.944C53.7573 118.574 53.2271 117.346 52.6683 117.672C52.5636 117.733 52.6194 117.874 52.7255 117.884L52.7263 117.884Z" fill="#EEE5DA"/>
<path d="M54.0193 117.356C54.3093 118.079 54.6301 118.797 54.8831 119.534C55.0111 119.907 55.1196 120.294 55.158 120.688C55.1843 120.958 55.0736 121.351 55.3071 121.545C55.3997 121.622 55.542 121.643 55.6324 121.545C55.6407 121.536 55.6497 121.526 55.658 121.517C55.7416 121.427 55.7356 121.305 55.658 121.213C55.652 121.207 55.646 121.2 55.6407 121.193C55.5887 121.131 55.4878 121.128 55.4215 121.164C55.4163 121.167 55.4102 121.17 55.405 121.173C55.35 121.204 55.3056 121.29 55.3319 121.353C55.3342 121.358 55.3364 121.363 55.3387 121.369C55.3666 121.301 55.3944 121.232 55.4215 121.164C55.4374 121.161 55.4539 121.156 55.4697 121.152C55.536 121.19 55.6023 121.228 55.6678 121.266C55.6188 121.179 55.6655 120.931 55.6572 120.826C55.6452 120.667 55.6234 120.507 55.594 120.35C55.5224 119.96 55.3974 119.581 55.2536 119.212C54.9885 118.532 54.6624 117.876 54.3529 117.215C54.2663 117.03 53.9418 117.163 54.0193 117.356Z" fill="#EEE5DA"/>
<path d="M55.2069 117.192C55.4848 117.801 55.6994 118.454 55.8861 119.097C55.9712 119.392 56.0518 119.688 56.1211 119.987C56.1874 120.275 56.2039 120.597 56.3531 120.854C56.4299 120.986 56.6799 120.979 56.7062 120.808C56.7559 120.487 56.646 120.176 56.5639 119.865C56.4803 119.545 56.3862 119.228 56.277 118.916C56.0488 118.269 55.7634 117.661 55.4268 117.064C55.3447 116.918 55.1406 117.046 55.2076 117.192H55.2069Z" fill="#EEE5DA"/>
<path d="M56.5639 116.93C56.4569 117.543 56.7604 118.041 56.9494 118.605C57.0564 118.924 57.1339 119.252 57.1769 119.585C57.2235 119.942 57.1844 120.305 57.2318 120.659C57.2642 120.903 57.6415 121.016 57.7048 120.723C57.8305 120.148 57.6716 119.436 57.5044 118.883C57.3177 118.264 56.8109 117.619 56.8335 116.966C56.8387 116.814 56.5902 116.774 56.5631 116.93H56.5639Z" fill="#EEE5DA"/>
<path d="M12.0626 145.193C11.9233 145.477 12.092 145.739 12.1876 146.022C12.2991 146.352 12.4151 146.679 12.5325 147.007C12.65 147.334 12.7675 147.662 12.8842 147.989C12.9754 148.244 13.0092 148.442 13.2683 148.55C13.3745 148.595 13.5048 148.52 13.5597 148.431C13.5665 148.421 13.5733 148.409 13.5801 148.399C13.7405 148.142 13.3926 147.918 13.184 148.093C13.1742 148.101 13.1644 148.109 13.1538 148.118C13.2578 148.104 13.3624 148.09 13.4664 148.077C13.4084 148.044 13.3632 147.788 13.3346 147.709C13.2834 147.569 13.2322 147.43 13.1802 147.289C13.0778 147.01 12.9754 146.729 12.8722 146.449C12.7683 146.169 12.6598 145.891 12.5514 145.612C12.4685 145.398 12.4482 145.245 12.2313 145.148C12.1733 145.122 12.0935 145.126 12.0611 145.192L12.0626 145.193Z" fill="#EEE5DA"/>
<path d="M13.0981 145.315C13.2721 145.813 13.434 146.318 13.5876 146.823C13.6614 147.065 13.7307 147.309 13.7954 147.554C13.8504 147.762 13.8504 147.9 14.0522 147.992C14.111 148.018 14.1622 148.004 14.2006 147.952C14.3354 147.774 14.2676 147.645 14.2111 147.439C14.1381 147.173 14.0598 146.907 13.9762 146.644C13.818 146.144 13.626 145.66 13.4174 145.179C13.3391 144.998 13.0326 145.127 13.0981 145.314V145.315Z" fill="#EEE5DA"/>
<path d="M14.3746 144.914C14.5839 145.344 14.782 145.783 14.9853 146.217C15.1826 146.639 15.3091 147.144 15.5727 147.525C15.6872 147.692 15.9274 147.587 15.892 147.39C15.8137 146.948 15.5207 146.5 15.3136 146.104C15.0772 145.653 14.8106 145.245 14.5169 144.831C14.4559 144.745 14.3286 144.818 14.3753 144.914H14.3746Z" fill="#EEE5DA"/>
<path d="M16.1466 144.485C16.3055 144.889 16.5171 145.268 16.6482 145.684C16.7898 146.132 16.8756 146.59 16.9012 147.059C16.9133 147.276 17.2521 147.277 17.2401 147.059C17.1896 146.147 16.9449 145.077 16.2882 144.402C16.2325 144.344 16.1143 144.402 16.1466 144.484V144.485Z" fill="#EEE5DA"/>
<path d="M17.5864 143.941C17.8545 144.906 18.0624 145.938 18.4555 146.86C18.5308 147.038 18.7846 146.904 18.7507 146.736C18.5572 145.767 18.146 144.808 17.8267 143.875C17.7755 143.725 17.5435 143.785 17.5864 143.942V143.941Z" fill="#EEE5DA"/>
<path d="M18.8952 143.271C19.033 143.911 19.1709 144.549 19.3087 145.189C19.4329 145.765 19.4834 146.467 19.7507 146.995C19.8403 147.171 20.1084 147.08 20.1107 146.896C20.119 146.305 19.8516 145.651 19.7093 145.078C19.5519 144.445 19.3945 143.81 19.2371 143.177C19.1821 142.954 18.847 143.049 18.8952 143.271Z" fill="#EEE5DA"/>
<path d="M20.4963 144.02C20.5897 144.55 20.6838 145.08 20.7847 145.608C20.8299 145.848 20.8758 146.089 20.921 146.329C20.97 146.586 20.9805 146.859 21.1349 147.075C21.2162 147.19 21.4241 147.194 21.4595 147.033C21.5574 146.583 21.3156 146.008 21.217 145.565C21.095 145.018 20.9677 144.472 20.8382 143.926C20.7847 143.7 20.4571 143.798 20.4963 144.02Z" fill="#EEE5DA"/>
<path d="M22.0145 143.967C22.0183 144.559 22.0514 145.142 22.1388 145.728C22.2224 146.29 22.2962 146.927 22.5364 147.447C22.6192 147.626 22.9393 147.543 22.916 147.344C22.8534 146.811 22.6629 146.287 22.5665 145.757C22.4588 145.166 22.379 144.566 22.3331 143.967C22.3173 143.766 22.0145 143.76 22.0153 143.967H22.0145Z" fill="#EEE5DA"/>
<path d="M23.5643 144.563C23.5424 145.072 23.6185 145.495 23.7465 145.989C23.8843 146.519 24.0229 147.054 23.919 147.603C23.867 147.877 24.2857 147.994 24.3377 147.719C24.5485 146.605 23.8934 145.646 23.8188 144.563C23.8075 144.4 23.5718 144.398 23.565 144.563H23.5643Z" fill="#EEE5DA"/>
<path d="M25.1156 144.939C25.1804 145.471 25.346 145.961 25.4997 146.474C25.6638 147.021 25.7256 147.548 25.8039 148.11C25.8378 148.355 26.1744 148.259 26.1993 148.056C26.2648 147.524 26.0795 146.93 25.9146 146.43C25.7406 145.902 25.5328 145.393 25.3084 144.887C25.2677 144.796 25.1035 144.839 25.1164 144.939H25.1156Z" fill="#EEE5DA"/>
<path d="M26.6068 144.807C26.4833 145.295 26.8704 145.768 27.036 146.207C27.2522 146.782 27.3305 147.376 27.5097 147.956C27.5888 148.213 27.9827 148.17 27.9827 147.892C27.9842 147.353 27.7725 146.762 27.5692 146.268C27.3712 145.787 26.9675 145.32 26.8674 144.808C26.841 144.675 26.6384 144.684 26.6068 144.808V144.807Z" fill="#EEE5DA"/>
<path d="M28.4427 145C28.6641 145.556 28.8938 146.094 29.0007 146.688C29.058 147.004 29.0851 147.327 29.0866 147.648C29.0881 147.921 29.0346 148.194 29.0805 148.464C29.1069 148.616 29.3614 148.655 29.4239 148.509C29.6514 147.983 29.5339 147.251 29.4292 146.702C29.308 146.069 29.0881 145.411 28.6987 144.893C28.6129 144.778 28.3779 144.839 28.4419 145.001L28.4427 145Z" fill="#EEE5DA"/>
<path d="M30.116 144.924C30.0068 145.152 30.0415 145.325 30.1311 145.554C30.2636 145.897 30.4082 146.231 30.5129 146.585C30.6251 146.963 30.7087 147.351 30.7584 147.742C30.7968 148.043 30.7509 148.375 30.9 148.643C30.9527 148.738 31.1153 148.749 31.165 148.643C31.3857 148.177 31.1349 147.358 31.0122 146.875C30.9331 146.564 30.8337 146.257 30.7147 145.958C30.6085 145.691 30.3111 145.313 30.3578 145.025C30.3796 144.89 30.1861 144.776 30.116 144.924V144.924Z" fill="#EEE5DA"/>
<path d="M31.6877 145.113C31.766 145.711 31.9844 146.286 32.0906 146.881C32.2103 147.547 32.178 148.2 32.2254 148.869C32.242 149.101 32.6223 149.192 32.6622 148.928C32.7593 148.288 32.6675 147.597 32.5598 146.963C32.4506 146.322 32.2977 145.587 31.9091 145.052C31.8489 144.969 31.6696 144.981 31.687 145.112L31.6877 145.113Z" fill="#EEE5DA"/>
<path d="M33.5448 145.63C33.5403 146.237 33.6841 146.855 33.7172 147.464C33.7481 148.029 33.6427 148.672 33.7639 149.22C33.8061 149.412 34.0787 149.391 34.1314 149.22C34.2986 148.676 34.1826 147.952 34.1374 147.393C34.0908 146.808 34.0621 146.14 33.8513 145.588C33.791 145.43 33.5455 145.442 33.5448 145.629V145.63Z" fill="#EEE5DA"/>
<path d="M35.0517 145.781C35.1301 146.378 35.2061 146.979 35.2385 147.58C35.2716 148.187 35.2272 148.789 35.2295 149.395C35.2302 149.63 35.6218 149.703 35.6557 149.453C35.8206 148.246 35.6775 146.909 35.3582 145.74C35.3138 145.576 35.0276 145.602 35.0517 145.781Z" fill="#EEE5DA"/>
<path d="M36.1949 145.4C36.2498 145.946 36.3929 146.48 36.4464 147.028C36.4999 147.58 36.5044 148.131 36.4818 148.684C36.4712 148.946 36.8749 149 36.9374 148.746C36.9901 148.534 37.0503 148.324 37.0488 148.104C37.0481 148.01 36.9261 147.953 36.8591 148.026C36.7115 148.186 36.6166 148.375 36.5134 148.567C36.6572 148.606 36.8018 148.645 36.9457 148.684C36.9818 147.605 36.9291 146.324 36.4961 145.319C36.4336 145.173 36.1798 145.245 36.1949 145.4Z" fill="#EEE5DA"/>
<path d="M37.5316 145.053C37.7906 145.621 37.9676 146.238 38.018 146.862C38.0391 147.126 38.0391 147.392 38.018 147.657C38.0015 147.858 37.9322 148.044 38.1016 148.192C38.201 148.279 38.3532 148.271 38.4247 148.151C38.4752 148.066 38.4669 147.963 38.3878 147.901C38.3027 147.835 38.1897 147.876 38.18 147.987C38.1792 147.997 38.1785 148.007 38.1769 148.016C38.2349 147.972 38.2929 147.928 38.3502 147.884C38.4526 147.959 38.4902 147.927 38.4624 147.789C38.4691 147.724 38.4737 147.657 38.4767 147.591C38.4842 147.458 38.4857 147.326 38.4819 147.194C38.4744 146.931 38.4465 146.668 38.4006 146.41C38.3035 145.868 38.0994 145.358 37.82 144.886C37.7085 144.697 37.4442 144.862 37.5323 145.055L37.5316 145.053Z" fill="#EEE5DA"/>
<path d="M38.7161 145.021C39.0512 145.579 39.2387 146.214 39.2244 146.868C39.2154 147.274 39.0369 147.909 39.4812 148.151C39.6032 148.217 39.7937 148.136 39.7802 147.979C39.7591 147.736 39.6793 147.519 39.6838 147.271C39.6891 146.977 39.6958 146.694 39.6537 146.402C39.5716 145.833 39.3509 145.31 39.0218 144.841C38.8931 144.657 38.5956 144.821 38.7153 145.02L38.7161 145.021Z" fill="#EEE5DA"/>
<path d="M40.7645 144.685C40.7239 144.628 40.6824 144.571 40.6418 144.513C40.5009 144.293 40.1485 144.499 40.2916 144.718C40.5243 145.076 40.7133 145.435 40.8255 145.849C40.9392 146.27 40.9046 146.666 40.943 147.09C40.9603 147.284 41.1877 147.406 41.3399 147.255C41.4099 147.185 41.437 147.152 41.4807 147.064C41.5515 146.921 41.4355 146.764 41.2774 146.799C41.1817 146.82 41.1426 146.838 41.0582 146.89C41.1719 146.977 41.2856 147.065 41.3994 147.152C41.6388 146.267 41.1847 145.137 40.6101 144.472C40.5281 144.578 40.446 144.684 40.3646 144.791C40.4407 144.829 40.5107 144.875 40.5762 144.93C40.7291 145.044 40.8684 144.811 40.7653 144.684L40.7645 144.685Z" fill="#EEE5DA"/>
<path d="M42.169 144.005C42.364 144.478 42.5026 144.974 42.5688 145.482C42.5975 145.702 42.617 145.924 42.6231 146.145C42.6283 146.374 42.5877 146.559 42.7074 146.762C42.7767 146.878 42.9228 146.86 42.9951 146.762C43.2466 146.424 43.0847 145.743 43.0019 145.357C42.8912 144.839 42.6984 144.353 42.4446 143.889C42.3648 143.742 42.1027 143.844 42.169 144.005Z" fill="#EEE5DA"/>
<path d="M43.4522 143.646C43.5877 144.555 43.6608 145.439 43.6841 146.358C43.6894 146.558 44.0049 146.685 44.0953 146.47C44.13 146.388 44.1488 146.345 44.1638 146.259C44.1812 146.157 44.1066 146.082 44.0042 146.099C43.9477 146.102 43.895 146.117 43.846 146.145C43.9394 146.216 44.0321 146.287 44.1254 146.359C44.1804 145.436 44.0524 144.438 43.7685 143.559C43.7022 143.353 43.4213 143.442 43.4522 143.647V143.646Z" fill="#EEE5DA"/>
<path d="M44.6857 143.016C44.8694 143.607 45.0072 144.224 45.0697 144.84C45.0976 145.113 45.1096 145.388 45.1066 145.663C45.1036 145.912 45.023 146.221 45.1202 146.455C45.1631 146.558 45.2286 146.611 45.3401 146.623C45.4267 146.632 45.4771 146.617 45.5479 146.566C45.5969 146.531 45.6451 146.475 45.6383 146.409L45.633 146.361C45.6202 146.243 45.5155 146.178 45.4056 146.231C45.5344 146.255 45.5803 146.203 45.5434 146.074C45.5479 145.983 45.5509 145.891 45.5524 145.8C45.554 145.663 45.5524 145.525 45.5457 145.387C45.5336 145.117 45.505 144.846 45.4643 144.578C45.3755 143.992 45.1917 143.443 44.9417 142.907C44.8739 142.762 44.6382 142.865 44.6849 143.015L44.6857 143.016Z" fill="#EEE5DA"/>
<path d="M46.0563 142.803C46.1843 143.439 46.3244 144.068 46.3974 144.714C46.4321 145.021 46.4539 145.329 46.4697 145.637C46.481 145.862 46.4245 146.185 46.5164 146.396C46.6226 146.642 46.9863 146.697 47.1482 146.473C47.3207 146.234 47.0993 145.921 46.8252 145.953C46.7596 145.961 46.6798 145.985 46.6504 146.053C46.6263 146.111 46.6143 146.156 46.6068 146.217C46.597 146.298 46.6889 146.343 46.7544 146.329C46.7039 146.326 46.7122 146.335 46.7792 146.355C46.9072 146.258 46.9554 146.137 46.9246 145.993C46.9344 145.858 46.9148 145.701 46.9057 145.565C46.8869 145.261 46.8538 144.959 46.8139 144.657C46.7265 144 46.6083 143.339 46.3989 142.709C46.3266 142.491 46.0118 142.58 46.057 142.803H46.0563Z" fill="#EEE5DA"/>
<path d="M47.2589 142.386C47.2627 143.114 47.3756 143.843 47.4532 144.566C47.4894 144.905 47.5285 145.244 47.5684 145.583C47.6031 145.874 47.5586 146.224 47.8034 146.417C47.8862 146.482 47.9773 146.47 48.0406 146.386C48.2281 146.135 48.0948 145.807 48.0542 145.517C48.006 145.179 47.9563 144.842 47.905 144.504C47.7951 143.785 47.7175 143.052 47.5345 142.348C47.4946 142.195 47.2582 142.227 47.2589 142.386V142.386Z" fill="#EEE5DA"/>
<path d="M14.2677 120.135C14.2474 121.087 14.2662 122.038 14.2767 122.991C14.282 123.455 14.285 123.919 14.2918 124.382C14.2963 124.653 14.2007 125.113 14.4816 125.271C14.5652 125.318 14.6699 125.304 14.7391 125.238C14.8521 125.128 14.8378 124.987 14.7165 124.897C14.6458 124.844 14.517 124.897 14.5027 124.984C14.5012 124.993 14.4997 125.002 14.4982 125.01C14.5358 124.972 14.5742 124.934 14.6119 124.896C14.6683 124.92 14.7248 124.944 14.7806 124.968C14.7798 124.919 14.7783 124.871 14.7775 124.822C14.7949 124.735 14.773 124.619 14.7708 124.53C14.7655 124.31 14.758 124.09 14.7504 123.87C14.7369 123.456 14.7233 123.041 14.7098 122.625C14.6827 121.795 14.6601 120.964 14.6058 120.136C14.5915 119.919 14.2715 119.915 14.267 120.136L14.2677 120.135Z" fill="#EEE5DA"/>
<path d="M15.3325 122.515C15.2331 123.017 15.1714 123.506 15.1307 124.017C15.0968 124.444 14.9402 125.037 15.1345 125.428C15.197 125.555 15.3724 125.533 15.441 125.428C15.6684 125.082 15.5818 124.494 15.5999 124.091C15.6225 123.57 15.6217 123.067 15.5818 122.549C15.572 122.415 15.3619 122.365 15.3325 122.515Z" fill="#EEE5DA"/>
<path d="M16.1797 124.184C16.0531 124.613 15.9974 125.063 15.9658 125.509C15.95 125.73 15.9703 126.049 16.2655 126.04C16.3476 126.038 16.3996 125.988 16.4282 125.916C16.4319 125.907 16.4349 125.898 16.4387 125.89C16.4538 125.853 16.4372 125.794 16.4071 125.769C16.2806 125.668 16.3852 125.14 16.3883 124.988C16.3943 124.717 16.3807 124.453 16.3431 124.184C16.331 124.097 16.2015 124.111 16.1797 124.184Z" fill="#EEE5DA"/>
<path d="M8.01195 105.706C8.1347 106.286 8.21453 106.878 8.22582 107.471C8.23109 107.754 8.21227 108.033 8.19495 108.315C8.18365 108.501 8.1603 108.606 8.29812 108.744C8.35686 108.803 8.46906 108.826 8.54061 108.776C8.62947 108.714 8.65959 108.664 8.66787 108.555C8.67164 108.504 8.63549 108.44 8.58955 108.418C8.57976 108.413 8.56922 108.408 8.55943 108.403C8.44572 108.349 8.32222 108.438 8.34933 108.565C8.35158 108.575 8.35384 108.586 8.3561 108.597L8.42915 108.418C8.45024 108.415 8.47132 108.413 8.49316 108.409L8.63323 108.55C8.55868 108.354 8.64453 108.032 8.64679 107.823C8.6498 107.565 8.63926 107.306 8.61667 107.049C8.57374 106.559 8.47735 106.087 8.33502 105.617C8.27251 105.411 7.96902 105.497 8.01346 105.706L8.01195 105.706Z" fill="#EEE5DA"/>
<path d="M9.12122 105.421C9.17092 106.546 9.31174 107.691 9.46913 108.805C9.50528 109.065 9.86525 109.005 9.93604 108.805C9.99553 108.637 10.0392 108.472 10.043 108.294C10.0452 108.179 9.91194 108.145 9.83513 108.208C9.69581 108.322 9.59038 108.468 9.49399 108.619C9.6446 108.66 9.79446 108.701 9.94507 108.741C9.83362 107.621 9.69807 106.476 9.48043 105.373C9.44052 105.171 9.11218 105.216 9.12197 105.421H9.12122Z" fill="#EEE5DA"/>
<path d="M10.6522 104.949C10.9293 106.071 11.0679 107.193 11.1469 108.342C11.1635 108.582 11.5544 108.675 11.5965 108.403C11.6056 108.327 11.6199 108.252 11.641 108.178C11.6658 108.073 11.5438 107.952 11.4429 108.026C11.3857 108.071 11.3247 108.11 11.2607 108.145C11.3751 108.211 11.4903 108.277 11.6048 108.343C11.5739 107.166 11.3337 105.979 10.9685 104.863C10.903 104.662 10.601 104.743 10.6522 104.95V104.949Z" fill="#EEE5DA"/>
<path d="M12.0988 104.752C12.1598 105.375 12.3255 105.99 12.4084 106.612C12.4957 107.271 12.5183 107.926 12.5221 108.589C12.5236 108.81 12.8346 108.976 12.9912 108.784C13.1931 108.537 13.3279 108.27 13.2669 107.946C13.2412 107.811 13.0711 107.823 13.0055 107.912C12.876 108.085 12.7691 108.253 12.6026 108.394C12.7593 108.458 12.9159 108.523 13.0718 108.588C13.0839 107.917 13.0198 107.243 12.9182 106.58C12.821 105.946 12.6817 105.245 12.385 104.672C12.3172 104.542 12.0838 104.597 12.0988 104.75V104.752Z" fill="#EEE5DA"/>
<path d="M13.2977 104.441C13.5869 105.752 13.7924 107.057 13.9837 108.385C14.0221 108.65 14.3716 108.621 14.4936 108.452C14.6276 108.267 14.7654 108.103 14.8415 107.885C14.8912 107.743 14.7037 107.59 14.5771 107.682C14.4122 107.801 14.2804 107.955 14.1117 108.07C14.2518 108.151 14.3919 108.231 14.532 108.311C14.4506 106.973 14.1336 105.593 13.6704 104.338C13.5846 104.107 13.2435 104.195 13.2977 104.441Z" fill="#EEE5DA"/>
<path d="M14.5372 103.88C14.407 104.651 14.7933 105.307 14.8663 106.057C14.9416 106.828 14.7157 107.659 15.0207 108.397C15.1164 108.627 15.4718 108.683 15.5464 108.397C15.5885 108.234 15.6149 108.084 15.6187 107.915C15.6224 107.706 15.3656 107.676 15.2587 107.817C15.1676 107.939 15.1096 108.047 15.0486 108.186C15.2143 108.208 15.3807 108.23 15.5464 108.251C15.3468 107.521 15.4537 106.795 15.3498 106.056C15.2474 105.326 14.776 104.663 14.8129 103.917C14.8204 103.761 14.5636 103.721 14.5372 103.879V103.88Z" fill="#EEE5DA"/>
<path d="M15.5358 104.44C15.6013 105.053 15.6556 105.666 15.7233 106.278C15.7873 106.856 15.7986 107.475 15.9425 108.038C15.9884 108.219 16.2512 108.306 16.38 108.154C16.5035 108.007 16.5299 107.881 16.5412 107.691C16.5479 107.581 16.3973 107.522 16.3243 107.601C16.2618 107.669 16.1466 107.706 16.063 107.742C16.194 107.817 16.3258 107.893 16.4568 107.968C16.4387 107.386 16.2791 106.789 16.1812 106.215C16.0773 105.608 15.9598 105.004 15.8529 104.397C15.822 104.22 15.5162 104.258 15.5358 104.44Z" fill="#EEE5DA"/>
<path d="M16.7181 104.378C16.7219 105.166 16.862 106.016 17.0683 106.775C17.1504 107.077 17.5781 106.946 17.5277 106.648C17.3989 105.884 17.2009 105.074 16.9207 104.351C16.8808 104.248 16.7174 104.255 16.7181 104.378Z" fill="#EEE5DA"/>
<path d="M1.68391 97.9571C1.78859 97.9096 1.89251 97.8621 1.99719 97.8138C1.90984 97.7633 1.82248 97.7135 1.73437 97.663C1.72985 98.1811 1.85787 98.7091 1.90607 99.2257C1.95502 99.7506 1.98062 100.277 1.9874 100.804C1.99192 101.162 2.48518 101.14 2.52735 100.804C2.5522 100.608 2.44452 100.529 2.257 100.533L2.52735 100.804C2.50702 100.228 2.46033 99.6548 2.38276 99.0831C2.31499 98.5801 2.25775 98.0454 2.05894 97.5755C2.01752 97.4775 1.85034 97.4594 1.78483 97.5401C1.71253 97.6291 1.64024 97.718 1.56719 97.8078C1.49791 97.893 1.58225 98.0039 1.68241 97.9579L1.68391 97.9571Z" fill="#EEE5DA"/>
<path d="M3.03487 98.0627C2.8948 98.5477 2.96936 99.0304 3.06274 99.5191C3.17193 100.088 3.26155 100.619 3.20808 101.201C3.18398 101.464 3.53943 101.504 3.66369 101.325C3.76535 101.178 3.81204 101.046 3.77665 100.872C3.75857 100.784 3.65314 100.778 3.59516 100.824C3.53115 100.879 3.46186 100.926 3.38731 100.965L3.68778 101.266C3.8866 100.223 3.36547 99.1458 3.32029 98.102C3.31351 97.9398 3.08081 97.9013 3.03412 98.0635L3.03487 98.0627Z" fill="#EEE5DA"/>
<path d="M3.92871 98.2686C3.93624 98.8547 4.05899 99.4482 4.14936 100.026C4.1953 100.321 4.24651 100.616 4.29546 100.911C4.33989 101.178 4.32784 101.325 4.54774 101.482C4.61325 101.529 4.6991 101.489 4.73977 101.432C4.88059 101.231 4.82035 101.088 4.77968 100.854C4.72847 100.56 4.67877 100.265 4.62605 99.9716C4.52138 99.3916 4.43929 98.7853 4.25178 98.2249C4.19455 98.0545 3.9272 98.0756 3.92946 98.2686H3.92871Z" fill="#EEE5DA"/>
<path d="M5.20828 99.771C5.16912 100.169 5.13222 100.562 5.11641 100.962C5.10436 101.27 5.02227 101.587 5.23238 101.835C5.28057 101.892 5.39052 101.892 5.43797 101.835C5.64807 101.587 5.56524 101.271 5.55394 100.962C5.53888 100.562 5.50122 100.169 5.46206 99.771C5.44625 99.6073 5.22409 99.6073 5.20753 99.771H5.20828Z" fill="#EEE5DA"/>
<path d="M1.82846 79.1386L1.73583 79.0836C1.67333 78.9252 1.43009 78.8927 1.38038 79.0836C1.26742 79.5187 1.33671 80.0052 1.348 80.4509C1.36005 80.9147 1.37285 81.3786 1.38716 81.8424C1.40147 82.3062 1.41502 82.77 1.43385 83.2331C1.44515 83.5167 1.43235 83.8191 1.75466 83.9149C1.98359 83.9835 2.11538 83.7354 2.03556 83.5491C2.00844 83.4858 1.97305 83.4744 1.95799 83.4194C1.91808 83.2716 1.95573 83.0272 1.9482 82.8666C1.92937 82.4276 1.90904 81.9879 1.89021 81.549C1.87289 81.1342 1.85632 80.7194 1.84051 80.3046C1.82545 79.9034 1.85858 79.4689 1.73433 79.0836C1.65902 79.159 1.58296 79.2344 1.50765 79.3106C1.59501 79.3272 1.67408 79.3619 1.76068 79.3792C1.91958 79.4109 1.97531 79.1967 1.82695 79.1386H1.82846Z" fill="#EEE5DA"/>
<path d="M2.83232 80.3234C2.52054 80.7344 2.50021 81.2737 2.4362 81.7662C2.39629 82.0724 2.36842 82.3801 2.33755 82.687C2.32475 82.8115 2.32023 83.528 2.23287 83.5732C2.14024 83.6215 2.12819 83.7897 2.23287 83.8341C2.79014 84.0717 2.71032 83.046 2.73442 82.7579C2.76605 82.3801 2.79993 82.003 2.81951 81.6244C2.83985 81.2382 2.77734 80.7503 2.97841 80.4086C3.03565 80.3121 2.89633 80.2382 2.83232 80.3226V80.3234Z" fill="#EEE5DA"/>
</g>
<defs>
<clipPath id="clip0_5_638">
<rect width="164" height="150" fill="white"/>
</clipPath>
</defs>
</svg>
