<svg width="88" height="99" viewBox="0 0 88 99" fill="none" xmlns="http://www.w3.org/2000/svg">
<g clip-path="url(#clip0_5_774)">
<path d="M61.5444 24.4636C63.9032 14.3673 57.7137 4.25095 47.7197 1.86801C37.7257 -0.514928 27.7118 5.73797 25.353 15.8342C22.9942 25.9305 29.1838 36.0469 39.1777 38.4299C49.1717 40.8128 59.1856 34.5599 61.5444 24.4636Z" stroke="#EEE5DA" stroke-width="2" stroke-miterlimit="10"/>
<path d="M27.9233 38.4183L12.2955 45.5084C7.77992 47.5557 4.63803 51.8427 4.02598 56.8168L1.41454 78.087C0.856887 82.6763 4.39321 86.7298 8.97683 86.7298H35.0232V76.6168L23.0405 73.2504C19.6538 72.3023 17.3008 69.1832 17.3008 65.6244V64.5939" stroke="#EEE5DA" stroke-width="2" stroke-miterlimit="10"/>
<path d="M52.9768 79.8458V76.6168L64.9595 73.2504C68.3462 72.3023 70.6992 69.1832 70.6992 65.6244V64.5939" stroke="#EEE5DA" stroke-width="2" stroke-miterlimit="10"/>
<path d="M60.0767 38.4183L75.7045 45.5084C80.2201 47.5557 83.362 51.8427 83.974 56.8168L86.5855 78.087C87.1431 82.6763 83.6068 86.7298 79.0232 86.7298H72.3178" stroke="#EEE5DA" stroke-width="2" stroke-miterlimit="10"/>
<path d="M24.0878 40.2596L27.148 48.8199" stroke="#EEE5DA" stroke-width="2" stroke-miterlimit="10"/>
<path d="M62.7969 40.2596L59.7366 48.8199" stroke="#EEE5DA" stroke-width="2" stroke-miterlimit="10"/>
<path d="M23.6934 97.626H63.205" stroke="#EEE5DA" stroke-width="2" stroke-miterlimit="10"/>
<path d="M55.1258 86.7298H23.9653V93.2977H55.1258V86.7298Z" stroke="#EEE5DA" stroke-width="2" stroke-miterlimit="10"/>
<path d="M79.0232 81.2611V75.7924C57.7372 75.7924 54.4594 86.7298 54.4594 86.7298H79.0232" stroke="#EEE5DA" stroke-width="2" stroke-miterlimit="10"/>
<path d="M34.0983 78.0458L40.5317 76.3695C43.4015 75.6138 46.4618 76.3695 48.6652 78.3893C50.4878 80.0519 50.8686 82.7863 49.5765 84.9023L48.434 86.7573H35.0232" stroke="#EEE5DA" stroke-width="2" stroke-miterlimit="10"/>
<path d="M40.9805 62.9725L44.4624 76.2458" stroke="#EEE5DA" stroke-width="2" stroke-miterlimit="10"/>
<path d="M51.8615 44.7939L43.4424 52.8458L35.0232 44.7939" stroke="#EEE5DA" stroke-width="2" stroke-miterlimit="10"/>
<path d="M54.4594 86.7298C54.4594 86.7298 62.8377 82.745 70.0328 82.1679L54.4594 86.7298Z" fill="#231F20"/>
<path d="M54.4594 86.7298C54.4594 86.7298 62.8377 82.745 70.0328 82.1679" stroke="#EEE5DA" stroke-width="2" stroke-miterlimit="10"/>
<path d="M43.8503 81.2611L50.3381 82.1679" stroke="#EEE5DA" stroke-width="2" stroke-miterlimit="10"/>
</g>
<defs>
<clipPath id="clip0_5_774">
<rect width="88" height="99" fill="white"/>
</clipPath>
</defs>
</svg>
