<svg width="101" height="85" viewBox="0 0 101 85" fill="none" xmlns="http://www.w3.org/2000/svg">
<g clip-path="url(#clip0_5_401)">
<path d="M22.2303 69.2752C22.3799 69.0604 22.0974 68.7961 21.8814 68.9283C19.9375 70.0845 19.7049 72.7274 19.4557 74.7755C19.0569 77.9304 18.841 81.6965 19.4557 84.8183C19.5055 85.0826 19.9375 85.0165 19.9209 84.7522C19.9209 84.6531 19.9209 84.5375 19.9209 84.4384C19.9541 84.6862 19.9874 84.6201 20.0372 83.6455C20.0538 83.2987 20.0538 82.9518 20.0704 82.5884C20.1535 81.9607 20.2366 81.3496 20.2698 80.7054H20.2532C20.2033 81.0523 20.1535 81.3826 20.0704 81.6965C20.0704 80.6724 20.0372 79.6483 20.0704 78.6407C20.1369 75.4363 20.3695 72.0006 22.2303 69.2752Z" fill="#EEE5DA"/>
<path d="M42.9155 16.5672C38.1803 14.8329 30.6373 18.0538 28.6602 22.7448C27.9956 23.2073 27.3476 23.6864 26.7495 24.1654C26.467 24.3966 26.5003 24.9087 26.7495 25.1399C27.2978 25.652 27.8294 26.1475 28.3777 26.6265C28.5937 27.4193 28.9925 28.2122 29.5906 29.0216C29.9561 29.5171 30.737 29.3684 30.7702 28.7077C30.7702 28.5921 30.7702 28.4765 30.7702 28.3609C30.9198 28.3113 31.0194 28.1461 30.9198 27.9975C30.8699 27.9314 30.8201 27.8653 30.7702 27.7993C30.7702 27.5185 30.8035 27.2377 30.7868 26.9734C30.7868 26.8577 30.6539 26.8412 30.6041 26.9238C30.521 27.0229 30.4379 27.1385 30.3715 27.2542C30.2386 27.0725 30.1056 26.9073 29.9727 26.7256C29.657 25.5363 29.7733 24.3801 30.1887 23.323C32.2655 22.0015 34.575 21.06 37.0339 21.1591C36.386 21.2417 35.7214 21.4895 35.0402 21.9024C32.4317 23.5377 34.2094 25.7511 36.5189 25.8832C36.6186 25.8832 36.6186 25.7511 36.5355 25.718C35.5552 22.0511 36.6186 21.06 39.7421 22.7779C40.8719 23.4386 41.6694 24.6113 42.3174 25.7015C42.3838 25.8006 42.4337 25.9162 42.4835 26.0153C42.7826 27.3037 42.8656 28.6582 42.8324 29.8309C42.8324 29.93 42.9985 29.9631 43.0152 29.8474C43.0982 29.2363 43.1647 28.5921 43.1813 27.9479C43.4139 28.9885 43.4804 30.0622 43.4804 31.0863C43.4804 31.3506 43.4804 31.5983 43.4471 31.8626C42.0349 33.663 40.3568 35.2487 38.928 36.4215C37.9643 37.2143 37.1668 38.0402 36.5023 38.9157C36.3195 38.9157 36.1367 38.9157 35.9374 38.8991C35.522 38.8661 35.1731 39.279 35.1731 39.659C35.1731 40.171 35.1565 40.7326 35.1399 41.2942C34.1264 43.871 34.359 46.6955 36.1201 49.7182C36.4026 50.1972 37.0339 49.8504 36.9508 49.3713C36.7847 48.2151 36.5521 47.1249 36.4192 46.0513C36.5521 46.1834 36.685 46.3156 36.8512 46.4312C37.2001 46.6955 37.6653 46.266 37.549 45.8861C37.1668 44.4821 36.8844 43.1442 36.7681 41.7237C36.8678 41.4594 36.9841 41.1786 37.1336 40.8978C37.2333 40.7161 37.3496 40.5344 37.4659 40.3692C37.8813 40.3031 38.3797 40.3031 38.6289 40.2701C40.2239 39.9893 41.8355 38.767 42.7161 37.4621C43.4471 36.3719 43.9954 35.1331 44.3443 33.8282C45.9892 31.9287 47.0857 29.8144 47.6174 27.0229C48.4315 22.6953 47.3516 18.1694 42.8822 16.5342L42.9155 16.5672ZM39.36 38.3375C40.1242 37.6603 40.955 37.0326 41.686 36.438C41.7525 36.3884 41.8023 36.3389 41.8688 36.2893C41.2042 37.1813 40.3734 37.875 39.36 38.3541V38.3375ZM44.7597 30.0126C44.6766 28.5756 44.3277 27.1551 43.6964 25.8832C43.4638 25.4042 43.1813 24.9417 42.8656 24.4792C42.4004 22.7448 41.4036 21.2583 39.5427 20.4819C36.9342 19.3918 34.2593 19.8377 31.7837 20.9444C35.1897 17.3931 42.1512 15.9891 45.1584 20.0525C47.5509 23.2899 46.7036 26.8577 44.7763 30.0126H44.7597Z" fill="#EEE5DA"/>
<path d="M39.4596 53.3356C39.0775 53.2861 38.6787 53.2365 38.2966 53.1704C38.3298 53.1374 38.3797 53.1044 38.4129 53.0713C38.5292 52.9392 38.3797 52.7079 38.2135 52.8236C38.0474 52.9392 37.848 53.0218 37.6653 53.0878C37.1004 53.0218 36.5521 52.9722 35.9706 52.9722C35.6549 52.9722 35.3891 53.2365 35.3891 53.5338C35.3891 54.0789 35.1565 55.1856 35.8875 55.3838C36.4358 55.5325 36.9508 55.1526 37.3496 54.8387C37.6154 54.624 37.7982 54.2606 37.6819 53.9798C38.2634 53.8972 38.8449 53.8146 39.443 53.732C39.7088 53.699 39.7088 53.3521 39.443 53.3191L39.4596 53.3356Z" fill="#EEE5DA"/>
<path d="M95.1018 46.2991C92.7591 44.6143 89.8848 43.7884 86.8942 43.2268C86.9108 43.0451 86.7779 42.8138 86.5619 42.7973C84.5017 42.6321 82.3916 42.3348 80.265 42.0375C84.701 35.7773 84.0032 27.2707 82.1922 20.1185C80.6139 13.8418 78.1217 7.64768 72.3398 4.21201C60.5933 -2.74194 43.2975 0.264279 30.9529 3.69996C24.2406 5.56646 17.5449 8.25884 11.8129 12.2726C6.84515 15.7579 4.18681 20.4984 2.25952 26.164C-1.87751 38.3871 -1.16308 56.0115 11.0154 63.5105C14.3549 65.5752 18.1431 66.0542 21.9976 65.8395C22.197 65.8395 22.197 65.5587 21.9976 65.5256C4.98431 63.9069 -0.232664 47.8517 2.09338 32.9693C3.07364 26.7752 5.3166 20.0359 9.96869 15.6257C14.5709 11.2651 20.9177 8.60571 26.8159 6.541C39.3765 2.13078 54.8779 -0.412946 67.7874 3.8321C74.9151 6.17761 77.7728 11.4302 80.0157 18.219C81.4778 22.6788 82.1922 27.3698 81.9596 32.0608C81.8433 34.522 81.1954 36.917 80.1819 39.1634C79.8994 39.7746 79.5339 41.1951 79.1019 41.8558C78.7696 41.8063 78.4373 41.7567 78.105 41.7071C77.9887 41.575 77.7894 41.5585 77.6398 41.6411C72.5724 40.9143 67.4385 40.3031 62.5704 40.9969C55.1271 42.054 48.4979 47.9508 47.6173 55.6811C46.8032 62.7342 53.1001 65.0962 59.0315 66.0047C59.8789 66.1368 60.7096 66.2359 61.5403 66.3185C58.6826 69.4899 52.4355 68.9448 48.581 68.8292C44.6101 68.7136 40.606 68.2511 36.6683 67.5904C37.931 66.4672 39.227 65.7734 41.1875 65.6908C41.2207 65.6908 41.2207 65.6578 41.1875 65.6578C37.2166 65.5091 37.8646 64.7328 35.2395 67.2765C34.7244 67.3261 34.741 67.1609 34.7244 66.2524C34.7244 65.7404 34.0266 65.5587 33.7608 65.9881C30.2883 71.7363 26.3507 77.1706 23.9582 83.4969C23.792 83.9594 24.5064 84.1411 24.6892 83.6951C26.9155 78.0461 30.4378 73.1238 33.6943 68.0363C33.7275 68.4162 34.1429 68.6145 34.4752 68.4493C34.6081 68.3832 34.7244 68.3171 34.8407 68.2511C34.9072 68.3997 35.0235 68.5319 35.2062 68.5649C40.2903 69.6055 45.4574 70.1836 50.6412 70.3158C54.4293 70.4149 59.9121 70.4644 62.6535 67.3756C62.9193 67.0783 62.8861 66.7314 62.7366 66.4506C66.2422 66.8471 69.5153 67.3591 72.5226 69.9194C76.4934 73.2724 78.8195 78.6407 81.7603 82.8362C82.2255 83.5134 83.2057 83.2491 83.2722 82.4232C83.5879 78.2112 82.807 74.0653 82.9067 69.8698C82.9731 66.6819 85.0832 67.6564 87.4092 67.673C89.0042 67.673 90.5826 67.5904 92.1776 67.4087C96.6968 66.9131 100.202 64.7328 100.867 60.0418C101.581 54.9048 99.2886 49.3053 95.1018 46.2826V46.2991ZM94.5203 65.3109C90.782 66.5497 86.3625 66.0377 82.4913 66.0377C82.159 66.0377 81.7603 66.2855 81.7104 66.6323C80.996 71.0756 81.7104 75.4363 81.7603 79.8465C78.5869 74.7756 75.5132 68.6145 69.8975 66.2855C63.8498 63.7583 53.9641 66.2524 49.8437 60.0748C47.1853 56.094 51.1894 49.8669 53.8145 46.9102C56.8384 43.5076 61.424 42.5 65.777 42.3348C69.6482 42.1862 73.5028 42.8634 77.374 43.3259C77.4239 43.4085 77.4903 43.4745 77.5734 43.5241C77.7395 43.6232 77.8891 43.7058 78.0552 43.8049C78.3377 43.9701 78.7364 43.937 78.969 43.6893C78.969 43.6893 78.9856 43.6728 79.0022 43.6562C86.3293 45.0437 95.2845 45.1924 98.3582 53.1539C100.169 57.8614 99.92 63.5435 94.5535 65.3274L94.5203 65.3109Z" fill="#EEE5DA"/>
<path d="M60.5934 49.6852C59.8624 49.8999 59.2975 50.3129 58.8821 50.858C58.8655 50.7754 58.8323 50.6928 58.8156 50.5937C58.7492 50.3624 58.4003 50.4615 58.4667 50.6928C58.5166 50.9075 58.5498 51.1222 58.583 51.337C57.7191 52.9392 57.8852 55.2351 58.8156 56.6722C59.0316 57.019 59.4802 56.9199 59.6464 56.6557C60.178 57.2833 60.9589 57.6302 62.0223 57.465C63.8665 57.1842 65.3452 55.582 65.5279 53.7485C65.7605 51.3204 62.9194 49.008 60.61 49.6852H60.5934ZM61.1085 50.6763C62.3379 50.3294 63.584 51.337 64.1157 52.5097C62.5539 51.882 60.7429 52.3941 59.1978 52.9061C59.1978 52.8236 59.1978 52.741 59.1978 52.6584C59.4636 51.7334 60.0783 50.9571 61.1085 50.6597V50.6763ZM64.3317 54.0954C64.0825 55.2517 62.9859 56.1436 61.8561 56.3583C60.4106 56.6391 59.962 55.1691 59.8624 53.9963C61.3577 53.5338 62.7367 53.2365 64.3317 53.2365C64.3815 53.5338 64.3815 53.8146 64.3317 54.0954Z" fill="#EEE5DA"/>
<path d="M74.0345 49.6191C73.8185 49.487 73.5693 49.5531 73.3865 49.7017C72.0906 50.8084 70.8611 52.5923 71.2599 54.3927C71.426 55.1856 71.8414 55.7307 72.373 56.1106C72.9546 56.8704 73.6856 57.465 74.6492 58.0762C74.9317 58.2579 75.264 58.1257 75.4301 57.878C77.3906 55.0865 76.9919 51.5187 74.0511 49.6191H74.0345ZM73.8019 50.7588C74.4997 51.2874 74.9649 51.9316 75.2307 52.6253C74.2006 52.5097 73.2868 52.6253 72.4229 53.0713C72.6056 52.262 73.1041 51.4361 73.8019 50.7588ZM75.0646 56.1601C75.0646 56.1601 74.9815 56.1106 74.9151 56.1106C74.4333 56.0445 74.0511 55.9454 73.7022 55.7967C73.3201 55.3673 73.0044 54.8883 72.7718 54.3101C73.5859 53.6825 74.4 53.4677 75.4135 53.2695C75.5963 54.211 75.4634 55.2021 75.0646 56.1601Z" fill="#EEE5DA"/>
<path d="M87.2432 51.2379C86.4125 50.3129 84.967 50.4946 83.9369 50.924C82.6908 51.4526 81.6939 52.5097 81.2952 53.7981C80.7303 55.549 81.5278 57.2668 82.7074 58.5387C82.8902 58.7369 83.2557 58.7369 83.4385 58.5387C83.9701 57.911 84.6679 57.0356 84.6015 56.1436C84.6015 56.0445 84.5516 55.9289 84.4519 55.8959C84.4187 55.8959 84.3356 55.3838 84.2526 55.2847C84.2526 55.2682 84.2027 55.2847 84.2193 55.2847C84.2858 55.5325 84.2526 55.7637 84.0864 55.9289C83.9203 56.0941 83.8538 56.4079 83.7541 56.6061C83.588 56.8869 83.3886 57.1347 83.156 57.3659C82.5745 56.4079 82.1758 55.3177 82.4914 54.211C82.7573 53.2695 83.5215 52.5428 84.3855 52.1298C84.751 51.9646 85.1331 51.8655 85.4821 51.8655C85.831 51.8655 86.0802 51.9481 86.2796 52.1133C86.4623 52.295 86.5454 52.6254 86.5288 53.0053C86.5288 53.732 86.1466 54.4093 86.0636 55.1195C86.0137 55.5985 86.7115 55.8628 87.0106 55.5159C87.941 54.4423 88.2401 52.3611 87.2432 51.2213V51.2379Z" fill="#EEE5DA"/>
</g>
<defs>
<clipPath id="clip0_5_401">
<rect width="101" height="85" fill="white"/>
</clipPath>
</defs>
</svg>
