<svg width="159" height="88" viewBox="0 0 159 88" fill="none" xmlns="http://www.w3.org/2000/svg">
<g clip-path="url(#clip0_5_803)">
<path d="M147.084 46.0222C145.345 49.0111 140.855 54.0576 137.555 55.9645C134.245 57.8803 127.395 58.0133 127.262 58.3681C127.12 58.714 131.752 58.643 134.84 58.0931C137.936 57.5344 140.438 57.0111 144.058 52.8071C147.678 48.6031 150.704 40.674 150.704 40.674C152.301 35.8403 148.823 43.0333 147.084 46.031V46.0222Z" fill="#EEE5DA"/>
<path d="M155.504 51.6186C155.034 52.0355 153.676 52.6563 153.055 52.4257C152.425 52.1951 148.805 49.2949 148.645 49.1175C148.486 48.9401 149.346 47.7871 150.544 45.0288C151.742 42.2616 154.013 35.6452 155.114 32.745C156.205 29.8536 158.973 21.1707 159 20.7006C159.027 20.2306 156.258 19.8669 151.822 18.9268C147.386 17.9867 132.284 15.255 127.59 14.7051C122.897 14.1552 108.443 13.6585 108.416 13.5077C108.39 13.3481 108.39 12.6208 107.396 11.7871C106.402 10.9534 103.066 10.9002 102.906 10.9268C102.747 10.9534 99.6944 8.37248 97.3786 6.62525C95.0628 4.87802 90.2094 0.248312 89.0116 0.0177129C87.8138 -0.212886 86.4296 2.62525 86.3497 2.7849C86.2699 2.94454 87.0241 3.6186 87.8847 4.2217C88.7454 4.82481 98.0086 11.9113 98.0884 12.0709C98.1683 12.2306 97.698 12.6474 97.6714 12.7184C97.6448 12.7982 93.865 12.5853 90.9902 12.1951C88.1243 11.8049 67.3354 9.22392 63.8395 8.72725C60.3437 8.23057 42.4207 5.5166 42.0835 5.56982C41.7463 5.62303 37.7536 7.42348 36.7332 7.89354C35.7129 8.36361 19.0498 16.3636 18.0294 16.9667C17.0179 17.5609 0.00883607 26.3237 0.00883607 26.3237C-0.20411 26.4567 3.1143 31.6718 3.60231 32.5853C4.09031 33.4989 11.712 42.1818 12.9986 43.4324C14.2762 44.6829 18.2956 47.5033 19.9637 48.2306C21.6318 48.9578 30.1141 50.5543 32.3501 50.9179C34.5949 51.2816 40.3356 52.1153 40.4066 52.3015C40.4864 52.4878 34.7723 60.7006 34.3553 61.2949C33.9383 61.8891 33.4947 62.2616 31.8 63.2993C30.1053 64.3459 25.802 67.9645 23.9742 70.0488C22.1464 72.133 16.5388 80.3991 15.8645 81.5698C15.1901 82.7406 15.4741 84.1508 17.0889 85.3481C18.7038 86.5454 23.4507 88.1153 24.2581 87.9822C25.0655 87.8492 27.9137 83.4235 30.8328 79.2727C33.752 75.1219 35.9968 68.612 36.4404 67.2284C36.8841 65.8448 36.751 64.337 36.6445 64.1774C36.538 64.0177 36.9107 63.6541 37.8246 62.2261C38.7385 60.7893 43.8226 53.9068 44.0799 53.7029C44.3372 53.4989 46.0319 54.0399 47.7355 54.1995C49.4302 54.3592 64.3808 55.9734 66.2529 56.0266C68.1339 56.0798 93.5101 57.9867 96.6954 58.0576C99.8807 58.1374 118.789 58.7317 119.836 58.7583C120.883 58.7849 122.701 59.3082 124.716 59.8049C126.721 60.3015 132.621 60.7716 136.614 59.9379C140.607 59.1042 143.109 56.337 143.996 55.3791C144.883 54.4124 147.829 50.2971 147.989 50.0044C148.149 49.7206 151.698 52.9224 152.975 53.4989C154.253 54.0754 156.028 52.0621 156.267 51.592C156.498 51.1219 155.974 51.2017 155.513 51.6186H155.504ZM108.753 14.5809C108.913 14.5809 120.412 15.051 123.465 15.3082C126.517 15.5654 139.977 17.3658 141.645 17.6496C143.313 17.9335 149.08 19.0332 148.921 19.3437C148.77 19.6541 143.783 18.643 142.009 18.3503C140.234 18.0665 130.74 16.9401 127.04 16.5499C123.34 16.1596 114.255 15.5565 112.507 15.5033C110.759 15.4501 108.807 15.3437 108.727 15.2993C108.647 15.2461 108.363 14.572 108.753 14.572V14.5809ZM104.06 11.7694C104.211 11.7694 106.828 11.9734 107.289 12.7095C107.76 13.4368 107.68 15.0332 107.077 14.7938C106.473 14.5543 107.236 13.2594 105.932 12.8869C104.628 12.5233 104.415 12.5765 104.237 12.4168C104.051 12.2572 103.714 11.7694 104.051 11.7694H104.06ZM105.905 14.8381C105.932 15.2017 105.515 15.255 104.832 15.255C104.149 15.255 100.786 14.8647 100.635 14.8913C100.475 14.9179 100.351 14.3947 100.635 14.3947C100.972 14.3947 105.879 14.4745 105.905 14.8381ZM97.4318 10.6164C96.4913 9.94232 88.5679 3.78711 87.8049 3.34366C87.0507 2.9002 87.4145 2.43013 87.725 1.82703C88.0356 1.22392 88.8696 1.27714 89.1358 1.77381C89.402 2.27048 88.4348 2.44787 88.355 2.97115C88.2751 3.49443 89.6593 2.89133 90.0763 2.66073C90.4933 2.43013 92.401 4.27492 93.2882 4.87802C94.1755 5.48113 104.557 13.7206 104.557 13.7206C104.716 14.0044 102.551 13.8536 101.948 13.7472C101.345 13.6408 98.3723 11.2993 97.4318 10.6164ZM99.7476 13.9068C99.6145 14.3769 99.2508 14.3769 98.9402 14.2173C98.6297 14.0576 98.7627 12.4434 98.9402 12.6297C99.0201 12.7095 99.8807 13.4368 99.7476 13.9068ZM43.3257 6.67847C43.3257 6.67847 56.7058 8.53212 60.8317 9.20618C64.9486 9.88024 75.4096 11.2106 76.7938 11.3703C78.1779 11.5299 88.8696 12.7539 90.5377 12.9845C92.2058 13.2151 97.5028 13.6319 97.6625 13.7649C97.8222 13.898 97.9198 14.6785 97.5827 14.6253C97.2455 14.572 80.7067 12.8514 76.1904 12.204C71.6742 11.5476 53.7068 9.07314 50.9918 8.65629C48.2767 8.23944 44 7.66295 43.5298 7.56538C43.0595 7.45895 43.0329 6.73168 43.3257 6.67847ZM42.9087 8.37248C42.9619 7.87581 60.0952 10.98 62.136 11.184C64.1678 11.3969 82.9781 14.031 85.8972 14.1286C88.8164 14.235 102.8 15.8492 107.316 15.9822C111.823 16.1153 121.663 16.9933 123.828 17.0998C125.993 17.2062 135.567 18.2439 140.314 18.8736C145.061 19.5033 154.528 21.7915 154.848 21.9778C155.158 22.1641 149.471 23.9379 149.133 23.9556C148.796 23.9822 141.778 21.8714 135.443 20.9578C129.108 20.0443 120.421 19.7073 116.562 19.4767C112.702 19.2372 95.1693 18.6696 91.2031 18.2527C87.237 17.8359 75.6314 16.7184 73.6173 16.3281C71.6121 15.9379 62.899 14.6075 58.7466 14.0576C54.603 13.5077 43.095 12.47 42.7578 12.2572C42.4207 12.0532 42.9175 8.37248 42.9175 8.37248H42.9087ZM58.8708 33.357C58.2941 33.1973 58.09 33.0465 58.294 32.8603C58.507 32.674 59.9089 30.2261 60.2283 30.1995C60.4146 30.1818 69.3318 30.8026 70.8934 30.8026C72.455 30.8026 76.6075 30.8026 76.0041 31.0598C75.4007 31.317 70.7071 35.8315 70.086 35.8847C69.456 35.9379 59.5717 35.6541 59.625 35.3082C59.6782 34.9712 59.4386 33.5077 58.8708 33.3481V33.357ZM3.85962 27.6718C3.85962 27.6718 8.26938 29.1618 10.2214 29.6496C12.1734 30.1463 13.5576 30.5366 13.2736 30.7228C12.9897 30.9091 9.72452 30.0754 8.13629 29.5255C6.54807 28.9756 3.75314 28.1685 3.67329 28.0887C3.59343 28.0088 3.41598 27.5388 3.85962 27.6718ZM3.833 26.9623C3.833 26.9623 25.4027 15.6452 27.754 14.4745C30.1053 13.3037 40.513 8.37248 40.7171 8.55873C40.93 8.74498 41.3204 11.7162 40.7171 12.0798C40.1138 12.4434 30.9393 16.6652 24.338 20.4523C17.7366 24.2306 9.62692 28.6119 9.13004 28.5853C8.63317 28.5587 3.46922 27.2284 3.833 26.9711V26.9623ZM10.4876 28.949C10.4876 28.949 24.4178 21.2594 25.9351 20.3725C27.4523 19.4856 38.561 13.9335 39.262 13.5964C39.9629 13.2594 40.726 13.2062 40.7792 13.8093C40.8324 14.4124 40.4953 19.3348 40.2291 21.4723C39.9718 23.6097 39.0845 26.9711 38.144 27.7073C37.2035 28.4346 29.6439 32.3725 29.2712 32.5055C28.9074 32.6386 22.0222 31.592 18.9699 31.0953C15.9177 30.5986 10.0262 29.1618 10.4876 28.9578V28.949ZM47.8153 28.6918C47.5314 28.408 40.9034 27.3614 41.1075 27.1485C41.3204 26.9445 47.5225 23.4767 51.9323 21.7295C56.342 19.9822 64.4518 17.0111 64.4518 17.2417C64.4518 17.4723 60.672 23.1308 60.0154 24.3636C59.3677 25.5876 58.5514 26.9711 58.0367 27.1042C57.5133 27.2372 50.0779 30.4656 47.9395 31.3525C45.8012 32.2394 42.3586 34.2439 41.8351 34.2439C41.3116 34.2439 30.753 33.0731 31.4273 32.6297C31.5959 32.5233 39.2797 27.7516 39.9008 27.7516C40.5219 27.7516 48.0904 28.9756 47.8064 28.6918H47.8153ZM51.5685 19.2195C51.8258 17.7295 52.1186 14.3414 52.1186 14.3414C52.2251 13.9512 52.9526 14.5454 52.9793 15.9556C53.0059 17.3658 51.9589 20.6208 51.6483 20.9845C51.3378 21.3481 51.3112 20.7006 51.5685 19.2106V19.2195ZM53.7867 14.4035C53.7867 14.0931 54.9313 14.5809 57.5132 14.7672C60.0952 14.9445 64.1944 15.3969 64.8155 15.7871C65.4455 16.1774 53.7246 20.2217 53.2632 20.3991C52.7929 20.5853 53.1035 19.9556 53.4939 18.1818C53.8843 16.408 53.7778 14.4035 53.7778 14.4035H53.7867ZM89.3133 20.7893C89.3133 20.7893 88.9229 24.7805 88.426 27.725C87.9291 30.6696 87.1217 31.5299 86.9886 31.0066C86.8555 30.4833 88.0089 26.7317 88.213 24.745C88.426 22.7672 88.63 21.9778 88.6833 21.1707C88.7365 20.3636 89.4109 20.204 89.3133 20.7805V20.7893ZM90.2538 23.3969C90.6442 20.7095 90.6175 19.4856 90.8837 19.5122C91.0878 19.5299 102.436 19.2993 102.622 20.1153C102.809 20.9224 102.099 27.2106 101.531 29.4013C100.954 31.592 100.981 32.3991 97.281 32.3725C93.581 32.3459 88.3816 32.4523 88.5147 31.2993C88.6478 30.1552 89.8722 26.0842 90.2626 23.3969H90.2538ZM87.1483 25.8182C86.7579 28.0355 85.8174 30.8026 85.4536 30.8026C85.0898 30.8026 78.2489 30.8026 78.4619 30.306C78.6748 29.8093 79.6597 27.4412 80.1299 23.4235C80.6002 19.4057 80.5203 18.3947 80.8575 18.2616C80.9285 18.235 87.9823 18.5011 88.0799 19.0155C88.1864 19.5388 87.5298 23.6009 87.1394 25.8182H87.1483ZM76.8736 30.1995C76.3768 30.306 67.9033 30.1463 66.1021 30.0931C64.3009 30.0399 60.8317 29.7827 60.805 29.5964C60.7784 29.4102 60.8583 28.7627 61.3552 28.5765C61.3552 28.5765 65.3745 26.9623 67.2023 26.1552C69.0301 25.3481 77.193 21.7738 77.9206 21.4102C78.6571 21.0465 79.0918 20.8603 79.3048 21.0199C79.5177 21.1796 79.5621 24.5942 78.728 27.2284C77.894 29.8625 77.3705 30.0931 76.8736 30.1995ZM78.8345 20.2661C77.3971 20.9401 61.9319 27.6718 62.3223 27.1751C62.4021 27.0687 63.8129 24.7982 64.9575 24.1241C66.1021 23.4412 75.7823 19.7694 77.193 19.1397C78.6038 18.51 79.2249 18.4124 79.4379 18.5898C79.6508 18.776 80.2719 19.5831 78.8345 20.2572V20.2661ZM78.2045 17.7915C77.6811 17.9778 69.4116 21.4723 68.4977 21.8359C67.5838 22.1995 65.8093 23.2195 66.2086 22.3592C66.599 21.4989 69.1277 18.0044 69.0745 17.6142C69.0212 17.2239 67.9831 16.6208 67.1934 16.5676C66.4126 16.5144 66.4126 15.9468 66.7498 15.9468C66.8297 15.9468 78.7192 17.6142 78.2045 17.8004V17.7915ZM66.599 17.2151C66.599 17.2151 67.6726 17.1352 67.6193 17.8714C67.5661 18.5986 66.8918 19.5654 66.7054 19.4856C66.5191 19.4057 66.1819 19.3525 66.4215 18.8292C66.6522 18.306 66.5723 17.6851 66.1819 18.1286C65.7915 18.572 62.1182 24.2838 62.6328 23.8935C63.1563 23.5033 65.5076 20.2128 65.7649 20.3459C66.0222 20.4789 65.481 21.4368 65.1882 21.9068C64.9043 22.3769 57.7794 32.8337 57.3358 32.8337C56.8922 32.8337 55.925 32.7539 56.1912 32.2838C56.4485 31.8137 62.4554 21.5432 63.4136 20.133C64.3808 18.7228 65.7383 17.1884 66.599 17.2151ZM46.5909 34.5809C46.1738 34.6341 43.3257 34.5011 43.7427 34.2439C44.1597 33.9778 57.8504 27.592 57.46 28.1685C57.46 28.1685 56.8567 30.0488 56.0492 30.4124C55.2418 30.776 46.999 34.5277 46.582 34.5809H46.5909ZM55.6411 31.4501C55.4281 31.8669 55.3305 32.337 54.9135 32.3902C54.4965 32.4434 53.2987 32.4168 53.7423 32.1508C53.9286 32.0443 55.854 31.0244 55.65 31.4501H55.6411ZM50.0335 34.7672C49.7762 34.847 47.7355 34.9711 48.1081 34.6075C48.2412 34.4745 49.8028 33.5343 50.0069 33.8004C50.2198 34.0576 50.2997 34.6873 50.0335 34.7672ZM23.8677 32.337C26.0593 32.7805 39.9097 34.6341 41.5511 34.8381C43.1926 35.051 52.1896 35.9113 52.1896 35.9113C52.4735 35.9911 51.7992 36.7184 51.6927 36.7184C51.5862 36.7184 49.8383 36.4346 48.1436 36.2483C46.4489 36.0621 37.7625 35.051 35.7217 34.8115C33.6899 34.5809 26.778 33.694 24.4533 33.2505C22.1286 32.8071 15.0393 31.4767 14.7199 31.0332C14.4093 30.5898 21.6584 31.8935 23.85 32.337H23.8677ZM51.7814 34.7139C51.95 34.5809 52.8284 34.0133 53.139 34.2439C53.4495 34.4745 53.2188 35.0776 52.926 35.184C52.6421 35.2904 51.3644 35.0244 51.7814 34.7139ZM51.4177 34.2971C51.2313 34.5011 50.4771 34.1108 51.0273 33.6674C51.3201 33.4368 52.722 32.8071 55.2241 33.1175C57.7262 33.4279 58.6135 33.7117 58.7466 34.235C58.8797 34.7583 59.0039 35.255 58.436 35.3259C57.8593 35.4057 57.8593 34.8559 57.5221 34.4922C57.185 34.1286 55.02 33.7915 53.6625 33.7649C52.3049 33.7383 51.604 34.0754 51.4177 34.2882V34.2971ZM71.3991 35.725C71.896 35.388 76.9535 31.0332 77.4504 31.0332C77.9472 31.0332 85.5335 31.1663 85.0632 31.4501C85.0632 31.4501 81.0172 35.4678 80.2364 35.4944C79.4556 35.521 70.8934 36.0709 71.3903 35.725H71.3991ZM81.5939 35.3348C82.0376 35.051 85.2939 32 85.6133 31.9202C85.6133 31.9202 86.7579 31.7871 86.2167 32.337C85.6665 32.8869 83.191 35.3348 82.8006 35.4146C82.4102 35.4944 81.1592 35.6186 81.6028 35.3348H81.5939ZM87.1039 32.6474C87.2548 32.6031 95.0096 32.8514 96.3139 32.878C97.6182 32.9046 99.1798 33.0377 98.8958 33.3215C98.6119 33.6053 97.3786 34.7317 97.0148 34.8381C96.651 34.9445 84.4421 35.5654 84.5486 35.255C84.655 34.9445 86.82 32.7272 87.1039 32.6474ZM98.6829 34.6873C98.8692 34.5188 100.298 32.9933 101.087 33.0731C101.868 33.153 108.053 34.0665 106.411 34.2439C104.77 34.4213 98.4256 34.9179 98.6918 34.6873H98.6829ZM101.762 32.0266C102.001 31.4767 102.986 26.9978 103.199 25.0909C103.403 23.184 103.252 19.8226 103.51 19.796C103.51 19.796 110.191 19.7428 110.315 20.4789C110.448 21.2062 109.614 26.9179 109.064 29.1086C108.514 31.2993 107.84 33.5698 107.369 33.49C106.899 33.4102 101.522 32.5765 101.762 32.0266ZM109.898 28.8159C110.368 26.6519 110.732 25.5521 110.865 25.0377C110.998 24.5144 111.513 24.2306 111.495 24.7982C111.495 24.7982 110.324 29.6496 109.854 31.2638C109.383 32.878 108.709 33.8714 108.683 33.5077C108.656 33.1441 109.437 30.98 109.907 28.8159H109.898ZM111.282 22.2439C111.362 21.827 111.335 19.4057 111.886 20.2394C111.886 20.2394 112.019 22.9002 111.522 23.1042C111.025 23.317 111.211 22.6607 111.291 22.2439H111.282ZM112.294 26.4213C112.817 23.7339 112.924 20.3991 113.314 20.3459C113.314 20.3459 124.219 20.7361 124.352 21.0199C124.485 21.3037 123.935 25.3481 123.34 28.2927C122.737 31.2372 122.089 31.8403 121.796 32.0177C121.513 32.204 109.747 33.9955 109.925 33.5343C110.111 33.0643 111.779 29.0998 112.303 26.4124L112.294 26.4213ZM122.994 31.5033C123.181 31.0865 124.325 27.1485 124.662 25.0643C125 22.98 124.92 20.8958 125.283 20.9135C125.496 20.9312 132.692 21.2505 132.932 21.5698C133.162 21.8802 132.852 23.9734 132.435 25.694C132.018 27.4146 131.21 30.102 130.891 30.3326C130.58 30.5632 126.277 31.4057 125.23 31.459C124.183 31.5122 122.799 31.929 122.985 31.5122L122.994 31.5033ZM133.926 24.7982C134.343 22.4213 134.156 22.1907 134.183 22.0842C134.209 21.9778 134.573 21.7472 134.706 22.0044C134.706 22.0044 135.043 23.9645 134.343 26.6164C133.642 29.2771 132.408 30.368 132.435 29.898C132.462 29.4279 133.508 27.1574 133.926 24.7893V24.7982ZM134.236 29.0022C134.493 28.4257 135.434 26.0842 135.673 24.9312C135.904 23.7871 135.807 22.1108 136.224 22.0665C136.481 22.031 143.606 23.4235 145.407 23.8137C147.208 24.204 148.015 24.2572 147.749 24.6208C147.492 24.9845 141.751 27.0953 139.817 27.725C137.892 28.3547 133.979 29.5787 134.236 29.0022ZM42.1545 19.459C42.8377 16.5676 42.8111 13.1973 42.8111 13.1973C42.8643 12.8869 50.4594 14.0576 50.8675 14.1641C51.2846 14.2705 51.2846 14.9445 51.1337 16.3813C50.974 17.8182 50.2731 21.3392 50.0069 21.7295C49.7496 22.1197 48.2589 22.7228 47.3983 23.0864C46.5376 23.4501 40.8236 26.3414 40.4332 26.4745C40.0428 26.6075 41.4802 22.3503 42.1545 19.459ZM17.4793 18.2616C17.8963 17.9246 27.9403 12.9135 28.9873 12.4434C30.0343 11.9734 41.7463 6.57204 41.7463 6.57204C42.19 6.41239 41.9327 7.2727 41.6931 7.40574C41.4535 7.53878 40.0516 8.1064 39.4749 8.39909C38.8982 8.6829 31.9331 11.7073 30.682 12.3636C29.4309 13.0111 19.4668 17.9689 18.3666 18.572C17.2664 19.1751 17.0623 18.5986 17.4793 18.2616ZM1.93423 26.3148C2.07619 26.2084 14.1165 20.0798 14.5069 19.8758C14.8973 19.6718 14.9506 20.133 14.6134 20.4523C14.2762 20.7627 2.74165 26.6075 2.51096 26.6607C2.27139 26.7139 1.62368 26.5543 1.93423 26.3237V26.3148ZM27.3902 48.9756C23.1401 48.0355 18.8369 46.1818 17.923 45.3747C17.0091 44.5676 19.3337 45.0377 21.756 45.5077C24.1783 45.9778 38.1617 48.4789 38.9425 48.3015C39.7233 48.1153 32.5808 46.8647 25.1188 45.3836C17.6568 43.8935 13.7705 41.4989 12.0226 40.4257C10.2746 39.3614 10.4343 38.7849 12.0226 39.3082C13.6108 39.8315 22.1996 41.8891 26.0327 42.4124C29.8657 42.9357 40.8236 44.7095 41.0276 44.4168C41.2317 44.133 32.3146 42.3326 29.3422 41.6763C26.3698 41.0199 18.4908 39.5388 14.3206 38.1818C10.1415 36.8248 7.38211 34.5011 6.65454 33.5432C5.92697 32.5765 6.96509 33.153 9.31637 34.1197C11.6677 35.0865 20.5049 37.2239 25.2519 38.1641C29.9988 39.1042 39.9895 40.5321 40.6372 40.4612C41.2938 40.3813 39.7233 39.7605 38.3126 39.5476C36.9018 39.3437 30.2029 38.4745 26.3432 37.7206C22.4836 36.9667 14.711 35.1397 11.9693 34.2261C9.22764 33.3126 3.72653 29.4545 3.1498 28.8514C2.57307 28.2483 5.0042 29.1352 6.38836 29.6851C7.77251 30.235 11.712 31.592 17.8431 32.7627C23.9742 33.9335 34.0182 35.3171 38.7917 35.9734C43.5653 36.6208 51.0006 37.2505 51.2313 37.3836C51.462 37.5166 41.1607 51.725 41.1607 51.725C40.93 51.9379 31.6403 49.9246 27.3902 48.9845V48.9756ZM36.1033 65.7117C36.0855 65.7827 34.9054 70.5898 33.4414 73.5343C31.9774 76.4789 27.3636 83.6807 26.9199 84.3281C26.4763 84.9756 24.9591 87.8492 23.8677 87.5565C22.7764 87.2727 18.2335 85.4456 17.5592 84.6652C16.876 83.8847 16.4146 83.1751 16.876 82.5011C17.3462 81.827 21.756 74.9889 23.9476 72.0177C26.1391 69.0465 29.8923 66.0488 30.6997 65.5521C31.5072 65.0554 32.8115 64.2483 32.5275 64.6385C32.2436 65.0288 29.4753 69.4368 28.2509 71.8847C27.0264 74.3326 24.9147 78.1197 26.1658 77.3304C27.4168 76.5499 31.8266 71.255 32.7405 70.0576C33.6544 68.8603 36.3428 64.7627 36.1033 65.7029V65.7117ZM41.8972 55.8847C41.1164 57.0288 36.1565 64.1774 35.633 64.9312C35.1095 65.6851 30.8062 71.2904 30.1585 72.0798C29.5019 72.8603 27.8871 74.4479 28.1533 73.9335C28.4106 73.4102 32.6872 65.2771 33.7076 63.8137C34.728 62.3503 37.8778 58.0754 39.1377 56.2217C40.3888 54.368 46.0496 46.0754 46.7595 45.0909C47.4604 44.0975 52.7574 36.541 53.068 36.1507C53.3785 35.7605 53.9286 34.5366 54.1593 34.51C54.1593 34.51 55.2773 34.3237 55.1531 34.847C55.02 35.3703 47.9839 45.3037 47.0434 46.6075C46.1029 47.9113 40.442 55.9645 40.025 56.4878C39.608 57.0111 37.656 59.5122 38.3569 59.2993C39.0579 59.0864 46.5199 48.3193 47.1499 47.459C47.7798 46.5986 55.8629 34.7317 56.1468 34.7583C56.4308 34.7849 56.5639 34.9889 56.3598 35.2284C56.1468 35.459 49.652 45.1086 49.1107 45.8359C48.5606 46.5632 42.6957 54.7228 41.906 55.8758L41.8972 55.8847ZM104.37 57.5521C101.061 57.5521 82.6675 56.408 80.5824 56.3281C78.4973 56.2483 57.7351 54.2971 55.4903 54.0842C53.2454 53.8714 45.4995 52.4168 45.6326 52.204C45.7657 51.9911 51.9944 42.4745 52.6776 41.5876C53.3519 40.7006 56.1735 36.0887 56.7768 36.0887C57.3802 36.0887 68.1783 36.4789 71.1507 36.4789C74.1231 36.4789 87.1128 35.8847 90.449 35.7782C93.7851 35.6718 103.181 35.1308 108.913 34.6873C114.654 34.2439 123.935 32.6297 126.366 32.0798C128.788 31.5299 140.66 28.1153 142.647 27.4944C144.626 26.8647 148.752 25.0998 150.003 24.6297C151.254 24.1596 153.313 23.9024 152.221 24.5499C152.221 24.5499 145.913 27.1042 143.375 28.0443C140.846 28.9845 133.26 31.3525 131.193 32.0088C129.134 32.6652 120.945 34.1463 118.806 34.5366C116.668 34.9268 105.737 36.0709 103.465 36.2306C101.194 36.3902 90.0319 37.2239 87.8936 37.3037C85.7553 37.3836 71.1951 37.4102 69.7399 37.5166C68.2759 37.623 58.0279 37.0731 57.3979 37.0731C56.7679 37.0731 55.9605 37.5432 56.697 37.6496C57.4245 37.7561 66.2707 38.1463 68.2316 38.1995C70.1836 38.2527 85.0543 38.0931 87.8226 38.1197C90.5909 38.1463 104.335 36.9224 106.163 36.6829C107.99 36.4523 122.648 34.7317 126.038 33.8714C129.427 33.0111 138.717 30.6873 144.635 28.3459C150.553 25.9955 154.129 24.5942 154.182 24.7716C154.235 24.9578 152.248 27.0421 149.826 28.2394C147.403 29.4368 139.808 33.0111 136.339 34.0576C132.87 35.1042 122.409 37.7561 120.111 38.3326C117.813 38.9091 111.788 39.9468 111.708 40.2927C111.628 40.6297 113.74 40.2394 114.45 40.1064C115.151 39.9734 127.209 37.3924 131.929 36.0887C136.649 34.7849 143.925 32.3104 147.19 30.8736C150.447 29.4368 153.659 27.7428 153.446 28.1064C153.233 28.47 151.414 31.2106 148.752 32.6918C146.09 34.1818 136.099 38.1641 134.405 38.7139C132.71 39.2638 121.672 42.3148 119.853 42.7051C118.026 43.0953 112.551 44.0355 112.418 44.3193C112.285 44.6031 114.556 44.4257 115.55 44.1862C116.544 43.9556 126.091 41.9955 134.014 39.6186C141.947 37.2505 147.581 34.1463 148.619 33.6763C149.666 33.2062 151.361 32.2661 151.201 32.8159C151.041 33.3658 149.692 36.1241 145.957 38.2439C142.222 40.3547 132.941 43.4856 129.915 44.4523C126.889 45.419 118.824 47.5831 117.529 47.8403C116.224 48.0975 114.343 48.2838 114.53 48.4878C114.716 48.7006 117.768 48.7006 121.335 47.8137C124.911 46.9268 133.677 44.2394 136.774 43.1219C139.879 42.0044 144.493 39.9379 145.487 39.4678C146.48 38.9978 147.856 38.0842 147.678 38.8115C147.492 39.5388 143.845 43.5831 140.163 45.1707C136.481 46.7583 126.756 49.7117 124.228 50.3592C121.699 51.0155 115.674 52.3636 116.322 52.6031C116.979 52.8337 124.254 51.2461 125.869 50.776C127.484 50.306 136.694 47.5654 138.522 46.8381C140.349 46.1108 143.215 44.5942 142.958 45.0909C142.701 45.5876 138.442 49.7561 134.218 51.1397C129.995 52.5233 124.121 54.031 122.95 54.3769C121.77 54.7139 121.282 55.0776 122.009 55.0776C122.737 55.0776 125.665 54.7672 127.59 54.1907C129.525 53.6142 134.272 51.8403 133.562 52.4434C132.861 53.0465 126.233 57.0022 122.79 57.2151C119.348 57.4279 107.689 57.5521 104.37 57.5521ZM144.511 53.898C142.789 56.1419 140.651 58.4922 135.744 59.2993C130.838 60.1064 127.999 59.5299 126.925 59.3791C125.851 59.2195 122.959 58.8026 123.509 58.5454C124.059 58.2882 128.966 57.2683 133.269 54.2439C137.572 51.2195 142.896 47.6718 145.842 43.6807C148.787 39.6896 151.192 35.1574 151.813 33.8802C152.443 32.6031 154.785 27.5476 155.202 26.6341C155.619 25.7206 156.116 23.8669 156.533 23.6097C156.533 23.6097 158.077 22.6164 158.077 22.9091C158.077 23.2017 154.528 32.7361 154.084 33.8093C153.641 34.8736 150.775 43.0953 150.385 44.133C149.994 45.1796 146.232 51.6718 144.511 53.9068V53.898Z" fill="#EEE5DA"/>
<path d="M26.1658 71.0067C25.8286 71.4235 22.3061 76.479 21.3124 77.8892C20.3186 79.2994 18.3666 82.1907 18.4465 83.734C18.5263 85.2683 22.9627 86.5544 23.4507 86.3947C23.9476 86.2351 23.1668 85.9247 22.7941 85.6675C22.4303 85.4102 21.3567 85.224 20.6026 83.663C19.8484 82.0932 20.8421 80.5056 21.7294 79.051C22.6167 77.5876 26.7603 71.0422 26.7603 71.0422C27.408 69.632 26.5029 70.5987 26.1569 71.0156L26.1658 71.0067Z" fill="#EEE5DA"/>
</g>
<defs>
<clipPath id="clip0_5_803">
<rect width="159" height="88" fill="white"/>
</clipPath>
</defs>
</svg>
