<svg width="282" height="336" viewBox="0 0 282 336" fill="none" xmlns="http://www.w3.org/2000/svg">
<path d="M281 168.751L196.831 1H1V335H196.831L281 168.751Z" fill="#F7E149" stroke="black"/>
<path d="M42.936 58.64H59.64V122H42.936V58.64ZM136.361 58.64V122H119.657V87.92L120.377 75.968L117.641 89.84L108.761 116.336H92.4413L83.6093 89.84L80.9213 75.968L81.5933 87.92V122H64.9373V58.64H88.6493L99.6413 98.048L100.649 103.76L101.609 98.048L112.601 58.64H136.361ZM42.456 131.64H67.416C71.512 131.64 75.208 132.376 78.504 133.848C81.832 135.32 84.472 137.528 86.424 140.472C88.376 143.416 89.352 147.064 89.352 151.416C89.352 155.736 88.376 159.432 86.424 162.504C84.472 165.576 81.832 167.928 78.504 169.56C75.208 171.192 71.512 172.008 67.416 172.008H59.16V195H42.456V131.64ZM59.16 158.952H62.76C64.424 158.952 65.896 158.712 67.176 158.232C68.488 157.752 69.528 157 70.296 155.976C71.064 154.92 71.448 153.528 71.448 151.8C71.448 150.104 71.064 148.744 70.296 147.72C69.528 146.664 68.488 145.896 67.176 145.416C65.896 144.936 64.424 144.696 62.76 144.696H59.16V158.952ZM125.631 131.64H142.287V170.424C142.287 175.64 141.279 180.168 139.263 184.008C137.247 187.848 134.303 190.84 130.431 192.984C126.559 195.096 121.855 196.152 116.319 196.152C110.783 196.152 106.063 195.096 102.159 192.984C98.255 190.84 95.279 187.848 93.231 184.008C91.215 180.168 90.207 175.64 90.207 170.424V131.64H106.911V169.512C106.911 172.104 107.263 174.248 107.967 175.944C108.703 177.64 109.775 178.92 111.183 179.784C112.591 180.616 114.303 181.032 116.319 181.032C118.303 181.032 119.983 180.616 121.359 179.784C122.735 178.92 123.791 177.64 124.527 175.944C125.263 174.248 125.631 172.104 125.631 169.512V131.64ZM145.654 131.64H162.358V180.456H184.63V195H145.654V131.64ZM66.888 216.488C70.888 216.488 74.424 216.936 77.496 217.832C80.6 218.696 83.096 219.624 84.984 220.616C86.872 221.576 88.024 222.216 88.44 222.536L80.472 235.976C79.96 235.56 79.08 235 77.832 234.296C76.584 233.592 75.144 232.968 73.512 232.424C71.912 231.848 70.312 231.56 68.712 231.56C66.664 231.56 64.984 231.896 63.672 232.568C62.392 233.208 61.752 234.216 61.752 235.592C61.752 236.552 62.104 237.416 62.808 238.184C63.512 238.952 64.632 239.72 66.168 240.488C67.736 241.256 69.8 242.088 72.36 242.984C74.76 243.816 76.984 244.824 79.032 246.008C81.112 247.192 82.92 248.6 84.456 250.232C85.992 251.864 87.192 253.736 88.056 255.848C88.952 257.96 89.4 260.344 89.4 263C89.4 266.392 88.696 269.304 87.288 271.736C85.912 274.136 84.04 276.104 81.672 277.64C79.336 279.176 76.696 280.312 73.752 281.048C70.808 281.784 67.8 282.152 64.728 282.152C60.184 282.152 56.12 281.656 52.536 280.664C48.984 279.64 46.104 278.536 43.896 277.352C41.72 276.168 40.408 275.352 39.96 274.904L48.168 260.936C48.52 261.224 49.272 261.688 50.424 262.328C51.576 262.968 52.952 263.64 54.552 264.344C56.184 265.048 57.896 265.64 59.688 266.12C61.48 266.6 63.176 266.84 64.776 266.84C67.208 266.84 69.016 266.44 70.2 265.64C71.384 264.808 71.976 263.672 71.976 262.232C71.976 261.176 71.608 260.232 70.872 259.4C70.136 258.536 68.936 257.688 67.272 256.856C65.608 255.992 63.384 255.032 60.6 253.976C57.848 252.92 55.256 251.608 52.824 250.04C50.424 248.44 48.456 246.392 46.92 243.896C45.416 241.4 44.664 238.296 44.664 234.584C44.664 230.84 45.704 227.624 47.784 224.936C49.896 222.216 52.648 220.136 56.04 218.696C59.432 217.224 63.048 216.488 66.888 216.488ZM109.394 249.272C109.394 252.472 110.034 255.384 111.314 258.008C112.626 260.6 114.45 262.664 116.786 264.2C119.122 265.736 121.842 266.504 124.946 266.504C128.05 266.504 130.77 265.736 133.106 264.2C135.442 262.664 137.25 260.6 138.53 258.008C139.842 255.384 140.498 252.472 140.498 249.272C140.498 246.072 139.842 243.176 138.53 240.584C137.25 237.992 135.442 235.928 133.106 234.392C130.77 232.824 128.05 232.04 124.946 232.04C121.842 232.04 119.122 232.824 116.786 234.392C114.45 235.928 112.626 237.992 111.314 240.584C110.034 243.176 109.394 246.072 109.394 249.272ZM91.9695 249.272C91.9695 244.664 92.8015 240.376 94.4655 236.408C96.1295 232.408 98.4495 228.92 101.426 225.944C104.402 222.968 107.89 220.648 111.89 218.984C115.922 217.32 120.274 216.488 124.946 216.488C129.682 216.488 134.05 217.32 138.05 218.984C142.05 220.648 145.538 222.968 148.514 225.944C151.49 228.92 153.794 232.408 155.426 236.408C157.058 240.376 157.874 244.664 157.874 249.272C157.874 253.912 157.074 258.232 155.474 262.232C153.874 266.2 151.602 269.688 148.658 272.696C145.746 275.672 142.274 277.992 138.242 279.656C134.21 281.32 129.778 282.152 124.946 282.152C119.954 282.152 115.442 281.32 111.41 279.656C107.378 277.992 103.906 275.672 100.994 272.696C98.1135 269.688 95.8895 266.2 94.3215 262.232C92.7535 258.232 91.9695 253.912 91.9695 249.272Z" fill="#0F1B2A"/>
</svg> 