<svg width="1082" height="452" viewBox="0 0 1082 452" fill="none" xmlns="http://www.w3.org/2000/svg">
<g filter="url(#filter0_d_1_309)">
<path d="M34.5 78.5C-16.5 135 -10.5 378.5 152.5 432.5M235 432.5C287.167 428.833 324 356.5 308 267.5M342 51C341.167 29.6667 347.2 -9.3 378 5.5C416.5 24 378 96 420 96C451 96 443.5 33.5 463.5 18.5C484.3 2.9 500 12.1667 502.5 13M522.5 72.5C513.5 135 451.5 147.5 436 168C404.038 210.272 452.175 264.355 428 284.5C359 342 418.5 424 457 408M585.5 378.5C545 256.5 617.4 39 743 51M796 96C792.667 110.167 800.9 135 844.5 135C899 135 911.5 259.5 819.5 239.5C763.739 227.378 720 285 703.5 378.5C690.3 453.3 788.833 447.667 839 432.5M980.5 426.5C1012.67 419.5 1071.7 365.5 1076.5 205.5" stroke="#EEE5DA" stroke-width="3" stroke-linecap="round" stroke-dasharray="10 10"/>
</g>
<defs>
<filter id="filter0_d_1_309" x="0.674194" y="0.738098" width="1081.33" height="450.644" filterUnits="userSpaceOnUse" color-interpolation-filters="sRGB">
<feFlood flood-opacity="0" result="BackgroundImageFix"/>
<feColorMatrix in="SourceAlpha" type="matrix" values="0 0 0 0 0 0 0 0 0 0 0 0 0 0 0 0 0 0 127 0" result="hardAlpha"/>
<feOffset dy="4"/>
<feGaussianBlur stdDeviation="2"/>
<feComposite in2="hardAlpha" operator="out"/>
<feColorMatrix type="matrix" values="0 0 0 0 0 0 0 0 0 0 0 0 0 0 0 0 0 0 0.25 0"/>
<feBlend mode="normal" in2="BackgroundImageFix" result="effect1_dropShadow_1_309"/>
<feBlend mode="normal" in="SourceGraphic" in2="effect1_dropShadow_1_309" result="shape"/>
</filter>
</defs>
</svg>
